<?xml version="1.0" encoding="UTF-8" standalone="no"?>
<!DOCTYPE svg PUBLIC "-//W3C//DTD SVG 1.1//EN"
 "http://www.w3.org/Graphics/SVG/1.1/DTD/svg11.dtd">
<!-- Generated by graphviz version 2.43.0 (0)
 -->
<!-- Title: auth.DeleteUserRequest Pages: 1 -->
<svg width="138pt" height="153pt"
 viewBox="0.00 0.00 138.00 153.00" xmlns="http://www.w3.org/2000/svg" xmlns:xlink="http://www.w3.org/1999/xlink">
<g id="graph0" class="graph" transform="scale(1 1) rotate(0) translate(4 149)">
<title>auth.DeleteUserRequest</title>
<!-- Node1 -->
<g id="Node000001" class="node">
<title>Node1</title>
<g id="a_Node000001"><a xlink:title=" ">
<polygon fill="#999999" stroke="transparent" points="130,-49 0,-49 0,0 130,0 130,-49"/>
<text text-anchor="start" x="5" y="-36.5" font-family="Helvetica,sans-Serif" font-size="10.00">auth.DeleteUserRequest</text>
<text text-anchor="start" x="63" y="-21.5" font-family="Helvetica,sans-Serif" font-size="10.00"> </text>
<text text-anchor="start" x="63" y="-6.5" font-family="Helvetica,sans-Serif" font-size="10.00"> </text>
<polygon fill="#666666" stroke="#666666" points="0,-31.5 0,-31.5 130,-31.5 130,-31.5 0,-31.5"/>
<polygon fill="#666666" stroke="#666666" points="0,-16.5 0,-16.5 130,-16.5 130,-16.5 0,-16.5"/>
<polygon fill="none" stroke="#666666" points="0,0 0,-49 130,-49 130,0 0,0"/>
</a>
</g>
</g>
<!-- Node2 -->
<g id="Node000002" class="node">
<title>Node2</title>
<g id="a_Node000002"><a xlink:title=" ">
<polygon fill="white" stroke="transparent" points="66.5,-145 1.5,-145 1.5,-96 66.5,-96 66.5,-145"/>
<text text-anchor="start" x="7" y="-132.5" font-family="Helvetica,sans-Serif" font-size="10.00">BaseModel</text>
<text text-anchor="start" x="32.5" y="-117.5" font-family="Helvetica,sans-Serif" font-size="10.00"> </text>
<text text-anchor="start" x="32.5" y="-102.5" font-family="Helvetica,sans-Serif" font-size="10.00"> </text>
<polygon fill="#666666" stroke="#666666" points="2,-127.5 2,-127.5 67,-127.5 67,-127.5 2,-127.5"/>
<polygon fill="#666666" stroke="#666666" points="2,-112.5 2,-112.5 67,-112.5 67,-112.5 2,-112.5"/>
<polygon fill="none" stroke="#666666" points="1.5,-96 1.5,-145 66.5,-145 66.5,-96 1.5,-96"/>
</a>
</g>
</g>
<!-- Node2&#45;&gt;Node1 -->
<g id="edge3_Node000001_Node000002" class="edge">
<title>Node2&#45;&gt;Node1</title>
<g id="a_edge3_Node000001_Node000002"><a xlink:title=" ">
<path fill="none" stroke="#63b8ff" d="M45.06,-85.96C49.07,-73.81 53.51,-60.34 57.18,-49.21"/>
<polygon fill="none" stroke="#63b8ff" points="41.63,-85.19 41.82,-95.78 48.28,-87.38 41.63,-85.19"/>
</a>
</g>
</g>
<!-- Node3 -->
<g id="Node000003" class="node">
<title>Node3</title>
<g id="a_Node000003"><a xlink:title=" ">
<polygon fill="white" stroke="transparent" points="107.5,-145 84.5,-145 84.5,-96 107.5,-96 107.5,-145"/>
<text text-anchor="start" x="90" y="-132.5" font-family="Helvetica,sans-Serif" font-size="10.00">int</text>
<text text-anchor="start" x="94.5" y="-117.5" font-family="Helvetica,sans-Serif" font-size="10.00"> </text>
<text text-anchor="start" x="94.5" y="-102.5" font-family="Helvetica,sans-Serif" font-size="10.00"> </text>
<polygon fill="#666666" stroke="#666666" points="85,-127.5 85,-127.5 108,-127.5 108,-127.5 85,-127.5"/>
<polygon fill="#666666" stroke="#666666" points="85,-112.5 85,-112.5 108,-112.5 108,-112.5 85,-112.5"/>
<polygon fill="none" stroke="#666666" points="84.5,-96 84.5,-145 107.5,-145 107.5,-96 84.5,-96"/>
</a>
</g>
</g>
<!-- Node3&#45;&gt;Node1 -->
<g id="edge4_Node000001_Node000003" class="edge">
<title>Node3&#45;&gt;Node1</title>
<g id="a_edge4_Node000001_Node000003"><a xlink:title=" ">
<path fill="none" stroke="#63b8ff" d="M88.18,-95.78C84.69,-85.2 80.51,-72.52 76.66,-60.86"/>
<polygon fill="none" stroke="#63b8ff" points="76.58,-60.61 70.9,-56.16 72.82,-49.21 78.5,-53.66 76.58,-60.61"/>
</a>
</g>
<text text-anchor="middle" x="104.5" y="-70" font-family="Helvetica,sans-Serif" font-size="10.00" fill="grey"> +user_id</text>
</g>
</g>
</svg>
