<?xml version="1.0" encoding="UTF-8" standalone="no"?>
<!DOCTYPE svg PUBLIC "-//W3C//DTD SVG 1.1//EN"
 "http://www.w3.org/Graphics/SVG/1.1/DTD/svg11.dtd">
<!-- Generated by graphviz version 2.43.0 (0)
 -->
<!-- Title: auth.PasswordChangeRequest Pages: 1 -->
<svg width="166pt" height="157pt"
 viewBox="0.00 0.00 166.00 157.00" xmlns="http://www.w3.org/2000/svg" xmlns:xlink="http://www.w3.org/1999/xlink">
<g id="graph0" class="graph" transform="scale(1 1) rotate(0) translate(4 153)">
<title>auth.PasswordChangeRequest</title>
<!-- Node1 -->
<g id="Node000001" class="node">
<title>Node1</title>
<g id="a_Node000001"><a xlink:title=" ">
<polygon fill="#999999" stroke="transparent" points="158,-64 0,-64 0,0 158,0 158,-64"/>
<text text-anchor="start" x="5" y="-52" font-family="Helvetica,sans-Serif" font-size="10.00">auth.PasswordChangeRequest</text>
<text text-anchor="start" x="20" y="-37" font-family="Helvetica,sans-Serif" font-size="10.00">+</text>
<text text-anchor="start" x="49" y="-37" font-family="Helvetica,sans-Serif" font-size="10.00">user_id</text>
<text text-anchor="start" x="20" y="-22" font-family="Helvetica,sans-Serif" font-size="10.00">+</text>
<text text-anchor="start" x="49" y="-22" font-family="Helvetica,sans-Serif" font-size="10.00">new_password</text>
<text text-anchor="start" x="77" y="-7" font-family="Helvetica,sans-Serif" font-size="10.00"> </text>
<polygon fill="#666666" stroke="#666666" points="0,-47 0,-47 158,-47 158,-47 0,-47"/>
<polygon fill="#666666" stroke="#666666" points="0,-17 0,-17 47,-17 47,-17 0,-17"/>
<polygon fill="#666666" stroke="#666666" points="47,-17 47,-17 158,-17 158,-17 47,-17"/>
<polygon fill="none" stroke="#666666" points="0,0 0,-64 158,-64 158,0 0,0"/>
</a>
</g>
</g>
<!-- Node2 -->
<g id="Node000002" class="node">
<title>Node2</title>
<g id="a_Node000002"><a xlink:title=" ">
<polygon fill="white" stroke="transparent" points="111.5,-149 46.5,-149 46.5,-100 111.5,-100 111.5,-149"/>
<text text-anchor="start" x="52" y="-136.5" font-family="Helvetica,sans-Serif" font-size="10.00">BaseModel</text>
<text text-anchor="start" x="77.5" y="-121.5" font-family="Helvetica,sans-Serif" font-size="10.00"> </text>
<text text-anchor="start" x="77.5" y="-106.5" font-family="Helvetica,sans-Serif" font-size="10.00"> </text>
<polygon fill="#666666" stroke="#666666" points="47,-131.5 47,-131.5 112,-131.5 112,-131.5 47,-131.5"/>
<polygon fill="#666666" stroke="#666666" points="47,-116.5 47,-116.5 112,-116.5 112,-116.5 47,-116.5"/>
<polygon fill="none" stroke="#666666" points="46.5,-100 46.5,-149 111.5,-149 111.5,-100 46.5,-100"/>
</a>
</g>
</g>
<!-- Node2&#45;&gt;Node1 -->
<g id="edge2_Node000001_Node000002" class="edge">
<title>Node2&#45;&gt;Node1</title>
<g id="a_edge2_Node000001_Node000002"><a xlink:title=" ">
<path fill="none" stroke="#63b8ff" d="M79,-89.54C79,-81.2 79,-72.31 79,-64.11"/>
<polygon fill="none" stroke="#63b8ff" points="75.5,-89.72 79,-99.72 82.5,-89.72 75.5,-89.72"/>
</a>
</g>
</g>
</g>
</svg>
