<?xml version="1.0" encoding="UTF-8" standalone="no"?>
<!DOCTYPE svg PUBLIC "-//W3C//DTD SVG 1.1//EN"
 "http://www.w3.org/Graphics/SVG/1.1/DTD/svg11.dtd">
<!-- Generated by graphviz version 2.43.0 (0)
 -->
<!-- Title: auth.DeleteUserResponse Pages: 1 -->
<svg width="149pt" height="153pt"
 viewBox="0.00 0.00 148.50 153.00" xmlns="http://www.w3.org/2000/svg" xmlns:xlink="http://www.w3.org/1999/xlink">
<g id="graph0" class="graph" transform="scale(1 1) rotate(0) translate(4 149)">
<title>auth.DeleteUserResponse</title>
<!-- Node1 -->
<g id="Node000001" class="node">
<title>Node1</title>
<g id="a_Node000001"><a xlink:title=" ">
<polygon fill="#999999" stroke="transparent" points="137,-49 0,-49 0,0 137,0 137,-49"/>
<text text-anchor="start" x="5.5" y="-36.5" font-family="Helvetica,sans-Serif" font-size="10.00">auth.DeleteUserResponse</text>
<text text-anchor="start" x="67" y="-21.5" font-family="Helvetica,sans-Serif" font-size="10.00"> </text>
<text text-anchor="start" x="67" y="-6.5" font-family="Helvetica,sans-Serif" font-size="10.00"> </text>
<polygon fill="#666666" stroke="#666666" points="0.5,-31.5 0.5,-31.5 137.5,-31.5 137.5,-31.5 0.5,-31.5"/>
<polygon fill="#666666" stroke="#666666" points="0.5,-16.5 0.5,-16.5 137.5,-16.5 137.5,-16.5 0.5,-16.5"/>
<polygon fill="none" stroke="#666666" points="0,0 0,-49 137,-49 137,0 0,0"/>
</a>
</g>
</g>
<!-- Node2 -->
<g id="Node000002" class="node">
<title>Node2</title>
<g id="a_Node000002"><a xlink:title=" ">
<polygon fill="white" stroke="transparent" points="70,-145 5,-145 5,-96 70,-96 70,-145"/>
<text text-anchor="start" x="10.5" y="-132.5" font-family="Helvetica,sans-Serif" font-size="10.00">BaseModel</text>
<text text-anchor="start" x="36" y="-117.5" font-family="Helvetica,sans-Serif" font-size="10.00"> </text>
<text text-anchor="start" x="36" y="-102.5" font-family="Helvetica,sans-Serif" font-size="10.00"> </text>
<polygon fill="#666666" stroke="#666666" points="5.5,-127.5 5.5,-127.5 70.5,-127.5 70.5,-127.5 5.5,-127.5"/>
<polygon fill="#666666" stroke="#666666" points="5.5,-112.5 5.5,-112.5 70.5,-112.5 70.5,-112.5 5.5,-112.5"/>
<polygon fill="none" stroke="#666666" points="5,-96 5,-145 70,-145 70,-96 5,-96"/>
</a>
</g>
</g>
<!-- Node2&#45;&gt;Node1 -->
<g id="edge3_Node000001_Node000002" class="edge">
<title>Node2&#45;&gt;Node1</title>
<g id="a_edge3_Node000001_Node000002"><a xlink:title=" ">
<path fill="none" stroke="#63b8ff" d="M48.56,-85.96C52.57,-73.81 57.01,-60.34 60.68,-49.21"/>
<polygon fill="none" stroke="#63b8ff" points="45.13,-85.19 45.32,-95.78 51.78,-87.38 45.13,-85.19"/>
</a>
</g>
</g>
<!-- Node3 -->
<g id="Node000003" class="node">
<title>Node3</title>
<g id="a_Node000003"><a xlink:title=" ">
<polygon fill="white" stroke="transparent" points="111,-145 88,-145 88,-96 111,-96 111,-145"/>
<text text-anchor="start" x="93.5" y="-132.5" font-family="Helvetica,sans-Serif" font-size="10.00">str</text>
<text text-anchor="start" x="98" y="-117.5" font-family="Helvetica,sans-Serif" font-size="10.00"> </text>
<text text-anchor="start" x="98" y="-102.5" font-family="Helvetica,sans-Serif" font-size="10.00"> </text>
<polygon fill="#666666" stroke="#666666" points="88.5,-127.5 88.5,-127.5 111.5,-127.5 111.5,-127.5 88.5,-127.5"/>
<polygon fill="#666666" stroke="#666666" points="88.5,-112.5 88.5,-112.5 111.5,-112.5 111.5,-112.5 88.5,-112.5"/>
<polygon fill="none" stroke="#666666" points="88,-96 88,-145 111,-145 111,-96 88,-96"/>
</a>
</g>
</g>
<!-- Node3&#45;&gt;Node1 -->
<g id="edge4_Node000001_Node000003" class="edge">
<title>Node3&#45;&gt;Node1</title>
<g id="a_edge4_Node000001_Node000003"><a xlink:title=" ">
<path fill="none" stroke="#63b8ff" d="M91.68,-95.78C88.19,-85.2 84.01,-72.52 80.16,-60.86"/>
<polygon fill="none" stroke="#63b8ff" points="80.08,-60.61 74.4,-56.16 76.32,-49.21 82,-53.66 80.08,-60.61"/>
</a>
</g>
<text text-anchor="middle" x="112.5" y="-70" font-family="Helvetica,sans-Serif" font-size="10.00" fill="grey"> +message</text>
</g>
</g>
</svg>
