<?xml version="1.0" encoding="UTF-8" standalone="no"?>
<!DOCTYPE svg PUBLIC "-//W3C//DTD SVG 1.1//EN"
 "http://www.w3.org/Graphics/SVG/1.1/DTD/svg11.dtd">
<!-- Generated by graphviz version 2.43.0 (0)
 -->
<!-- Title: auth.UserResponse Pages: 1 -->
<svg width="268pt" height="164pt"
 viewBox="0.00 0.00 267.50 164.00" xmlns="http://www.w3.org/2000/svg" xmlns:xlink="http://www.w3.org/1999/xlink">
<g id="graph0" class="graph" transform="scale(1 1) rotate(0) translate(4 160)">
<title>auth.UserResponse</title>
<!-- Node1 -->
<g id="Node000001" class="node">
<title>Node1</title>
<g id="a_Node000001"><a xlink:title=" ">
<polygon fill="#999999" stroke="transparent" points="169,-49 64,-49 64,0 169,0 169,-49"/>
<text text-anchor="start" x="69.5" y="-36.5" font-family="Helvetica,sans-Serif" font-size="10.00">auth.UserResponse</text>
<text text-anchor="start" x="115" y="-21.5" font-family="Helvetica,sans-Serif" font-size="10.00"> </text>
<text text-anchor="start" x="115" y="-6.5" font-family="Helvetica,sans-Serif" font-size="10.00"> </text>
<polygon fill="#666666" stroke="#666666" points="64.5,-31.5 64.5,-31.5 169.5,-31.5 169.5,-31.5 64.5,-31.5"/>
<polygon fill="#666666" stroke="#666666" points="64.5,-16.5 64.5,-16.5 169.5,-16.5 169.5,-16.5 64.5,-16.5"/>
<polygon fill="none" stroke="#666666" points="64,0 64,-49 169,-49 169,0 64,0"/>
</a>
</g>
</g>
<!-- Node2 -->
<g id="Node000002" class="node">
<title>Node2</title>
<g id="a_Node000002"><a xlink:title=" ">
<polygon fill="white" stroke="transparent" points="65,-156 0,-156 0,-107 65,-107 65,-156"/>
<text text-anchor="start" x="5.5" y="-143.5" font-family="Helvetica,sans-Serif" font-size="10.00">BaseModel</text>
<text text-anchor="start" x="31" y="-128.5" font-family="Helvetica,sans-Serif" font-size="10.00"> </text>
<text text-anchor="start" x="31" y="-113.5" font-family="Helvetica,sans-Serif" font-size="10.00"> </text>
<polygon fill="#666666" stroke="#666666" points="0.5,-138.5 0.5,-138.5 65.5,-138.5 65.5,-138.5 0.5,-138.5"/>
<polygon fill="#666666" stroke="#666666" points="0.5,-123.5 0.5,-123.5 65.5,-123.5 65.5,-123.5 0.5,-123.5"/>
<polygon fill="none" stroke="#666666" points="0,-107 0,-156 65,-156 65,-107 0,-107"/>
</a>
</g>
</g>
<!-- Node2&#45;&gt;Node1 -->
<g id="edge5_Node000001_Node000002" class="edge">
<title>Node2&#45;&gt;Node1</title>
<g id="a_edge5_Node000001_Node000002"><a xlink:title=" ">
<path fill="none" stroke="#63b8ff" d="M57.76,-98.93C70.49,-83.01 85.68,-64.03 97.42,-49.35"/>
<polygon fill="none" stroke="#63b8ff" points="54.87,-96.94 51.35,-106.94 60.33,-101.31 54.87,-96.94"/>
</a>
</g>
</g>
<!-- Node3 -->
<g id="Node000003" class="node">
<title>Node3</title>
<g id="a_Node000003"><a xlink:title=" ">
<polygon fill="white" stroke="transparent" points="106,-156 83,-156 83,-107 106,-107 106,-156"/>
<text text-anchor="start" x="88.5" y="-143.5" font-family="Helvetica,sans-Serif" font-size="10.00">int</text>
<text text-anchor="start" x="93" y="-128.5" font-family="Helvetica,sans-Serif" font-size="10.00"> </text>
<text text-anchor="start" x="93" y="-113.5" font-family="Helvetica,sans-Serif" font-size="10.00"> </text>
<polygon fill="#666666" stroke="#666666" points="83.5,-138.5 83.5,-138.5 106.5,-138.5 106.5,-138.5 83.5,-138.5"/>
<polygon fill="#666666" stroke="#666666" points="83.5,-123.5 83.5,-123.5 106.5,-123.5 106.5,-123.5 83.5,-123.5"/>
<polygon fill="none" stroke="#666666" points="83,-107 83,-156 106,-156 106,-107 83,-107"/>
</a>
</g>
</g>
<!-- Node3&#45;&gt;Node1 -->
<g id="edge6_Node000001_Node000003" class="edge">
<title>Node3&#45;&gt;Node1</title>
<g id="a_edge6_Node000001_Node000003"><a xlink:title=" ">
<path fill="none" stroke="#63b8ff" d="M92.37,-106.95C91.9,-94.85 92.3,-79.95 95.5,-67 96.03,-64.86 96.68,-62.7 97.43,-60.56"/>
<polygon fill="none" stroke="#63b8ff" points="97.49,-60.43 96.12,-53.34 102.14,-49.36 103.5,-56.44 97.49,-60.43"/>
</a>
</g>
<text text-anchor="middle" x="106" y="-75.5" font-family="Helvetica,sans-Serif" font-size="10.00" fill="grey"> +id</text>
</g>
<!-- Node4 -->
<g id="Node000004" class="node">
<title>Node4</title>
<g id="a_Node000004"><a xlink:title=" ">
<polygon fill="white" stroke="transparent" points="150,-156 127,-156 127,-107 150,-107 150,-156"/>
<text text-anchor="start" x="132.5" y="-143.5" font-family="Helvetica,sans-Serif" font-size="10.00">str</text>
<text text-anchor="start" x="137" y="-128.5" font-family="Helvetica,sans-Serif" font-size="10.00"> </text>
<text text-anchor="start" x="137" y="-113.5" font-family="Helvetica,sans-Serif" font-size="10.00"> </text>
<polygon fill="#666666" stroke="#666666" points="127.5,-138.5 127.5,-138.5 150.5,-138.5 150.5,-138.5 127.5,-138.5"/>
<polygon fill="#666666" stroke="#666666" points="127.5,-123.5 127.5,-123.5 150.5,-123.5 150.5,-123.5 127.5,-123.5"/>
<polygon fill="none" stroke="#666666" points="127,-107 127,-156 150,-156 150,-107 127,-107"/>
</a>
</g>
</g>
<!-- Node4&#45;&gt;Node1 -->
<g id="edge7_Node000001_Node000004" class="edge">
<title>Node4&#45;&gt;Node1</title>
<g id="a_edge7_Node000001_Node000004"><a xlink:title=" ">
<path fill="none" stroke="#63b8ff" d="M133.56,-106.94C130.75,-93.52 127.17,-76.44 124.02,-61.39"/>
<polygon fill="none" stroke="#63b8ff" points="123.96,-61.09 118.81,-56.04 121.5,-49.35 126.64,-54.4 123.96,-61.09"/>
</a>
</g>
<text text-anchor="middle" x="157.5" y="-81" font-family="Helvetica,sans-Serif" font-size="10.00" fill="grey"> +email</text>
<text text-anchor="middle" x="157.5" y="-70" font-family="Helvetica,sans-Serif" font-size="10.00" fill="grey">+username</text>
</g>
<!-- Node5 -->
<g id="Node000005" class="node">
<title>Node5</title>
<g id="a_Node000005"><a xlink:title=" ">
<polygon fill="white" stroke="transparent" points="235.5,-156 203.5,-156 203.5,-107 235.5,-107 235.5,-156"/>
<text text-anchor="start" x="208.5" y="-143.5" font-family="Helvetica,sans-Serif" font-size="10.00">bool</text>
<text text-anchor="start" x="217.5" y="-128.5" font-family="Helvetica,sans-Serif" font-size="10.00"> </text>
<text text-anchor="start" x="217.5" y="-113.5" font-family="Helvetica,sans-Serif" font-size="10.00"> </text>
<polygon fill="#666666" stroke="#666666" points="203.5,-138.5 203.5,-138.5 235.5,-138.5 235.5,-138.5 203.5,-138.5"/>
<polygon fill="#666666" stroke="#666666" points="203.5,-123.5 203.5,-123.5 235.5,-123.5 235.5,-123.5 203.5,-123.5"/>
<polygon fill="none" stroke="#666666" points="203.5,-107 203.5,-156 235.5,-156 235.5,-107 203.5,-107"/>
</a>
</g>
</g>
<!-- Node5&#45;&gt;Node1 -->
<g id="edge8_Node000001_Node000005" class="edge">
<title>Node5&#45;&gt;Node1</title>
<g id="a_edge8_Node000001_Node000005"><a xlink:title=" ">
<path fill="none" stroke="#63b8ff" d="M212.66,-106.7C208.03,-93.79 200.84,-78.24 190.5,-67 186.87,-63.05 182.77,-59.39 178.41,-56.01"/>
<polygon fill="none" stroke="#63b8ff" points="178.35,-55.97 171.15,-55.78 168.54,-49.06 175.75,-49.24 178.35,-55.97"/>
</a>
</g>
<text text-anchor="middle" x="231.5" y="-75.5" font-family="Helvetica,sans-Serif" font-size="10.00" fill="grey"> +is_admin</text>
</g>
</g>
</svg>
