<?xml version="1.0" encoding="UTF-8" standalone="no"?>
<!DOCTYPE svg PUBLIC "-//W3C//DTD SVG 1.1//EN"
 "http://www.w3.org/Graphics/SVG/1.1/DTD/svg11.dtd">
<!-- Generated by graphviz version 2.43.0 (0)
 -->
<!-- Title: auth.create_tokens Pages: 1 -->
<svg width="262pt" height="64pt"
 viewBox="0.00 0.00 262.00 64.00" xmlns="http://www.w3.org/2000/svg" xmlns:xlink="http://www.w3.org/1999/xlink">
<g id="graph0" class="graph" transform="scale(1 1) rotate(0) translate(4 60)">
<title>auth.create_tokens</title>
<!-- Node1 -->
<g id="Node000001" class="node">
<title>Node1</title>
<g id="a_Node000001"><a xlink:title=" ">
<polygon fill="#999999" stroke="#666666" points="254,-37 144,-37 144,-18 254,-18 254,-37"/>
<text text-anchor="middle" x="199" y="-25" font-family="Helvetica,sans-Serif" font-size="10.00">auth.create_tokens</text>
</a>
</g>
</g>
<!-- Node2 -->
<g id="Node000002" class="node">
<title>Node2</title>
<g id="a_Node000002"><a xlink:href="$namespaceauth.html#a70e6da45c7251d2296a1db1d56f5e359" xlink:title=" ">
<polygon fill="white" stroke="#666666" points="86.5,-56 21.5,-56 21.5,-37 86.5,-37 86.5,-56"/>
<text text-anchor="middle" x="54" y="-44" font-family="Helvetica,sans-Serif" font-size="10.00">auth.login</text>
</a>
</g>
</g>
<!-- Node1&#45;&gt;Node2 -->
<g id="edge3_Node000001_Node000002" class="edge">
<title>Node1&#45;&gt;Node2</title>
<g id="a_edge3_Node000001_Node000002"><a xlink:title=" ">
<path fill="none" stroke="#63b8ff" d="M133.86,-36.02C117.51,-38.19 100.65,-40.43 86.73,-42.28"/>
<polygon fill="#63b8ff" stroke="#63b8ff" points="134.49,-39.47 143.94,-34.68 133.56,-32.53 134.49,-39.47"/>
</a>
</g>
</g>
<!-- Node3 -->
<g id="Node000003" class="node">
<title>Node3</title>
<g id="a_Node000003"><a xlink:href="$namespaceauth.html#a71394ac4b1319dfb9517cb819f761128" xlink:title=" ">
<polygon fill="white" stroke="#666666" points="108,-19 0,-19 0,0 108,0 108,-19"/>
<text text-anchor="middle" x="54" y="-7" font-family="Helvetica,sans-Serif" font-size="10.00">auth.refresh_token</text>
</a>
</g>
</g>
<!-- Node1&#45;&gt;Node3 -->
<g id="edge4_Node000001_Node000003" class="edge">
<title>Node1&#45;&gt;Node3</title>
<g id="a_edge4_Node000001_Node000003"><a xlink:title=" ">
<path fill="none" stroke="#63b8ff" d="M133.93,-19.44C125.33,-18.35 116.58,-17.25 108.19,-16.2"/>
<polygon fill="#63b8ff" stroke="#63b8ff" points="133.58,-22.92 143.94,-20.69 134.45,-15.97 133.58,-22.92"/>
</a>
</g>
</g>
</g>
</svg>
