<?xml version="1.0" encoding="UTF-8" standalone="no"?>
<!DOCTYPE svg PUBLIC "-//W3C//DTD SVG 1.1//EN"
 "http://www.w3.org/Graphics/SVG/1.1/DTD/svg11.dtd">
<!-- Generated by graphviz version 2.43.0 (0)
 -->
<!-- Title: auth.RefreshResponse Pages: 1 -->
<svg width="308pt" height="197pt"
 viewBox="0.00 0.00 307.50 197.00" xmlns="http://www.w3.org/2000/svg" xmlns:xlink="http://www.w3.org/1999/xlink">

<svg id="main" version="1.1" xmlns="http://www.w3.org/2000/svg" xmlns:xlink="http://www.w3.org/1999/xlink" xml:space="preserve" onload="init(evt)">
<style type="text/css"><![CDATA[
.node, .edge {opacity: 0.7;}
.node.selected, .edge.selected {opacity: 1;}
.edge:hover path { stroke: red; }
.edge:hover polygon { stroke: red; fill: red; }
]]></style>
<script type="application/ecmascript" xlink:href="svg.min.js"/>
<svg id="graph" class="graph">
<g id="graph0" class="graph" transform="scale(1 1) rotate(0) translate(4 193)">
<title>auth.RefreshResponse</title>
<!-- Node1 -->
<g id="Node000001" class="node">
<title>Node1</title>
<g id="a_Node000001"><a xlink:title=" ">
<polygon fill="#999999" stroke="transparent" points="154.5,-49 34.5,-49 34.5,0 154.5,0 154.5,-49"/>
<text text-anchor="start" x="39.5" y="-36.5" font-family="Helvetica,sans-Serif" font-size="10.00">auth.RefreshResponse</text>
<text text-anchor="start" x="92.5" y="-21.5" font-family="Helvetica,sans-Serif" font-size="10.00"> </text>
<text text-anchor="start" x="92.5" y="-6.5" font-family="Helvetica,sans-Serif" font-size="10.00"> </text>
<polygon fill="#666666" stroke="#666666" points="34.5,-31.5 34.5,-31.5 154.5,-31.5 154.5,-31.5 34.5,-31.5"/>
<polygon fill="#666666" stroke="#666666" points="34.5,-16.5 34.5,-16.5 154.5,-16.5 154.5,-16.5 34.5,-16.5"/>
<polygon fill="none" stroke="#666666" points="34.5,0 34.5,-49 154.5,-49 154.5,0 34.5,0"/>
</a>
</g>
</g>
<!-- Node2 -->
<g id="Node000002" class="node">
<title>Node2</title>
<g id="a_Node000002"><a xlink:title=" ">
<polygon fill="white" stroke="transparent" points="65,-189 0,-189 0,-140 65,-140 65,-189"/>
<text text-anchor="start" x="5.5" y="-176.5" font-family="Helvetica,sans-Serif" font-size="10.00">BaseModel</text>
<text text-anchor="start" x="31" y="-161.5" font-family="Helvetica,sans-Serif" font-size="10.00"> </text>
<text text-anchor="start" x="31" y="-146.5" font-family="Helvetica,sans-Serif" font-size="10.00"> </text>
<polygon fill="#666666" stroke="#666666" points="0.5,-171.5 0.5,-171.5 65.5,-171.5 65.5,-171.5 0.5,-171.5"/>
<polygon fill="#666666" stroke="#666666" points="0.5,-156.5 0.5,-156.5 65.5,-156.5 65.5,-156.5 0.5,-156.5"/>
<polygon fill="none" stroke="#666666" points="0,-140 0,-189 65,-189 65,-140 0,-140"/>
</a>
</g>
</g>
<!-- Node2&#45;&gt;Node1 -->
<g id="edge1_Node000001_Node000002" class="edge">
<title>Node2&#45;&gt;Node1</title>
<g id="a_edge1_Node000001_Node000002"><a xlink:title=" ">
<path fill="none" stroke="#63b8ff" d="M47.4,-130.34C58.62,-105.37 73.72,-71.74 83.77,-49.38"/>
<polygon fill="none" stroke="#63b8ff" points="44.06,-129.22 43.16,-139.78 50.45,-132.09 44.06,-129.22"/>
</a>
</g>
</g>
<!-- Node3 -->
<g id="Node000003" class="node">
<title>Node3</title>
<g id="a_Node000003"><a xlink:title=" ">
<polygon fill="white" stroke="transparent" points="106,-189 83,-189 83,-140 106,-140 106,-189"/>
<text text-anchor="start" x="88.5" y="-176.5" font-family="Helvetica,sans-Serif" font-size="10.00">str</text>
<text text-anchor="start" x="93" y="-161.5" font-family="Helvetica,sans-Serif" font-size="10.00"> </text>
<text text-anchor="start" x="93" y="-146.5" font-family="Helvetica,sans-Serif" font-size="10.00"> </text>
<polygon fill="#666666" stroke="#666666" points="83.5,-171.5 83.5,-171.5 106.5,-171.5 106.5,-171.5 83.5,-171.5"/>
<polygon fill="#666666" stroke="#666666" points="83.5,-156.5 83.5,-156.5 106.5,-156.5 106.5,-156.5 83.5,-156.5"/>
<polygon fill="none" stroke="#666666" points="83,-140 83,-189 106,-189 106,-140 83,-140"/>
</a>
</g>
</g>
<!-- Node3&#45;&gt;Node1 -->
<g id="edge2_Node000001_Node000003" class="edge">
<title>Node3&#45;&gt;Node1</title>
<g id="a_edge2_Node000001_Node000003"><a xlink:title=" ">
<path fill="none" stroke="#63b8ff" d="M94.5,-139.78C94.5,-118.25 94.5,-86.2 94.5,-61.52"/>
<polygon fill="none" stroke="#63b8ff" points="94.5,-61.38 90.5,-55.38 94.5,-49.38 98.5,-55.38 94.5,-61.38"/>
</a>
</g>
<text text-anchor="middle" x="137" y="-114" font-family="Helvetica,sans-Serif" font-size="10.00" fill="grey"> +access_token</text>
<text text-anchor="middle" x="137" y="-103" font-family="Helvetica,sans-Serif" font-size="10.00" fill="grey">+expires_at</text>
<text text-anchor="start" x="94.5" y="-92" font-family="Helvetica,sans-Serif" font-size="10.00" fill="grey">+refresh_expires</text>
<text text-anchor="middle" x="137" y="-81" font-family="Helvetica,sans-Serif" font-size="10.00" fill="grey">_at</text>
<text text-anchor="middle" x="137" y="-70" font-family="Helvetica,sans-Serif" font-size="10.00" fill="grey">+refresh_token</text>
</g>
<!-- Node4 -->
<g id="Node000004" class="node">
<title>Node4</title>
<g id="a_Node000004"><a xlink:title=" ">
<polygon fill="white" stroke="transparent" points="214,-189 191,-189 191,-140 214,-140 214,-189"/>
<text text-anchor="start" x="196.5" y="-176.5" font-family="Helvetica,sans-Serif" font-size="10.00">int</text>
<text text-anchor="start" x="201" y="-161.5" font-family="Helvetica,sans-Serif" font-size="10.00"> </text>
<text text-anchor="start" x="201" y="-146.5" font-family="Helvetica,sans-Serif" font-size="10.00"> </text>
<polygon fill="#666666" stroke="#666666" points="191.5,-171.5 191.5,-171.5 214.5,-171.5 214.5,-171.5 191.5,-171.5"/>
<polygon fill="#666666" stroke="#666666" points="191.5,-156.5 191.5,-156.5 214.5,-156.5 214.5,-156.5 191.5,-156.5"/>
<polygon fill="none" stroke="#666666" points="191,-140 191,-189 214,-189 214,-140 191,-140"/>
</a>
</g>
</g>
<!-- Node4&#45;&gt;Node1 -->
<g id="edge3_Node000001_Node000004" class="edge">
<title>Node4&#45;&gt;Node1</title>
<g id="a_edge3_Node000001_Node000004"><a xlink:title=" ">
<path fill="none" stroke="#63b8ff" d="M202.66,-139.61C201.6,-118.41 196.99,-87.7 180.5,-67 176.07,-61.43 170.7,-56.57 164.84,-52.32"/>
<polygon fill="none" stroke="#63b8ff" points="164.7,-52.23 157.49,-52.36 154.59,-45.75 161.8,-45.62 164.7,-52.23"/>
</a>
</g>
<text text-anchor="middle" x="250" y="-97.5" font-family="Helvetica,sans-Serif" font-size="10.00" fill="grey"> +expires_in</text>
<text text-anchor="middle" x="250" y="-86.5" font-family="Helvetica,sans-Serif" font-size="10.00" fill="grey">+refresh_expires_in</text>
</g>
</g>
</svg>
</svg>

<style type='text/css'>
<![CDATA[
[data-mouse-over-selected='false'] { opacity: 0.7; }
[data-mouse-over-selected='true']  { opacity: 1.0; }
]]>
</style>
<script type="application/ecmascript"><![CDATA[
document.addEventListener('DOMContentLoaded', (event) => {
  highlightEdges();
  highlightAdjacentNodes();
});
]]></script>
</svg>
