<?xml version="1.0" encoding="UTF-8" standalone="no"?>
<!DOCTYPE svg PUBLIC "-//W3C//DTD SVG 1.1//EN"
 "http://www.w3.org/Graphics/SVG/1.1/DTD/svg11.dtd">
<!-- Generated by graphviz version 2.43.0 (0)
 -->
<!-- Title: token_storage.TokenStorage Pages: 1 -->
<svg width="163pt" height="410pt"
 viewBox="0.00 0.00 163.00 410.00" xmlns="http://www.w3.org/2000/svg" xmlns:xlink="http://www.w3.org/1999/xlink">

<svg id="main" version="1.1" xmlns="http://www.w3.org/2000/svg" xmlns:xlink="http://www.w3.org/1999/xlink" xml:space="preserve" onload="init(evt)">
<style type="text/css"><![CDATA[
.node, .edge {opacity: 0.7;}
.node.selected, .edge.selected {opacity: 1;}
.edge:hover path { stroke: red; }
.edge:hover polygon { stroke: red; fill: red; }
]]></style>
<script type="application/ecmascript" xlink:href="svg.min.js"/>
<svg id="graph" class="graph">
<g id="graph0" class="graph" transform="scale(1 1) rotate(0) translate(4 406)">
<title>token_storage.TokenStorage</title>
<!-- Node1 -->
<g id="Node000001" class="node">
<title>Node1</title>
<g id="a_Node000001"><a xlink:title=" ">
<polygon fill="#999999" stroke="transparent" points="151.5,-317 3.5,-317 3.5,-238 151.5,-238 151.5,-317"/>
<text text-anchor="start" x="8.5" y="-304.5" font-family="Helvetica,sans-Serif" font-size="10.00">token_storage.TokenStorage</text>
<text text-anchor="start" x="75.5" y="-289.5" font-family="Helvetica,sans-Serif" font-size="10.00"> </text>
<text text-anchor="start" x="19.5" y="-274.5" font-family="Helvetica,sans-Serif" font-size="10.00">+</text>
<text text-anchor="start" x="44.5" y="-274.5" font-family="Helvetica,sans-Serif" font-size="10.00">store_token()</text>
<text text-anchor="start" x="19.5" y="-259.5" font-family="Helvetica,sans-Serif" font-size="10.00">+</text>
<text text-anchor="start" x="44.5" y="-259.5" font-family="Helvetica,sans-Serif" font-size="10.00">retrieve_token()</text>
<text text-anchor="start" x="19.5" y="-244.5" font-family="Helvetica,sans-Serif" font-size="10.00">+</text>
<text text-anchor="start" x="44.5" y="-244.5" font-family="Helvetica,sans-Serif" font-size="10.00">delete_token()</text>
<polygon fill="#666666" stroke="#666666" points="3.5,-299.5 3.5,-299.5 151.5,-299.5 151.5,-299.5 3.5,-299.5"/>
<polygon fill="#666666" stroke="#666666" points="3.5,-284.5 3.5,-284.5 151.5,-284.5 151.5,-284.5 3.5,-284.5"/>
<polygon fill="none" stroke="#666666" points="3.5,-238 3.5,-317 151.5,-317 151.5,-238 3.5,-238"/>
</a>
</g>
</g>
<!-- Node3 -->
<g id="Node000003" class="node">
<title>Node3</title>
<g id="a_Node000003"><a xlink:href="classredis__token__storage_1_1RedisTokenStorage.html" target="_top" xlink:title=" ">
<polygon fill="white" stroke="transparent" points="155,-202 0,-202 0,0 155,0 155,-202"/>
<text text-anchor="start" x="13.5" y="-190" font-family="Helvetica,sans-Serif" font-size="10.00">redis_token_storage.Redis</text>
<text text-anchor="start" x="45" y="-179" font-family="Helvetica,sans-Serif" font-size="10.00">TokenStorage</text>
<text text-anchor="start" x="4.5" y="-164" font-family="Helvetica,sans-Serif" font-size="10.00">+</text>
<text text-anchor="start" x="17.5" y="-164" font-family="Helvetica,sans-Serif" font-size="10.00">redis_client</text>
<text text-anchor="start" x="4.5" y="-149" font-family="Helvetica,sans-Serif" font-size="10.00">+</text>
<text text-anchor="start" x="17.5" y="-149" font-family="Helvetica,sans-Serif" font-size="10.00">__init__()</text>
<text text-anchor="start" x="4.5" y="-134" font-family="Helvetica,sans-Serif" font-size="10.00">+</text>
<text text-anchor="start" x="17.5" y="-134" font-family="Helvetica,sans-Serif" font-size="10.00">store_token()</text>
<text text-anchor="start" x="4.5" y="-119" font-family="Helvetica,sans-Serif" font-size="10.00">+</text>
<text text-anchor="start" x="17.5" y="-119" font-family="Helvetica,sans-Serif" font-size="10.00">retrieve_token()</text>
<text text-anchor="start" x="4.5" y="-104" font-family="Helvetica,sans-Serif" font-size="10.00">+</text>
<text text-anchor="start" x="17.5" y="-104" font-family="Helvetica,sans-Serif" font-size="10.00">delete_token()</text>
<text text-anchor="start" x="4.5" y="-89" font-family="Helvetica,sans-Serif" font-size="10.00">+</text>
<text text-anchor="start" x="17.5" y="-89" font-family="Helvetica,sans-Serif" font-size="10.00">delete_tokens_by_user_id()</text>
<text text-anchor="start" x="4.5" y="-74" font-family="Helvetica,sans-Serif" font-size="10.00">+</text>
<text text-anchor="start" x="17.5" y="-74" font-family="Helvetica,sans-Serif" font-size="10.00">store_refresh_token()</text>
<text text-anchor="start" x="4.5" y="-59" font-family="Helvetica,sans-Serif" font-size="10.00">+</text>
<text text-anchor="start" x="17.5" y="-59" font-family="Helvetica,sans-Serif" font-size="10.00">retrieve_user_id_by</text>
<text text-anchor="start" x="17.5" y="-48" font-family="Helvetica,sans-Serif" font-size="10.00">_refresh_token()</text>
<text text-anchor="start" x="4.5" y="-33" font-family="Helvetica,sans-Serif" font-size="10.00">+</text>
<text text-anchor="start" x="17.5" y="-33" font-family="Helvetica,sans-Serif" font-size="10.00">delete_refresh_token()</text>
<text text-anchor="start" x="4.5" y="-18" font-family="Helvetica,sans-Serif" font-size="10.00">+</text>
<text text-anchor="start" x="17.5" y="-18" font-family="Helvetica,sans-Serif" font-size="10.00">delete_all_refresh</text>
<text text-anchor="start" x="17.5" y="-7" font-family="Helvetica,sans-Serif" font-size="10.00">_tokens_by_user_id()</text>
<polygon fill="#666666" stroke="#666666" points="0.5,-174 0.5,-174 155.5,-174 155.5,-174 0.5,-174"/>
<polygon fill="#666666" stroke="#666666" points="0.5,-159 0.5,-159 15.5,-159 15.5,-159 0.5,-159"/>
<polygon fill="#666666" stroke="#666666" points="15.5,-159 15.5,-159 155.5,-159 155.5,-159 15.5,-159"/>
<polygon fill="none" stroke="#666666" points="0,0 0,-202 155,-202 155,0 0,0"/>
</a>
</g>
</g>
<!-- Node1&#45;&gt;Node3 -->
<g id="edge2_Node000001_Node000003" class="edge">
<title>Node1&#45;&gt;Node3</title>
<g id="a_edge2_Node000001_Node000003"><a xlink:title=" ">
<path fill="none" stroke="#63b8ff" d="M77.5,-227.58C77.5,-219.57 77.5,-211.02 77.5,-202.29"/>
<polygon fill="none" stroke="#63b8ff" points="74,-227.77 77.5,-237.77 81,-227.77 74,-227.77"/>
</a>
</g>
</g>
<!-- Node2 -->
<g id="Node000002" class="node">
<title>Node2</title>
<g id="a_Node000002"><a xlink:title=" ">
<polygon fill="white" stroke="transparent" points="93,-402 62,-402 62,-353 93,-353 93,-402"/>
<text text-anchor="start" x="67.5" y="-389.5" font-family="Helvetica,sans-Serif" font-size="10.00">ABC</text>
<text text-anchor="start" x="76" y="-374.5" font-family="Helvetica,sans-Serif" font-size="10.00"> </text>
<text text-anchor="start" x="76" y="-359.5" font-family="Helvetica,sans-Serif" font-size="10.00"> </text>
<polygon fill="#666666" stroke="#666666" points="62.5,-384.5 62.5,-384.5 93.5,-384.5 93.5,-384.5 62.5,-384.5"/>
<polygon fill="#666666" stroke="#666666" points="62.5,-369.5 62.5,-369.5 93.5,-369.5 93.5,-369.5 62.5,-369.5"/>
<polygon fill="none" stroke="#666666" points="62,-353 62,-402 93,-402 93,-353 62,-353"/>
</a>
</g>
</g>
<!-- Node2&#45;&gt;Node1 -->
<g id="edge1_Node000001_Node000002" class="edge">
<title>Node2&#45;&gt;Node1</title>
<g id="a_edge1_Node000001_Node000002"><a xlink:title=" ">
<path fill="none" stroke="#63b8ff" d="M77.5,-342.52C77.5,-334.38 77.5,-325.63 77.5,-317.29"/>
<polygon fill="none" stroke="#63b8ff" points="74,-342.78 77.5,-352.78 81,-342.78 74,-342.78"/>
</a>
</g>
</g>
</g>
</svg>
</svg>

<style type='text/css'>
<![CDATA[
[data-mouse-over-selected='false'] { opacity: 0.7; }
[data-mouse-over-selected='true']  { opacity: 1.0; }
]]>
</style>
<script type="application/ecmascript"><![CDATA[
document.addEventListener('DOMContentLoaded', (event) => {
  highlightEdges();
  highlightAdjacentNodes();
});
]]></script>
</svg>
