<?xml version="1.0" encoding="UTF-8" standalone="no"?>
<!DOCTYPE svg PUBLIC "-//W3C//DTD SVG 1.1//EN"
 "http://www.w3.org/Graphics/SVG/1.1/DTD/svg11.dtd">
<!-- Generated by graphviz version 2.43.0 (0)
 -->
<!-- Title: auth.RefreshRequest Pages: 1 -->
<svg width="121pt" height="142pt"
 viewBox="0.00 0.00 121.00 142.00" xmlns="http://www.w3.org/2000/svg" xmlns:xlink="http://www.w3.org/1999/xlink">

<svg id="main" version="1.1" xmlns="http://www.w3.org/2000/svg" xmlns:xlink="http://www.w3.org/1999/xlink" xml:space="preserve" onload="init(evt)">
<style type="text/css"><![CDATA[
.node, .edge {opacity: 0.7;}
.node.selected, .edge.selected {opacity: 1;}
.edge:hover path { stroke: red; }
.edge:hover polygon { stroke: red; fill: red; }
]]></style>
<script type="application/ecmascript" xlink:href="svg.min.js"/>
<svg id="graph" class="graph">
<g id="graph0" class="graph" transform="scale(1 1) rotate(0) translate(4 138)">
<title>auth.RefreshRequest</title>
<!-- Node1 -->
<g id="Node000001" class="node">
<title>Node1</title>
<g id="a_Node000001"><a xlink:title=" ">
<polygon fill="#999999" stroke="transparent" points="113,-49 0,-49 0,0 113,0 113,-49"/>
<text text-anchor="start" x="5.5" y="-36.5" font-family="Helvetica,sans-Serif" font-size="10.00">auth.RefreshRequest</text>
<text text-anchor="start" x="10.5" y="-21.5" font-family="Helvetica,sans-Serif" font-size="10.00">+</text>
<text text-anchor="start" x="29.5" y="-21.5" font-family="Helvetica,sans-Serif" font-size="10.00">refresh_token</text>
<text text-anchor="start" x="55" y="-6.5" font-family="Helvetica,sans-Serif" font-size="10.00"> </text>
<polygon fill="#666666" stroke="#666666" points="0.5,-31.5 0.5,-31.5 113.5,-31.5 113.5,-31.5 0.5,-31.5"/>
<polygon fill="#666666" stroke="#666666" points="0.5,-16.5 0.5,-16.5 27.5,-16.5 27.5,-16.5 0.5,-16.5"/>
<polygon fill="#666666" stroke="#666666" points="27.5,-16.5 27.5,-16.5 113.5,-16.5 113.5,-16.5 27.5,-16.5"/>
<polygon fill="none" stroke="#666666" points="0,0 0,-49 113,-49 113,0 0,0"/>
</a>
</g>
</g>
<!-- Node2 -->
<g id="Node000002" class="node">
<title>Node2</title>
<g id="a_Node000002"><a xlink:title=" ">
<polygon fill="white" stroke="transparent" points="89,-134 24,-134 24,-85 89,-85 89,-134"/>
<text text-anchor="start" x="29.5" y="-121.5" font-family="Helvetica,sans-Serif" font-size="10.00">BaseModel</text>
<text text-anchor="start" x="55" y="-106.5" font-family="Helvetica,sans-Serif" font-size="10.00"> </text>
<text text-anchor="start" x="55" y="-91.5" font-family="Helvetica,sans-Serif" font-size="10.00"> </text>
<polygon fill="#666666" stroke="#666666" points="24.5,-116.5 24.5,-116.5 89.5,-116.5 89.5,-116.5 24.5,-116.5"/>
<polygon fill="#666666" stroke="#666666" points="24.5,-101.5 24.5,-101.5 89.5,-101.5 89.5,-101.5 24.5,-101.5"/>
<polygon fill="none" stroke="#666666" points="24,-85 24,-134 89,-134 89,-85 24,-85"/>
</a>
</g>
</g>
<!-- Node2&#45;&gt;Node1 -->
<g id="edge1_Node000001_Node000002" class="edge">
<title>Node2&#45;&gt;Node1</title>
<g id="a_edge1_Node000001_Node000002"><a xlink:title=" ">
<path fill="none" stroke="#63b8ff" d="M56.5,-74.77C56.5,-66.17 56.5,-57.1 56.5,-49.12"/>
<polygon fill="none" stroke="#63b8ff" points="53,-74.94 56.5,-84.94 60,-74.94 53,-74.94"/>
</a>
</g>
</g>
</g>
</svg>
</svg>

<style type='text/css'>
<![CDATA[
[data-mouse-over-selected='false'] { opacity: 0.7; }
[data-mouse-over-selected='true']  { opacity: 1.0; }
]]>
</style>
<script type="application/ecmascript"><![CDATA[
document.addEventListener('DOMContentLoaded', (event) => {
  highlightEdges();
  highlightAdjacentNodes();
});
]]></script>
</svg>
