<?xml version="1.0" encoding="UTF-8" standalone="no"?>
<!DOCTYPE svg PUBLIC "-//W3C//DTD SVG 1.1//EN"
 "http://www.w3.org/Graphics/SVG/1.1/DTD/svg11.dtd">
<!-- Generated by graphviz version 2.43.0 (0)
 -->
<!-- Title: token_storage.TokenStorage Pages: 1 -->
<svg width="156pt" height="172pt"
 viewBox="0.00 0.00 156.00 172.00" xmlns="http://www.w3.org/2000/svg" xmlns:xlink="http://www.w3.org/1999/xlink">

<svg id="main" version="1.1" xmlns="http://www.w3.org/2000/svg" xmlns:xlink="http://www.w3.org/1999/xlink" xml:space="preserve" onload="init(evt)">
<style type="text/css"><![CDATA[
.node, .edge {opacity: 0.7;}
.node.selected, .edge.selected {opacity: 1;}
.edge:hover path { stroke: red; }
.edge:hover polygon { stroke: red; fill: red; }
]]></style>
<script type="application/ecmascript" xlink:href="svg.min.js"/>
<svg id="graph" class="graph">
<g id="graph0" class="graph" transform="scale(1 1) rotate(0) translate(4 168)">
<title>token_storage.TokenStorage</title>
<!-- Node1 -->
<g id="Node000001" class="node">
<title>Node1</title>
<g id="a_Node000001"><a xlink:title=" ">
<polygon fill="#999999" stroke="transparent" points="148,-79 0,-79 0,0 148,0 148,-79"/>
<text text-anchor="start" x="5" y="-66.5" font-family="Helvetica,sans-Serif" font-size="10.00">token_storage.TokenStorage</text>
<text text-anchor="start" x="72" y="-51.5" font-family="Helvetica,sans-Serif" font-size="10.00"> </text>
<text text-anchor="start" x="16" y="-36.5" font-family="Helvetica,sans-Serif" font-size="10.00">+</text>
<text text-anchor="start" x="41" y="-36.5" font-family="Helvetica,sans-Serif" font-size="10.00">store_token()</text>
<text text-anchor="start" x="16" y="-21.5" font-family="Helvetica,sans-Serif" font-size="10.00">+</text>
<text text-anchor="start" x="41" y="-21.5" font-family="Helvetica,sans-Serif" font-size="10.00">retrieve_token()</text>
<text text-anchor="start" x="16" y="-6.5" font-family="Helvetica,sans-Serif" font-size="10.00">+</text>
<text text-anchor="start" x="41" y="-6.5" font-family="Helvetica,sans-Serif" font-size="10.00">delete_token()</text>
<polygon fill="#666666" stroke="#666666" points="0,-61.5 0,-61.5 148,-61.5 148,-61.5 0,-61.5"/>
<polygon fill="#666666" stroke="#666666" points="0,-46.5 0,-46.5 148,-46.5 148,-46.5 0,-46.5"/>
<polygon fill="none" stroke="#666666" points="0,0 0,-79 148,-79 148,0 0,0"/>
</a>
</g>
</g>
<!-- Node2 -->
<g id="Node000002" class="node">
<title>Node2</title>
<g id="a_Node000002"><a xlink:title=" ">
<polygon fill="white" stroke="transparent" points="89.5,-164 58.5,-164 58.5,-115 89.5,-115 89.5,-164"/>
<text text-anchor="start" x="64" y="-151.5" font-family="Helvetica,sans-Serif" font-size="10.00">ABC</text>
<text text-anchor="start" x="72.5" y="-136.5" font-family="Helvetica,sans-Serif" font-size="10.00"> </text>
<text text-anchor="start" x="72.5" y="-121.5" font-family="Helvetica,sans-Serif" font-size="10.00"> </text>
<polygon fill="#666666" stroke="#666666" points="59,-146.5 59,-146.5 90,-146.5 90,-146.5 59,-146.5"/>
<polygon fill="#666666" stroke="#666666" points="59,-131.5 59,-131.5 90,-131.5 90,-131.5 59,-131.5"/>
<polygon fill="none" stroke="#666666" points="58.5,-115 58.5,-164 89.5,-164 89.5,-115 58.5,-115"/>
</a>
</g>
</g>
<!-- Node2&#45;&gt;Node1 -->
<g id="edge1_Node000001_Node000002" class="edge">
<title>Node2&#45;&gt;Node1</title>
<g id="a_edge1_Node000001_Node000002"><a xlink:title=" ">
<path fill="none" stroke="#63b8ff" d="M74,-104.52C74,-96.38 74,-87.63 74,-79.29"/>
<polygon fill="none" stroke="#63b8ff" points="70.5,-104.78 74,-114.78 77.5,-104.78 70.5,-104.78"/>
</a>
</g>
</g>
</g>
</svg>
</svg>

<style type='text/css'>
<![CDATA[
[data-mouse-over-selected='false'] { opacity: 0.7; }
[data-mouse-over-selected='true']  { opacity: 1.0; }
]]>
</style>
<script type="application/ecmascript"><![CDATA[
document.addEventListener('DOMContentLoaded', (event) => {
  highlightEdges();
  highlightAdjacentNodes();
});
]]></script>
</svg>
