<?xml version="1.0" encoding="UTF-8" standalone="no"?>
<!DOCTYPE svg PUBLIC "-//W3C//DTD SVG 1.1//EN"
 "http://www.w3.org/Graphics/SVG/1.1/DTD/svg11.dtd">
<!-- Generated by graphviz version 2.43.0 (0)
 -->
<!-- Title: memory.research.ResearchState Pages: 1 -->
<svg width="151pt" height="318pt"
 viewBox="0.00 0.00 151.00 318.00" xmlns="http://www.w3.org/2000/svg" xmlns:xlink="http://www.w3.org/1999/xlink">

<svg id="main" version="1.1" xmlns="http://www.w3.org/2000/svg" xmlns:xlink="http://www.w3.org/1999/xlink" xml:space="preserve" onload="init(evt)">
<style type="text/css"><![CDATA[
.node, .edge {opacity: 0.7;}
.node.selected, .edge.selected {opacity: 1;}
.edge:hover path { stroke: red; }
.edge:hover polygon { stroke: red; fill: red; }
]]></style>
<script type="application/ecmascript" xlink:href="svg.min.js"/>
<svg id="graph" class="graph">
<g id="graph0" class="graph" transform="scale(1 1) rotate(0) translate(4 314)">
<title>memory.research.ResearchState</title>
<!-- Node1 -->
<g id="Node000001" class="node">
<title>Node1</title>
<g id="a_Node000001"><a xlink:title=" ">
<polygon fill="#999999" stroke="transparent" points="143,-225 0,-225 0,0 143,0 143,-225"/>
<text text-anchor="start" x="5.5" y="-212.5" font-family="Helvetica,sans-Serif" font-size="10.00">memory.research.Research</text>
<text text-anchor="start" x="59" y="-201.5" font-family="Helvetica,sans-Serif" font-size="10.00">State</text>
<text text-anchor="start" x="13" y="-186.5" font-family="Helvetica,sans-Serif" font-size="10.00">+</text>
<text text-anchor="start" x="34.5" y="-186.5" font-family="Helvetica,sans-Serif" font-size="10.00">task</text>
<text text-anchor="start" x="13" y="-171.5" font-family="Helvetica,sans-Serif" font-size="10.00">+</text>
<text text-anchor="start" x="34.5" y="-171.5" font-family="Helvetica,sans-Serif" font-size="10.00">initial_research</text>
<text text-anchor="start" x="13" y="-156.5" font-family="Helvetica,sans-Serif" font-size="10.00">+</text>
<text text-anchor="start" x="34.5" y="-156.5" font-family="Helvetica,sans-Serif" font-size="10.00">sections</text>
<text text-anchor="start" x="13" y="-141.5" font-family="Helvetica,sans-Serif" font-size="10.00">+</text>
<text text-anchor="start" x="34.5" y="-141.5" font-family="Helvetica,sans-Serif" font-size="10.00">research_data</text>
<text text-anchor="start" x="13" y="-126.5" font-family="Helvetica,sans-Serif" font-size="10.00">+</text>
<text text-anchor="start" x="34.5" y="-126.5" font-family="Helvetica,sans-Serif" font-size="10.00">title</text>
<text text-anchor="start" x="13" y="-111.5" font-family="Helvetica,sans-Serif" font-size="10.00">+</text>
<text text-anchor="start" x="34.5" y="-111.5" font-family="Helvetica,sans-Serif" font-size="10.00">headers</text>
<text text-anchor="start" x="13" y="-96.5" font-family="Helvetica,sans-Serif" font-size="10.00">+</text>
<text text-anchor="start" x="34.5" y="-96.5" font-family="Helvetica,sans-Serif" font-size="10.00">date</text>
<text text-anchor="start" x="13" y="-81.5" font-family="Helvetica,sans-Serif" font-size="10.00">+</text>
<text text-anchor="start" x="34.5" y="-81.5" font-family="Helvetica,sans-Serif" font-size="10.00">table_of_contents</text>
<text text-anchor="start" x="13" y="-66.5" font-family="Helvetica,sans-Serif" font-size="10.00">+</text>
<text text-anchor="start" x="34.5" y="-66.5" font-family="Helvetica,sans-Serif" font-size="10.00">introduction</text>
<text text-anchor="start" x="13" y="-51.5" font-family="Helvetica,sans-Serif" font-size="10.00">+</text>
<text text-anchor="start" x="34.5" y="-51.5" font-family="Helvetica,sans-Serif" font-size="10.00">conclusion</text>
<text text-anchor="start" x="13" y="-36.5" font-family="Helvetica,sans-Serif" font-size="10.00">+</text>
<text text-anchor="start" x="34.5" y="-36.5" font-family="Helvetica,sans-Serif" font-size="10.00">sources</text>
<text text-anchor="start" x="13" y="-21.5" font-family="Helvetica,sans-Serif" font-size="10.00">+</text>
<text text-anchor="start" x="34.5" y="-21.5" font-family="Helvetica,sans-Serif" font-size="10.00">report</text>
<text text-anchor="start" x="70" y="-6.5" font-family="Helvetica,sans-Serif" font-size="10.00"> </text>
<polygon fill="#666666" stroke="#666666" points="0.5,-196.5 0.5,-196.5 143.5,-196.5 143.5,-196.5 0.5,-196.5"/>
<polygon fill="#666666" stroke="#666666" points="0.5,-16.5 0.5,-16.5 32.5,-16.5 32.5,-16.5 0.5,-16.5"/>
<polygon fill="#666666" stroke="#666666" points="32.5,-16.5 32.5,-16.5 143.5,-16.5 143.5,-16.5 32.5,-16.5"/>
<polygon fill="none" stroke="#666666" points="0,0 0,-225 143,-225 143,0 0,0"/>
</a>
</g>
</g>
<!-- Node2 -->
<g id="Node000002" class="node">
<title>Node2</title>
<g id="a_Node000002"><a xlink:title=" ">
<polygon fill="white" stroke="transparent" points="101,-310 42,-310 42,-261 101,-261 101,-310"/>
<text text-anchor="start" x="47.5" y="-297.5" font-family="Helvetica,sans-Serif" font-size="10.00">TypedDict</text>
<text text-anchor="start" x="70" y="-282.5" font-family="Helvetica,sans-Serif" font-size="10.00"> </text>
<text text-anchor="start" x="70" y="-267.5" font-family="Helvetica,sans-Serif" font-size="10.00"> </text>
<polygon fill="#666666" stroke="#666666" points="42.5,-292.5 42.5,-292.5 101.5,-292.5 101.5,-292.5 42.5,-292.5"/>
<polygon fill="#666666" stroke="#666666" points="42.5,-277.5 42.5,-277.5 101.5,-277.5 101.5,-277.5 42.5,-277.5"/>
<polygon fill="none" stroke="#666666" points="42,-261 42,-310 101,-310 101,-261 42,-261"/>
</a>
</g>
</g>
<!-- Node2&#45;&gt;Node1 -->
<g id="edge1_Node000001_Node000002" class="edge">
<title>Node2&#45;&gt;Node1</title>
<g id="a_edge1_Node000001_Node000002"><a xlink:title=" ">
<path fill="none" stroke="#63b8ff" d="M71.5,-250.52C71.5,-242.85 71.5,-234.3 71.5,-225.32"/>
<polygon fill="none" stroke="#63b8ff" points="68,-250.72 71.5,-260.72 75,-250.72 68,-250.72"/>
</a>
</g>
</g>
</g>
</svg>
</svg>

<style type='text/css'>
<![CDATA[
[data-mouse-over-selected='false'] { opacity: 0.7; }
[data-mouse-over-selected='true']  { opacity: 1.0; }
]]>
</style>
<script type="application/ecmascript"><![CDATA[
document.addEventListener('DOMContentLoaded', (event) => {
  highlightEdges();
  highlightAdjacentNodes();
});
]]></script>
</svg>
