<?xml version="1.0" encoding="UTF-8" standalone="no"?>
<!DOCTYPE svg PUBLIC "-//W3C//DTD SVG 1.1//EN"
 "http://www.w3.org/Graphics/SVG/1.1/DTD/svg11.dtd">
<!-- Generated by graphviz version 2.43.0 (0)
 -->
<!-- Title: auth.LoginResponse Pages: 1 -->
<svg width="432pt" height="186pt"
 viewBox="0.00 0.00 431.50 186.00" xmlns="http://www.w3.org/2000/svg" xmlns:xlink="http://www.w3.org/1999/xlink">
<g id="graph0" class="graph" transform="scale(1 1) rotate(0) translate(4 182)">
<title>auth.LoginResponse</title>
<!-- Node1 -->
<g id="Node000001" class="node">
<title>Node1</title>
<g id="a_Node000001"><a xlink:title=" ">
<polygon fill="#999999" stroke="transparent" points="226,-49 117,-49 117,0 226,0 226,-49"/>
<text text-anchor="start" x="122.5" y="-36.5" font-family="Helvetica,sans-Serif" font-size="10.00">auth.LoginResponse</text>
<text text-anchor="start" x="170" y="-21.5" font-family="Helvetica,sans-Serif" font-size="10.00"> </text>
<text text-anchor="start" x="170" y="-6.5" font-family="Helvetica,sans-Serif" font-size="10.00"> </text>
<polygon fill="#666666" stroke="#666666" points="117.5,-31.5 117.5,-31.5 226.5,-31.5 226.5,-31.5 117.5,-31.5"/>
<polygon fill="#666666" stroke="#666666" points="117.5,-16.5 117.5,-16.5 226.5,-16.5 226.5,-16.5 117.5,-16.5"/>
<polygon fill="none" stroke="#666666" points="117,0 117,-49 226,-49 226,0 117,0"/>
</a>
</g>
</g>
<!-- Node2 -->
<g id="Node000002" class="node">
<title>Node2</title>
<g id="a_Node000002"><a xlink:title=" ">
<polygon fill="white" stroke="transparent" points="65,-178 0,-178 0,-129 65,-129 65,-178"/>
<text text-anchor="start" x="5.5" y="-165.5" font-family="Helvetica,sans-Serif" font-size="10.00">BaseModel</text>
<text text-anchor="start" x="31" y="-150.5" font-family="Helvetica,sans-Serif" font-size="10.00"> </text>
<text text-anchor="start" x="31" y="-135.5" font-family="Helvetica,sans-Serif" font-size="10.00"> </text>
<polygon fill="#666666" stroke="#666666" points="0.5,-160.5 0.5,-160.5 65.5,-160.5 65.5,-160.5 0.5,-160.5"/>
<polygon fill="#666666" stroke="#666666" points="0.5,-145.5 0.5,-145.5 65.5,-145.5 65.5,-145.5 0.5,-145.5"/>
<polygon fill="none" stroke="#666666" points="0,-129 0,-178 65,-178 65,-129 0,-129"/>
</a>
</g>
</g>
<!-- Node2&#45;&gt;Node1 -->
<g id="edge1_Node000001_Node000002" class="edge">
<title>Node2&#45;&gt;Node1</title>
<g id="a_edge1_Node000001_Node000002"><a xlink:title=" ">
<path fill="none" stroke="#63b8ff" d="M46.35,-119.6C54.99,-102.2 67.52,-81.5 83.5,-67 93.13,-58.26 104.93,-51.02 116.72,-45.18"/>
<polygon fill="none" stroke="#63b8ff" points="43.08,-118.33 41.96,-128.87 49.41,-121.33 43.08,-118.33"/>
</a>
</g>
</g>
<!-- Node3 -->
<g id="Node000003" class="node">
<title>Node3</title>
<g id="a_Node000003"><a xlink:title=" ">
<polygon fill="white" stroke="transparent" points="106,-178 83,-178 83,-129 106,-129 106,-178"/>
<text text-anchor="start" x="88.5" y="-165.5" font-family="Helvetica,sans-Serif" font-size="10.00">str</text>
<text text-anchor="start" x="93" y="-150.5" font-family="Helvetica,sans-Serif" font-size="10.00"> </text>
<text text-anchor="start" x="93" y="-135.5" font-family="Helvetica,sans-Serif" font-size="10.00"> </text>
<polygon fill="#666666" stroke="#666666" points="83.5,-160.5 83.5,-160.5 106.5,-160.5 106.5,-160.5 83.5,-160.5"/>
<polygon fill="#666666" stroke="#666666" points="83.5,-145.5 83.5,-145.5 106.5,-145.5 106.5,-145.5 83.5,-145.5"/>
<polygon fill="none" stroke="#666666" points="83,-129 83,-178 106,-178 106,-129 83,-129"/>
</a>
</g>
</g>
<!-- Node3&#45;&gt;Node1 -->
<g id="edge2_Node000001_Node000003" class="edge">
<title>Node3&#45;&gt;Node1</title>
<g id="a_edge2_Node000001_Node000003"><a xlink:title=" ">
<path fill="none" stroke="#63b8ff" d="M88.71,-129C85.58,-110.77 84.33,-85.57 95.5,-67 98.58,-61.87 102.54,-57.34 107.03,-53.34"/>
<polygon fill="none" stroke="#63b8ff" points="107.33,-53.11 109.68,-46.29 116.88,-45.84 114.53,-52.66 107.33,-53.11"/>
</a>
</g>
<text text-anchor="middle" x="161.5" y="-103" font-family="Helvetica,sans-Serif" font-size="10.00" fill="grey"> +access_token</text>
<text text-anchor="middle" x="161.5" y="-92" font-family="Helvetica,sans-Serif" font-size="10.00" fill="grey">+expires_at</text>
<text text-anchor="middle" x="161.5" y="-81" font-family="Helvetica,sans-Serif" font-size="10.00" fill="grey">+refresh_token</text>
<text text-anchor="middle" x="161.5" y="-70" font-family="Helvetica,sans-Serif" font-size="10.00" fill="grey">+refresh_token_expires_at</text>
</g>
<!-- Node4 -->
<g id="Node000004" class="node">
<title>Node4</title>
<g id="a_Node000004"><a xlink:title=" ">
<polygon fill="white" stroke="transparent" points="261,-178 238,-178 238,-129 261,-129 261,-178"/>
<text text-anchor="start" x="243.5" y="-165.5" font-family="Helvetica,sans-Serif" font-size="10.00">int</text>
<text text-anchor="start" x="248" y="-150.5" font-family="Helvetica,sans-Serif" font-size="10.00"> </text>
<text text-anchor="start" x="248" y="-135.5" font-family="Helvetica,sans-Serif" font-size="10.00"> </text>
<polygon fill="#666666" stroke="#666666" points="238.5,-160.5 238.5,-160.5 261.5,-160.5 261.5,-160.5 238.5,-160.5"/>
<polygon fill="#666666" stroke="#666666" points="238.5,-145.5 238.5,-145.5 261.5,-145.5 261.5,-145.5 238.5,-145.5"/>
<polygon fill="none" stroke="#666666" points="238,-129 238,-178 261,-178 261,-129 238,-129"/>
</a>
</g>
</g>
<!-- Node4&#45;&gt;Node1 -->
<g id="edge3_Node000001_Node000004" class="edge">
<title>Node4&#45;&gt;Node1</title>
<g id="a_edge3_Node000001_Node000004"><a xlink:title=" ">
<path fill="none" stroke="#63b8ff" d="M247.73,-128.99C245.39,-110.76 240,-85.56 227.5,-67 225.27,-63.69 222.68,-60.54 219.87,-57.57"/>
<polygon fill="none" stroke="#63b8ff" points="219.67,-57.38 212.55,-56.21 210.88,-49.2 218,-50.36 219.67,-57.38"/>
</a>
</g>
<text text-anchor="middle" x="293" y="-92" font-family="Helvetica,sans-Serif" font-size="10.00" fill="grey"> +expires_in</text>
<text text-anchor="middle" x="293" y="-81" font-family="Helvetica,sans-Serif" font-size="10.00" fill="grey">+refresh_expires_in</text>
</g>
<!-- Node5 -->
<g id="Node000005" class="node">
<title>Node5</title>
<g id="a_Node000005"><a xlink:title=" ">
<polygon fill="white" stroke="transparent" points="387.5,-178 355.5,-178 355.5,-129 387.5,-129 387.5,-178"/>
<text text-anchor="start" x="360.5" y="-165.5" font-family="Helvetica,sans-Serif" font-size="10.00">bool</text>
<text text-anchor="start" x="369.5" y="-150.5" font-family="Helvetica,sans-Serif" font-size="10.00"> </text>
<text text-anchor="start" x="369.5" y="-135.5" font-family="Helvetica,sans-Serif" font-size="10.00"> </text>
<polygon fill="#666666" stroke="#666666" points="355.5,-160.5 355.5,-160.5 387.5,-160.5 387.5,-160.5 355.5,-160.5"/>
<polygon fill="#666666" stroke="#666666" points="355.5,-145.5 355.5,-145.5 387.5,-145.5 387.5,-145.5 355.5,-145.5"/>
<polygon fill="none" stroke="#666666" points="355.5,-129 355.5,-178 387.5,-178 387.5,-129 355.5,-129"/>
</a>
</g>
</g>
<!-- Node5&#45;&gt;Node1 -->
<g id="edge4_Node000001_Node000005" class="edge">
<title>Node5&#45;&gt;Node1</title>
<g id="a_edge4_Node000001_Node000005"><a xlink:title=" ">
<path fill="none" stroke="#63b8ff" d="M370.84,-128.88C369.01,-109.58 363.32,-82.97 346.5,-67 330.8,-52.09 280.78,-41.16 238.22,-34.27"/>
<polygon fill="none" stroke="#63b8ff" points="238.02,-34.24 231.47,-37.27 226.16,-32.39 232.7,-29.36 238.02,-34.24"/>
</a>
</g>
<text text-anchor="middle" x="395.5" y="-86.5" font-family="Helvetica,sans-Serif" font-size="10.00" fill="grey"> +is_admin</text>
</g>
</g>
</svg>
