<?xml version="1.0" encoding="UTF-8" standalone="no"?>
<!DOCTYPE svg PUBLIC "-//W3C//DTD SVG 1.1//EN"
 "http://www.w3.org/Graphics/SVG/1.1/DTD/svg11.dtd">
<!-- Generated by graphviz version 2.43.0 (0)
 -->
<!-- Title: backend.report_type.detailed_report.detailed_report.DetailedReport.run Pages: 1 -->
<svg width="613pt" height="226pt"
 viewBox="0.00 0.00 613.00 226.00" xmlns="http://www.w3.org/2000/svg" xmlns:xlink="http://www.w3.org/1999/xlink">
<g id="graph0" class="graph" transform="scale(1 1) rotate(0) translate(4 222)">
<title>backend.report_type.detailed_report.detailed_report.DetailedReport.run</title>
<!-- Node1 -->
<g id="Node000001" class="node">
<title>Node1</title>
<g id="a_Node000001"><a xlink:title=" ">
<polygon fill="#999999" stroke="#666666" points="173,-129 0,-129 0,-88 173,-88 173,-129"/>
<text text-anchor="start" x="8" y="-117" font-family="Helvetica,sans-Serif" font-size="10.00">backend.report_type.detailed</text>
<text text-anchor="start" x="8" y="-106" font-family="Helvetica,sans-Serif" font-size="10.00">_report.detailed_report.Detailed</text>
<text text-anchor="middle" x="86.5" y="-95" font-family="Helvetica,sans-Serif" font-size="10.00">Report.run</text>
</a>
</g>
</g>
<!-- Node2 -->
<g id="Node000002" class="node">
<title>Node2</title>
<g id="a_Node000002"><a xlink:href="classbackend_1_1report__type_1_1detailed__report_1_1detailed__report_1_1DetailedReport.html#a34716fb7e8580c57a47ee5230c91d567" target="_top" xlink:title=" ">
<polygon fill="white" stroke="#666666" points="393.5,-218 211.5,-218 211.5,-177 393.5,-177 393.5,-218"/>
<text text-anchor="start" x="219.5" y="-206" font-family="Helvetica,sans-Serif" font-size="10.00">backend.report_type.detailed</text>
<text text-anchor="start" x="219.5" y="-195" font-family="Helvetica,sans-Serif" font-size="10.00">_report.detailed_report.Detailed</text>
<text text-anchor="middle" x="302.5" y="-184" font-family="Helvetica,sans-Serif" font-size="10.00">Report._construct_detailed_report</text>
</a>
</g>
</g>
<!-- Node1&#45;&gt;Node2 -->
<g id="edge1_Node000001_Node000002" class="edge">
<title>Node1&#45;&gt;Node2</title>
<g id="a_edge1_Node000001_Node000002"><a xlink:title=" ">
<path fill="none" stroke="#63b8ff" d="M125.38,-129.1C149.01,-141.47 180.29,-156.99 209,-168.5 213.36,-170.25 217.87,-171.96 222.44,-173.62"/>
<polygon fill="#63b8ff" stroke="#63b8ff" points="221.29,-176.93 231.89,-176.96 223.63,-170.33 221.29,-176.93"/>
</a>
</g>
</g>
<!-- Node3 -->
<g id="Node000003" class="node">
<title>Node3</title>
<g id="a_Node000003"><a xlink:href="classbackend_1_1report__type_1_1detailed__report_1_1detailed__report_1_1DetailedReport.html#a90f2f9d6cde4d8b8f35274937d281c94" target="_top" xlink:title=" ">
<polygon fill="white" stroke="#666666" points="396,-159 209,-159 209,-118 396,-118 396,-159"/>
<text text-anchor="start" x="217" y="-147" font-family="Helvetica,sans-Serif" font-size="10.00">backend.report_type.detailed</text>
<text text-anchor="start" x="217" y="-136" font-family="Helvetica,sans-Serif" font-size="10.00">_report.detailed_report.Detailed</text>
<text text-anchor="middle" x="302.5" y="-125" font-family="Helvetica,sans-Serif" font-size="10.00">Report._generate_subtopic_reports</text>
</a>
</g>
</g>
<!-- Node1&#45;&gt;Node3 -->
<g id="edge2_Node000001_Node000003" class="edge">
<title>Node1&#45;&gt;Node3</title>
<g id="a_edge2_Node000001_Node000003"><a xlink:title=" ">
<path fill="none" stroke="#63b8ff" d="M173,-120.49C181.45,-121.67 190.09,-122.88 198.69,-124.09"/>
<polygon fill="#63b8ff" stroke="#63b8ff" points="198.37,-127.58 208.76,-125.5 199.34,-120.64 198.37,-127.58"/>
</a>
</g>
</g>
<!-- Node5 -->
<g id="Node000005" class="node">
<title>Node5</title>
<g id="a_Node000005"><a xlink:href="classbackend_1_1report__type_1_1detailed__report_1_1detailed__report_1_1DetailedReport.html#a0535b2e1a13765f0e684d4ac0dbb306f" target="_top" xlink:title=" ">
<polygon fill="white" stroke="#666666" points="389,-100 216,-100 216,-59 389,-59 389,-100"/>
<text text-anchor="start" x="224" y="-88" font-family="Helvetica,sans-Serif" font-size="10.00">backend.report_type.detailed</text>
<text text-anchor="start" x="224" y="-77" font-family="Helvetica,sans-Serif" font-size="10.00">_report.detailed_report.Detailed</text>
<text text-anchor="middle" x="302.5" y="-66" font-family="Helvetica,sans-Serif" font-size="10.00">Report._get_all_subtopics</text>
</a>
</g>
</g>
<!-- Node1&#45;&gt;Node5 -->
<g id="edge4_Node000001_Node000005" class="edge">
<title>Node1&#45;&gt;Node5</title>
<g id="a_edge4_Node000001_Node000005"><a xlink:title=" ">
<path fill="none" stroke="#63b8ff" d="M173,-96.91C183.79,-95.45 194.88,-93.95 205.81,-92.47"/>
<polygon fill="#63b8ff" stroke="#63b8ff" points="206.35,-95.93 215.79,-91.12 205.41,-88.99 206.35,-95.93"/>
</a>
</g>
</g>
<!-- Node6 -->
<g id="Node000006" class="node">
<title>Node6</title>
<g id="a_Node000006"><a xlink:href="classbackend_1_1report__type_1_1detailed__report_1_1detailed__report_1_1DetailedReport.html#af6acd4a4ae8dcae11eddeb68fe1bd2f1" target="_top" xlink:title=" ">
<polygon fill="white" stroke="#666666" points="389,-41 216,-41 216,0 389,0 389,-41"/>
<text text-anchor="start" x="224" y="-29" font-family="Helvetica,sans-Serif" font-size="10.00">backend.report_type.detailed</text>
<text text-anchor="start" x="224" y="-18" font-family="Helvetica,sans-Serif" font-size="10.00">_report.detailed_report.Detailed</text>
<text text-anchor="middle" x="302.5" y="-7" font-family="Helvetica,sans-Serif" font-size="10.00">Report._initial_research</text>
</a>
</g>
</g>
<!-- Node1&#45;&gt;Node6 -->
<g id="edge5_Node000001_Node000006" class="edge">
<title>Node1&#45;&gt;Node6</title>
<g id="a_edge5_Node000001_Node000006"><a xlink:title=" ">
<path fill="none" stroke="#63b8ff" d="M127.13,-87.95C150.6,-76.2 181.1,-61.63 209,-50.5 214.1,-48.47 219.39,-46.47 224.75,-44.52"/>
<polygon fill="#63b8ff" stroke="#63b8ff" points="226.18,-47.73 234.43,-41.09 223.84,-41.13 226.18,-47.73"/>
</a>
</g>
</g>
<!-- Node4 -->
<g id="Node000004" class="node">
<title>Node4</title>
<g id="a_Node000004"><a xlink:href="classbackend_1_1report__type_1_1detailed__report_1_1detailed__report_1_1DetailedReport.html#ab4222f0b61a14a6c08c6765f3e337d89" target="_top" xlink:title=" ">
<polygon fill="white" stroke="#666666" points="605,-159 432,-159 432,-118 605,-118 605,-159"/>
<text text-anchor="start" x="440" y="-147" font-family="Helvetica,sans-Serif" font-size="10.00">backend.report_type.detailed</text>
<text text-anchor="start" x="440" y="-136" font-family="Helvetica,sans-Serif" font-size="10.00">_report.detailed_report.Detailed</text>
<text text-anchor="middle" x="518.5" y="-125" font-family="Helvetica,sans-Serif" font-size="10.00">Report._get_subtopic_report</text>
</a>
</g>
</g>
<!-- Node3&#45;&gt;Node4 -->
<g id="edge3_Node000003_Node000004" class="edge">
<title>Node3&#45;&gt;Node4</title>
<g id="a_edge3_Node000003_Node000004"><a xlink:title=" ">
<path fill="none" stroke="#63b8ff" d="M396.12,-138.5C404.55,-138.5 413.1,-138.5 421.57,-138.5"/>
<polygon fill="#63b8ff" stroke="#63b8ff" points="421.82,-142 431.82,-138.5 421.82,-135 421.82,-142"/>
</a>
</g>
</g>
</g>
</svg>
