<?xml version="1.0" encoding="UTF-8" standalone="no"?>
<!DOCTYPE svg PUBLIC "-//W3C//DTD SVG 1.1//EN"
 "http://www.w3.org/Graphics/SVG/1.1/DTD/svg11.dtd">
<!-- Generated by graphviz version 2.43.0 (0)
 -->
<!-- Title: memory.draft.DraftState Pages: 1 -->
<svg width="227pt" height="175pt"
 viewBox="0.00 0.00 226.50 175.00" xmlns="http://www.w3.org/2000/svg" xmlns:xlink="http://www.w3.org/1999/xlink">

<svg id="main" version="1.1" xmlns="http://www.w3.org/2000/svg" xmlns:xlink="http://www.w3.org/1999/xlink" xml:space="preserve" onload="init(evt)">
<style type="text/css"><![CDATA[
.node, .edge {opacity: 0.7;}
.node.selected, .edge.selected {opacity: 1;}
.edge:hover path { stroke: red; }
.edge:hover polygon { stroke: red; fill: red; }
]]></style>
<script type="application/ecmascript" xlink:href="svg.min.js"/>
<svg id="graph" class="graph">
<g id="graph0" class="graph" transform="scale(1 1) rotate(0) translate(4 171)">
<title>memory.draft.DraftState</title>
<!-- Node1 -->
<g id="Node000001" class="node">
<title>Node1</title>
<g id="a_Node000001"><a xlink:title=" ">
<polygon fill="#999999" stroke="transparent" points="155.5,-49 27.5,-49 27.5,0 155.5,0 155.5,-49"/>
<text text-anchor="start" x="32.5" y="-36.5" font-family="Helvetica,sans-Serif" font-size="10.00">memory.draft.DraftState</text>
<text text-anchor="start" x="89.5" y="-21.5" font-family="Helvetica,sans-Serif" font-size="10.00"> </text>
<text text-anchor="start" x="89.5" y="-6.5" font-family="Helvetica,sans-Serif" font-size="10.00"> </text>
<polygon fill="#666666" stroke="#666666" points="27.5,-31.5 27.5,-31.5 155.5,-31.5 155.5,-31.5 27.5,-31.5"/>
<polygon fill="#666666" stroke="#666666" points="27.5,-16.5 27.5,-16.5 155.5,-16.5 155.5,-16.5 27.5,-16.5"/>
<polygon fill="none" stroke="#666666" points="27.5,0 27.5,-49 155.5,-49 155.5,0 27.5,0"/>
</a>
</g>
</g>
<!-- Node2 -->
<g id="Node000002" class="node">
<title>Node2</title>
<g id="a_Node000002"><a xlink:title=" ">
<polygon fill="white" stroke="transparent" points="59,-167 0,-167 0,-118 59,-118 59,-167"/>
<text text-anchor="start" x="5.5" y="-154.5" font-family="Helvetica,sans-Serif" font-size="10.00">TypedDict</text>
<text text-anchor="start" x="28" y="-139.5" font-family="Helvetica,sans-Serif" font-size="10.00"> </text>
<text text-anchor="start" x="28" y="-124.5" font-family="Helvetica,sans-Serif" font-size="10.00"> </text>
<polygon fill="#666666" stroke="#666666" points="0.5,-149.5 0.5,-149.5 59.5,-149.5 59.5,-149.5 0.5,-149.5"/>
<polygon fill="#666666" stroke="#666666" points="0.5,-134.5 0.5,-134.5 59.5,-134.5 59.5,-134.5 0.5,-134.5"/>
<polygon fill="none" stroke="#666666" points="0,-118 0,-167 59,-167 59,-118 0,-118"/>
</a>
</g>
</g>
<!-- Node2&#45;&gt;Node1 -->
<g id="edge1_Node000001_Node000002" class="edge">
<title>Node2&#45;&gt;Node1</title>
<g id="a_edge1_Node000001_Node000002"><a xlink:title=" ">
<path fill="none" stroke="#63b8ff" d="M46.95,-108.84C57.09,-89.88 69.63,-66.42 78.82,-49.22"/>
<polygon fill="none" stroke="#63b8ff" points="43.82,-107.28 42.2,-117.75 50,-110.58 43.82,-107.28"/>
</a>
</g>
</g>
<!-- Node3 -->
<g id="Node000003" class="node">
<title>Node3</title>
<g id="a_Node000003"><a xlink:title=" ">
<polygon fill="white" stroke="transparent" points="106,-167 77,-167 77,-118 106,-118 106,-167"/>
<text text-anchor="start" x="82.5" y="-154.5" font-family="Helvetica,sans-Serif" font-size="10.00">dict</text>
<text text-anchor="start" x="90" y="-139.5" font-family="Helvetica,sans-Serif" font-size="10.00"> </text>
<text text-anchor="start" x="90" y="-124.5" font-family="Helvetica,sans-Serif" font-size="10.00"> </text>
<polygon fill="#666666" stroke="#666666" points="77.5,-149.5 77.5,-149.5 106.5,-149.5 106.5,-149.5 77.5,-149.5"/>
<polygon fill="#666666" stroke="#666666" points="77.5,-134.5 77.5,-134.5 106.5,-134.5 106.5,-134.5 77.5,-134.5"/>
<polygon fill="none" stroke="#666666" points="77,-118 77,-167 106,-167 106,-118 77,-118"/>
</a>
</g>
</g>
<!-- Node3&#45;&gt;Node1 -->
<g id="edge2_Node000001_Node000003" class="edge">
<title>Node3&#45;&gt;Node1</title>
<g id="a_edge2_Node000001_Node000003"><a xlink:title=" ">
<path fill="none" stroke="#63b8ff" d="M91.5,-117.75C91.5,-101.48 91.5,-79.62 91.5,-61.26"/>
<polygon fill="none" stroke="#63b8ff" points="91.5,-61.22 87.5,-55.22 91.5,-49.22 95.5,-55.22 91.5,-61.22"/>
</a>
</g>
<text text-anchor="middle" x="108.5" y="-86.5" font-family="Helvetica,sans-Serif" font-size="10.00" fill="grey"> +draft</text>
<text text-anchor="middle" x="108.5" y="-75.5" font-family="Helvetica,sans-Serif" font-size="10.00" fill="grey">+task</text>
</g>
<!-- Node4 -->
<g id="Node000004" class="node">
<title>Node4</title>
<g id="a_Node000004"><a xlink:title=" ">
<polygon fill="white" stroke="transparent" points="160,-167 137,-167 137,-118 160,-118 160,-167"/>
<text text-anchor="start" x="142.5" y="-154.5" font-family="Helvetica,sans-Serif" font-size="10.00">str</text>
<text text-anchor="start" x="147" y="-139.5" font-family="Helvetica,sans-Serif" font-size="10.00"> </text>
<text text-anchor="start" x="147" y="-124.5" font-family="Helvetica,sans-Serif" font-size="10.00"> </text>
<polygon fill="#666666" stroke="#666666" points="137.5,-149.5 137.5,-149.5 160.5,-149.5 160.5,-149.5 137.5,-149.5"/>
<polygon fill="#666666" stroke="#666666" points="137.5,-134.5 137.5,-134.5 160.5,-134.5 160.5,-134.5 137.5,-134.5"/>
<polygon fill="none" stroke="#666666" points="137,-118 137,-167 160,-167 160,-118 137,-118"/>
</a>
</g>
</g>
<!-- Node4&#45;&gt;Node1 -->
<g id="edge3_Node000001_Node000004" class="edge">
<title>Node4&#45;&gt;Node1</title>
<g id="a_edge3_Node000001_Node000004"><a xlink:title=" ">
<path fill="none" stroke="#63b8ff" d="M144.11,-117.71C140.69,-102.58 135.07,-82.91 126.5,-67 125.05,-64.31 123.41,-61.64 121.65,-59.03"/>
<polygon fill="none" stroke="#63b8ff" points="121.57,-58.92 114.78,-56.49 114.4,-49.29 121.2,-51.71 121.57,-58.92"/>
</a>
</g>
<text text-anchor="middle" x="178.5" y="-92" font-family="Helvetica,sans-Serif" font-size="10.00" fill="grey"> +review</text>
<text text-anchor="middle" x="178.5" y="-81" font-family="Helvetica,sans-Serif" font-size="10.00" fill="grey">+revision_notes</text>
<text text-anchor="middle" x="178.5" y="-70" font-family="Helvetica,sans-Serif" font-size="10.00" fill="grey">+topic</text>
</g>
</g>
</svg>
</svg>

<style type='text/css'>
<![CDATA[
[data-mouse-over-selected='false'] { opacity: 0.7; }
[data-mouse-over-selected='true']  { opacity: 1.0; }
]]>
</style>
<script type="application/ecmascript"><![CDATA[
document.addEventListener('DOMContentLoaded', (event) => {
  highlightEdges();
  highlightAdjacentNodes();
});
]]></script>
</svg>
