<?xml version="1.0" encoding="UTF-8" standalone="no"?>
<!DOCTYPE svg PUBLIC "-//W3C//DTD SVG 1.1//EN"
 "http://www.w3.org/Graphics/SVG/1.1/DTD/svg11.dtd">
<!-- Generated by graphviz version 2.43.0 (0)
 -->
<!-- Title: auth.LoginRequest Pages: 1 -->
<svg width="148pt" height="164pt"
 viewBox="0.00 0.00 147.50 164.00" xmlns="http://www.w3.org/2000/svg" xmlns:xlink="http://www.w3.org/1999/xlink">
<g id="graph0" class="graph" transform="scale(1 1) rotate(0) translate(4 160)">
<title>auth.LoginRequest</title>
<!-- Node1 -->
<g id="Node000001" class="node">
<title>Node1</title>
<g id="a_Node000001"><a xlink:title=" ">
<polygon fill="#999999" stroke="transparent" points="114,-49 13,-49 13,0 114,0 114,-49"/>
<text text-anchor="start" x="18.5" y="-36.5" font-family="Helvetica,sans-Serif" font-size="10.00">auth.LoginRequest</text>
<text text-anchor="start" x="62" y="-21.5" font-family="Helvetica,sans-Serif" font-size="10.00"> </text>
<text text-anchor="start" x="62" y="-6.5" font-family="Helvetica,sans-Serif" font-size="10.00"> </text>
<polygon fill="#666666" stroke="#666666" points="13.5,-31.5 13.5,-31.5 114.5,-31.5 114.5,-31.5 13.5,-31.5"/>
<polygon fill="#666666" stroke="#666666" points="13.5,-16.5 13.5,-16.5 114.5,-16.5 114.5,-16.5 13.5,-16.5"/>
<polygon fill="none" stroke="#666666" points="13,0 13,-49 114,-49 114,0 13,0"/>
</a>
</g>
</g>
<!-- Node2 -->
<g id="Node000002" class="node">
<title>Node2</title>
<g id="a_Node000002"><a xlink:title=" ">
<polygon fill="white" stroke="transparent" points="65,-156 0,-156 0,-107 65,-107 65,-156"/>
<text text-anchor="start" x="5.5" y="-143.5" font-family="Helvetica,sans-Serif" font-size="10.00">BaseModel</text>
<text text-anchor="start" x="31" y="-128.5" font-family="Helvetica,sans-Serif" font-size="10.00"> </text>
<text text-anchor="start" x="31" y="-113.5" font-family="Helvetica,sans-Serif" font-size="10.00"> </text>
<polygon fill="#666666" stroke="#666666" points="0.5,-138.5 0.5,-138.5 65.5,-138.5 65.5,-138.5 0.5,-138.5"/>
<polygon fill="#666666" stroke="#666666" points="0.5,-123.5 0.5,-123.5 65.5,-123.5 65.5,-123.5 0.5,-123.5"/>
<polygon fill="none" stroke="#666666" points="0,-107 0,-156 65,-156 65,-107 0,-107"/>
</a>
</g>
</g>
<!-- Node2&#45;&gt;Node1 -->
<g id="edge1_Node000001_Node000002" class="edge">
<title>Node2&#45;&gt;Node1</title>
<g id="a_edge1_Node000001_Node000002"><a xlink:title=" ">
<path fill="none" stroke="#63b8ff" d="M42.34,-97.17C46.93,-81.63 52.28,-63.49 56.46,-49.35"/>
<polygon fill="none" stroke="#63b8ff" points="38.93,-96.35 39.46,-106.94 45.65,-98.34 38.93,-96.35"/>
</a>
</g>
</g>
<!-- Node3 -->
<g id="Node000003" class="node">
<title>Node3</title>
<g id="a_Node000003"><a xlink:title=" ">
<polygon fill="white" stroke="transparent" points="106,-156 83,-156 83,-107 106,-107 106,-156"/>
<text text-anchor="start" x="88.5" y="-143.5" font-family="Helvetica,sans-Serif" font-size="10.00">str</text>
<text text-anchor="start" x="93" y="-128.5" font-family="Helvetica,sans-Serif" font-size="10.00"> </text>
<text text-anchor="start" x="93" y="-113.5" font-family="Helvetica,sans-Serif" font-size="10.00"> </text>
<polygon fill="#666666" stroke="#666666" points="83.5,-138.5 83.5,-138.5 106.5,-138.5 106.5,-138.5 83.5,-138.5"/>
<polygon fill="#666666" stroke="#666666" points="83.5,-123.5 83.5,-123.5 106.5,-123.5 106.5,-123.5 83.5,-123.5"/>
<polygon fill="none" stroke="#666666" points="83,-107 83,-156 106,-156 106,-107 83,-107"/>
</a>
</g>
</g>
<!-- Node3&#45;&gt;Node1 -->
<g id="edge2_Node000001_Node000003" class="edge">
<title>Node3&#45;&gt;Node1</title>
<g id="a_edge2_Node000001_Node000003"><a xlink:title=" ">
<path fill="none" stroke="#63b8ff" d="M87.54,-106.94C83.54,-93.39 78.44,-76.1 73.96,-60.94"/>
<polygon fill="none" stroke="#63b8ff" points="73.94,-60.86 68.4,-56.24 70.54,-49.35 76.08,-53.97 73.94,-60.86"/>
</a>
</g>
<text text-anchor="middle" x="110.5" y="-81" font-family="Helvetica,sans-Serif" font-size="10.00" fill="grey"> +password</text>
<text text-anchor="middle" x="110.5" y="-70" font-family="Helvetica,sans-Serif" font-size="10.00" fill="grey">+username</text>
</g>
</g>
</svg>
