<?xml version="1.0" encoding="UTF-8" standalone="no"?>
<!DOCTYPE svg PUBLIC "-//W3C//DTD SVG 1.1//EN"
 "http://www.w3.org/Graphics/SVG/1.1/DTD/svg11.dtd">
<!-- Generated by graphviz version 2.43.0 (0)
 -->
<!-- Title: auth.UserCreateRequest Pages: 1 -->
<svg width="293pt" height="164pt"
 viewBox="0.00 0.00 292.50 164.00" xmlns="http://www.w3.org/2000/svg" xmlns:xlink="http://www.w3.org/1999/xlink">

<svg id="main" version="1.1" xmlns="http://www.w3.org/2000/svg" xmlns:xlink="http://www.w3.org/1999/xlink" xml:space="preserve" onload="init(evt)">
<style type="text/css"><![CDATA[
.node, .edge {opacity: 0.7;}
.node.selected, .edge.selected {opacity: 1;}
.edge:hover path { stroke: red; }
.edge:hover polygon { stroke: red; fill: red; }
]]></style>
<script type="application/ecmascript" xlink:href="svg.min.js"/>
<svg id="graph" class="graph">
<g id="graph0" class="graph" transform="scale(1 1) rotate(0) translate(4 160)">
<title>auth.UserCreateRequest</title>
<!-- Node1 -->
<g id="Node000001" class="node">
<title>Node1</title>
<g id="a_Node000001"><a xlink:title=" ">
<polygon fill="#999999" stroke="transparent" points="208.5,-49 78.5,-49 78.5,0 208.5,0 208.5,-49"/>
<text text-anchor="start" x="83.5" y="-36.5" font-family="Helvetica,sans-Serif" font-size="10.00">auth.UserCreateRequest</text>
<text text-anchor="start" x="141.5" y="-21.5" font-family="Helvetica,sans-Serif" font-size="10.00"> </text>
<text text-anchor="start" x="141.5" y="-6.5" font-family="Helvetica,sans-Serif" font-size="10.00"> </text>
<polygon fill="#666666" stroke="#666666" points="78.5,-31.5 78.5,-31.5 208.5,-31.5 208.5,-31.5 78.5,-31.5"/>
<polygon fill="#666666" stroke="#666666" points="78.5,-16.5 78.5,-16.5 208.5,-16.5 208.5,-16.5 78.5,-16.5"/>
<polygon fill="none" stroke="#666666" points="78.5,0 78.5,-49 208.5,-49 208.5,0 78.5,0"/>
</a>
</g>
</g>
<!-- Node2 -->
<g id="Node000002" class="node">
<title>Node2</title>
<g id="a_Node000002"><a xlink:title=" ">
<polygon fill="white" stroke="transparent" points="65,-156 0,-156 0,-107 65,-107 65,-156"/>
<text text-anchor="start" x="5.5" y="-143.5" font-family="Helvetica,sans-Serif" font-size="10.00">BaseModel</text>
<text text-anchor="start" x="31" y="-128.5" font-family="Helvetica,sans-Serif" font-size="10.00"> </text>
<text text-anchor="start" x="31" y="-113.5" font-family="Helvetica,sans-Serif" font-size="10.00"> </text>
<polygon fill="#666666" stroke="#666666" points="0.5,-138.5 0.5,-138.5 65.5,-138.5 65.5,-138.5 0.5,-138.5"/>
<polygon fill="#666666" stroke="#666666" points="0.5,-123.5 0.5,-123.5 65.5,-123.5 65.5,-123.5 0.5,-123.5"/>
<polygon fill="none" stroke="#666666" points="0,-107 0,-156 65,-156 65,-107 0,-107"/>
</a>
</g>
</g>
<!-- Node2&#45;&gt;Node1 -->
<g id="edge1_Node000001_Node000002" class="edge">
<title>Node2&#45;&gt;Node1</title>
<g id="a_edge1_Node000001_Node000002"><a xlink:title=" ">
<path fill="none" stroke="#63b8ff" d="M62.36,-99.46C72.69,-88.97 84.45,-77.32 95.5,-67 101.86,-61.06 108.87,-54.84 115.51,-49.07"/>
<polygon fill="none" stroke="#63b8ff" points="59.62,-97.25 55.12,-106.85 64.62,-102.15 59.62,-97.25"/>
</a>
</g>
</g>
<!-- Node3 -->
<g id="Node000003" class="node">
<title>Node3</title>
<g id="a_Node000003"><a xlink:title=" ">
<polygon fill="white" stroke="transparent" points="124,-156 83,-156 83,-107 124,-107 124,-156"/>
<text text-anchor="start" x="88.5" y="-143.5" font-family="Helvetica,sans-Serif" font-size="10.00">constr</text>
<text text-anchor="start" x="102" y="-128.5" font-family="Helvetica,sans-Serif" font-size="10.00"> </text>
<text text-anchor="start" x="102" y="-113.5" font-family="Helvetica,sans-Serif" font-size="10.00"> </text>
<polygon fill="#666666" stroke="#666666" points="83.5,-138.5 83.5,-138.5 124.5,-138.5 124.5,-138.5 83.5,-138.5"/>
<polygon fill="#666666" stroke="#666666" points="83.5,-123.5 83.5,-123.5 124.5,-123.5 124.5,-123.5 83.5,-123.5"/>
<polygon fill="none" stroke="#666666" points="83,-107 83,-156 124,-156 124,-107 83,-107"/>
</a>
</g>
</g>
<!-- Node3&#45;&gt;Node1 -->
<g id="edge2_Node000001_Node000003" class="edge">
<title>Node3&#45;&gt;Node1</title>
<g id="a_edge2_Node000001_Node000003"><a xlink:title=" ">
<path fill="none" stroke="#63b8ff" d="M99.88,-106.77C98.98,-94.47 99.45,-79.47 104.5,-67 105.6,-64.29 106.96,-61.66 108.51,-59.12"/>
<polygon fill="none" stroke="#63b8ff" points="108.67,-58.9 109,-51.7 115.77,-49.23 115.44,-56.43 108.67,-58.9"/>
</a>
</g>
<text text-anchor="middle" x="133.5" y="-81" font-family="Helvetica,sans-Serif" font-size="10.00" fill="grey"> +password</text>
<text text-anchor="middle" x="133.5" y="-70" font-family="Helvetica,sans-Serif" font-size="10.00" fill="grey">+username</text>
</g>
<!-- Node4 -->
<g id="Node000004" class="node">
<title>Node4</title>
<g id="a_Node000004"><a xlink:title=" ">
<polygon fill="white" stroke="transparent" points="210.5,-156 158.5,-156 158.5,-107 210.5,-107 210.5,-156"/>
<text text-anchor="start" x="163.5" y="-143.5" font-family="Helvetica,sans-Serif" font-size="10.00">EmailStr</text>
<text text-anchor="start" x="182.5" y="-128.5" font-family="Helvetica,sans-Serif" font-size="10.00"> </text>
<text text-anchor="start" x="182.5" y="-113.5" font-family="Helvetica,sans-Serif" font-size="10.00"> </text>
<polygon fill="#666666" stroke="#666666" points="158.5,-138.5 158.5,-138.5 210.5,-138.5 210.5,-138.5 158.5,-138.5"/>
<polygon fill="#666666" stroke="#666666" points="158.5,-123.5 158.5,-123.5 210.5,-123.5 210.5,-123.5 158.5,-123.5"/>
<polygon fill="none" stroke="#666666" points="158.5,-107 158.5,-156 210.5,-156 210.5,-107 158.5,-107"/>
</a>
</g>
</g>
<!-- Node4&#45;&gt;Node1 -->
<g id="edge3_Node000001_Node000004" class="edge">
<title>Node4&#45;&gt;Node1</title>
<g id="a_edge3_Node000001_Node000004"><a xlink:title=" ">
<path fill="none" stroke="#63b8ff" d="M176.88,-106.78C172.87,-94.76 167.71,-79.99 162.5,-67 161.62,-64.79 160.68,-62.53 159.71,-60.27"/>
<polygon fill="none" stroke="#63b8ff" points="159.6,-60.01 153.51,-56.14 154.75,-49.03 160.83,-52.9 159.6,-60.01"/>
</a>
</g>
<text text-anchor="middle" x="189.5" y="-75.5" font-family="Helvetica,sans-Serif" font-size="10.00" fill="grey"> +email</text>
</g>
<!-- Node5 -->
<g id="Node000005" class="node">
<title>Node5</title>
<g id="a_Node000005"><a xlink:title=" ">
<polygon fill="white" stroke="transparent" points="263.5,-156 231.5,-156 231.5,-107 263.5,-107 263.5,-156"/>
<text text-anchor="start" x="236.5" y="-143.5" font-family="Helvetica,sans-Serif" font-size="10.00">bool</text>
<text text-anchor="start" x="245.5" y="-128.5" font-family="Helvetica,sans-Serif" font-size="10.00"> </text>
<text text-anchor="start" x="245.5" y="-113.5" font-family="Helvetica,sans-Serif" font-size="10.00"> </text>
<polygon fill="#666666" stroke="#666666" points="231.5,-138.5 231.5,-138.5 263.5,-138.5 263.5,-138.5 231.5,-138.5"/>
<polygon fill="#666666" stroke="#666666" points="231.5,-123.5 231.5,-123.5 263.5,-123.5 263.5,-123.5 231.5,-123.5"/>
<polygon fill="none" stroke="#666666" points="231.5,-107 231.5,-156 263.5,-156 263.5,-107 231.5,-107"/>
</a>
</g>
</g>
<!-- Node5&#45;&gt;Node1 -->
<g id="edge4_Node000001_Node000005" class="edge">
<title>Node5&#45;&gt;Node1</title>
<g id="a_edge4_Node000001_Node000005"><a xlink:title=" ">
<path fill="none" stroke="#63b8ff" d="M238.53,-106.81C232.8,-93.94 224.4,-78.38 213.5,-67 209.77,-63.11 205.6,-59.45 201.2,-56.05"/>
<polygon fill="none" stroke="#63b8ff" points="201.07,-55.96 193.86,-55.75 191.29,-49.02 198.49,-49.23 201.07,-55.96"/>
</a>
</g>
<text text-anchor="middle" x="256.5" y="-75.5" font-family="Helvetica,sans-Serif" font-size="10.00" fill="grey"> +is_admin</text>
</g>
</g>
</svg>
</svg>

<style type='text/css'>
<![CDATA[
[data-mouse-over-selected='false'] { opacity: 0.7; }
[data-mouse-over-selected='true']  { opacity: 1.0; }
]]>
</style>
<script type="application/ecmascript"><![CDATA[
document.addEventListener('DOMContentLoaded', (event) => {
  highlightEdges();
  highlightAdjacentNodes();
});
]]></script>
</svg>
