<?xml version="1.0" encoding="UTF-8" standalone="no"?>
<!DOCTYPE svg PUBLIC "-//W3C//DTD SVG 1.1//EN"
 "http://www.w3.org/Graphics/SVG/1.1/DTD/svg11.dtd">
<!-- Generated by graphviz version 2.43.0 (0)
 -->
<!-- Title: auth.PasswordChangeRequest Pages: 1 -->
<svg width="241pt" height="153pt"
 viewBox="0.00 0.00 240.50 153.00" xmlns="http://www.w3.org/2000/svg" xmlns:xlink="http://www.w3.org/1999/xlink">
<g id="graph0" class="graph" transform="scale(1 1) rotate(0) translate(4 149)">
<title>auth.PasswordChangeRequest</title>
<!-- Node1 -->
<g id="Node000001" class="node">
<title>Node1</title>
<g id="a_Node000001"><a xlink:title=" ">
<polygon fill="#999999" stroke="transparent" points="173.5,-49 15.5,-49 15.5,0 173.5,0 173.5,-49"/>
<text text-anchor="start" x="20.5" y="-36.5" font-family="Helvetica,sans-Serif" font-size="10.00">auth.PasswordChangeRequest</text>
<text text-anchor="start" x="92.5" y="-21.5" font-family="Helvetica,sans-Serif" font-size="10.00"> </text>
<text text-anchor="start" x="92.5" y="-6.5" font-family="Helvetica,sans-Serif" font-size="10.00"> </text>
<polygon fill="#666666" stroke="#666666" points="15.5,-31.5 15.5,-31.5 173.5,-31.5 173.5,-31.5 15.5,-31.5"/>
<polygon fill="#666666" stroke="#666666" points="15.5,-16.5 15.5,-16.5 173.5,-16.5 173.5,-16.5 15.5,-16.5"/>
<polygon fill="none" stroke="#666666" points="15.5,0 15.5,-49 173.5,-49 173.5,0 15.5,0"/>
</a>
</g>
</g>
<!-- Node2 -->
<g id="Node000002" class="node">
<title>Node2</title>
<g id="a_Node000002"><a xlink:title=" ">
<polygon fill="white" stroke="transparent" points="65,-145 0,-145 0,-96 65,-96 65,-145"/>
<text text-anchor="start" x="5.5" y="-132.5" font-family="Helvetica,sans-Serif" font-size="10.00">BaseModel</text>
<text text-anchor="start" x="31" y="-117.5" font-family="Helvetica,sans-Serif" font-size="10.00"> </text>
<text text-anchor="start" x="31" y="-102.5" font-family="Helvetica,sans-Serif" font-size="10.00"> </text>
<polygon fill="#666666" stroke="#666666" points="0.5,-127.5 0.5,-127.5 65.5,-127.5 65.5,-127.5 0.5,-127.5"/>
<polygon fill="#666666" stroke="#666666" points="0.5,-112.5 0.5,-112.5 65.5,-112.5 65.5,-112.5 0.5,-112.5"/>
<polygon fill="none" stroke="#666666" points="0,-96 0,-145 65,-145 65,-96 0,-96"/>
</a>
</g>
</g>
<!-- Node2&#45;&gt;Node1 -->
<g id="edge1_Node000001_Node000002" class="edge">
<title>Node2&#45;&gt;Node1</title>
<g id="a_edge1_Node000001_Node000002"><a xlink:title=" ">
<path fill="none" stroke="#63b8ff" d="M53.66,-87.41C61.92,-74.89 71.22,-60.79 78.86,-49.21"/>
<polygon fill="none" stroke="#63b8ff" points="50.73,-85.5 48.15,-95.78 56.57,-89.36 50.73,-85.5"/>
</a>
</g>
</g>
<!-- Node3 -->
<g id="Node000003" class="node">
<title>Node3</title>
<g id="a_Node000003"><a xlink:title=" ">
<polygon fill="white" stroke="transparent" points="106,-145 83,-145 83,-96 106,-96 106,-145"/>
<text text-anchor="start" x="88.5" y="-132.5" font-family="Helvetica,sans-Serif" font-size="10.00">int</text>
<text text-anchor="start" x="93" y="-117.5" font-family="Helvetica,sans-Serif" font-size="10.00"> </text>
<text text-anchor="start" x="93" y="-102.5" font-family="Helvetica,sans-Serif" font-size="10.00"> </text>
<polygon fill="#666666" stroke="#666666" points="83.5,-127.5 83.5,-127.5 106.5,-127.5 106.5,-127.5 83.5,-127.5"/>
<polygon fill="#666666" stroke="#666666" points="83.5,-112.5 83.5,-112.5 106.5,-112.5 106.5,-112.5 83.5,-112.5"/>
<polygon fill="none" stroke="#666666" points="83,-96 83,-145 106,-145 106,-96 83,-96"/>
</a>
</g>
</g>
<!-- Node3&#45;&gt;Node1 -->
<g id="edge2_Node000001_Node000003" class="edge">
<title>Node3&#45;&gt;Node1</title>
<g id="a_edge2_Node000001_Node000003"><a xlink:title=" ">
<path fill="none" stroke="#63b8ff" d="M94.5,-95.78C94.5,-85.32 94.5,-72.79 94.5,-61.23"/>
<polygon fill="none" stroke="#63b8ff" points="94.5,-61.21 90.5,-55.21 94.5,-49.21 98.5,-55.21 94.5,-61.21"/>
</a>
</g>
<text text-anchor="middle" x="118" y="-70" font-family="Helvetica,sans-Serif" font-size="10.00" fill="grey"> +user_id</text>
</g>
<!-- Node4 -->
<g id="Node000004" class="node">
<title>Node4</title>
<g id="a_Node000004"><a xlink:title=" ">
<polygon fill="white" stroke="transparent" points="176,-145 153,-145 153,-96 176,-96 176,-145"/>
<text text-anchor="start" x="158.5" y="-132.5" font-family="Helvetica,sans-Serif" font-size="10.00">str</text>
<text text-anchor="start" x="163" y="-117.5" font-family="Helvetica,sans-Serif" font-size="10.00"> </text>
<text text-anchor="start" x="163" y="-102.5" font-family="Helvetica,sans-Serif" font-size="10.00"> </text>
<polygon fill="#666666" stroke="#666666" points="153.5,-127.5 153.5,-127.5 176.5,-127.5 176.5,-127.5 153.5,-127.5"/>
<polygon fill="#666666" stroke="#666666" points="153.5,-112.5 153.5,-112.5 176.5,-112.5 176.5,-112.5 153.5,-112.5"/>
<polygon fill="none" stroke="#666666" points="153,-96 153,-145 176,-145 176,-96 153,-96"/>
</a>
</g>
</g>
<!-- Node4&#45;&gt;Node1 -->
<g id="edge3_Node000001_Node000004" class="edge">
<title>Node4&#45;&gt;Node1</title>
<g id="a_edge3_Node000001_Node000004"><a xlink:title=" ">
<path fill="none" stroke="#63b8ff" d="M157.22,-95.81C153.66,-86.33 148.77,-75.64 142.5,-67 140.17,-63.79 137.55,-60.66 134.76,-57.66"/>
<polygon fill="none" stroke="#63b8ff" points="134.57,-57.47 127.49,-56.11 126.03,-49.05 133.11,-50.41 134.57,-57.47"/>
</a>
</g>
<text text-anchor="middle" x="190.5" y="-70" font-family="Helvetica,sans-Serif" font-size="10.00" fill="grey"> +new_password</text>
</g>
</g>
</svg>
