<?xml version="1.0" encoding="UTF-8" standalone="no"?>
<!DOCTYPE svg PUBLIC "-//W3C//DTD SVG 1.1//EN"
 "http://www.w3.org/Graphics/SVG/1.1/DTD/svg11.dtd">
<!-- Generated by graphviz version 2.43.0 (0)
 -->
<!-- Title: /tmp/github_repos_arch_doc_gen/yshishenya/rob/gpt_researcher Pages: 1 -->
<!--zoomable 94 -->

<svg id="main" version="1.1" xmlns="http://www.w3.org/2000/svg" xmlns:xlink="http://www.w3.org/1999/xlink" xml:space="preserve" onload="init(evt)">
<style type="text/css"><![CDATA[
.node, .edge {opacity: 0.7;}
.node.selected, .edge.selected {opacity: 1;}
.edge:hover path { stroke: red; }
.edge:hover polygon { stroke: red; fill: red; }
]]></style>

<defs>
  <circle id="rim" cx="0" cy="0" r="7"/>
  <circle id="rim2" cx="0" cy="0" r="3.5"/>
  <g id="zoomPlus">
    <use xlink:href="#rim" fill="#404040"><set attributeName="fill" to="#808080" begin="zoomplus.mouseover" end="zoomplus.mouseout"/></use>
    <path d="M-4,0h8M0,-4v8" fill="none" stroke="white" stroke-width="1.5" pointer-events="none"/>
  </g>
  <g id="zoomMin">
    <use xlink:href="#rim" fill="#404040"><set attributeName="fill" to="#808080" begin="zoomminus.mouseover" end="zoomminus.mouseout"/></use>
    <path d="M-4,0h8" fill="none" stroke="white" stroke-width="1.5" pointer-events="none"/>
  </g>
  <g id="arrowUp" transform="translate(30 24)">
    <use xlink:href="#rim"/>
    <path pointer-events="none" fill="none" stroke="white" stroke-width="1.5" d="M0,-3.0v7 M-2.5,-0.5L0,-3.0L2.5,-0.5"/>
  </g>
  <g id="arrowRight" transform="rotate(90) translate(36 -43)">
    <use xlink:href="#rim"/>
    <path pointer-events="none" fill="none" stroke="white" stroke-width="1.5" d="M0,-3.0v7 M-2.5,-0.5L0,-3.0L2.5,-0.5"/>
  </g>
  <g id="arrowDown" transform="rotate(180) translate(-30 -48)">
    <use xlink:href="#rim"/>
    <path pointer-events="none" fill="none" stroke="white" stroke-width="1.5" d="M0,-3.0v7 M-2.5,-0.5L0,-3.0L2.5,-0.5"/>
  </g>
  <g id="arrowLeft" transform="rotate(270) translate(-36 17)">
    <use xlink:href="#rim"/>
    <path pointer-events="none" fill="none" stroke="white" stroke-width="1.5" d="M0,-3.0v7 M-2.5,-0.5L0,-3.0L2.5,-0.5"/>
  </g>
  <g id="resetDef">
    <use xlink:href="#rim2" fill="#404040"><set attributeName="fill" to="#808080" begin="reset.mouseover" end="reset.mouseout"/></use>
  </g>
</defs>
<script type="application/ecmascript">
var viewWidth = 816;
var viewHeight = 94;
var sectionId = 'dynsection-0';
</script>
<script type="application/ecmascript" xlink:href="svg.min.js"/>
<svg id="graph" class="graph">
<g id="viewport">
<title>/tmp/github_repos_arch_doc_gen/yshishenya/rob/gpt_researcher</title>
<g id="clust1" class="cluster">
<title>clusterdir_b95327e3450e41852b7f303025994f20</title>
<g id="a_clust1"><a xlink:href="dir_b95327e3450e41852b7f303025994f20.html" target="_top" xlink:title="rob">
<polygon fill="#edf0f7" stroke="#404040" stroke-dasharray="5,2" points="8,-8 8,-78 800,-78 800,-8 8,-8"/>
<text text-anchor="middle" x="404" y="-66" font-family="Helvetica,sans-Serif" font-size="10.00">rob</text>
</a>
</g>
</g>
<g id="clust2" class="cluster">
<title>clusterdir_f9d4dbeed8b77d74edb7688c71320f51</title>
<g id="a_clust2"><a xlink:href="dir_f9d4dbeed8b77d74edb7688c71320f51.html" target="_top">
<polygon fill="#edf0f7" stroke="#404040" stroke-width="2" points="16,-16 16,-51 792,-51 792,-16 16,-16"/>
</a>
</g>
</g>
<!-- dir_f9d4dbeed8b77d74edb7688c71320f51 -->
<g id="node1" class="node">
<title>dir_f9d4dbeed8b77d74edb7688c71320f51</title>
<text text-anchor="middle" x="740" y="-31" font-family="Helvetica,sans-Serif" font-size="10.00">gpt_researcher</text>
</g>
<!-- dir_431d0ec26f526106759d5d518a79f6f3 -->
<g id="node2" class="node">
<title>dir_431d0ec26f526106759d5d518a79f6f3</title>
<g id="a_node2"><a xlink:href="dir_431d0ec26f526106759d5d518a79f6f3.html" target="_top" xlink:title="config">
<polygon fill="#a2b4d6" stroke="#404040" points="677,-43 631,-43 631,-24 677,-24 677,-43"/>
<text text-anchor="middle" x="654" y="-31" font-family="Helvetica,sans-Serif" font-size="10.00">config</text>
</a>
</g>
</g>
<!-- dir_09580389954d9e7ad63c583562062cbc -->
<g id="node3" class="node">
<title>dir_09580389954d9e7ad63c583562062cbc</title>
<g id="a_node3"><a xlink:href="dir_09580389954d9e7ad63c583562062cbc.html" target="_top" xlink:title="context">
<polygon fill="#a2b4d6" stroke="#404040" points="612.5,-43 559.5,-43 559.5,-24 612.5,-24 612.5,-43"/>
<text text-anchor="middle" x="586" y="-31" font-family="Helvetica,sans-Serif" font-size="10.00">context</text>
</a>
</g>
</g>
<!-- dir_dec7b911a689e309b70b2bc1efd13d46 -->
<g id="node4" class="node">
<title>dir_dec7b911a689e309b70b2bc1efd13d46</title>
<g id="a_node4"><a xlink:href="dir_dec7b911a689e309b70b2bc1efd13d46.html" target="_top" xlink:title="document">
<polygon fill="#a2b4d6" stroke="#404040" points="541.5,-43 476.5,-43 476.5,-24 541.5,-24 541.5,-43"/>
<text text-anchor="middle" x="509" y="-31" font-family="Helvetica,sans-Serif" font-size="10.00">document</text>
</a>
</g>
</g>
<!-- dir_a747e43da1c182c4993c25afd1989e8c -->
<g id="node5" class="node">
<title>dir_a747e43da1c182c4993c25afd1989e8c</title>
<g id="a_node5"><a xlink:href="dir_a747e43da1c182c4993c25afd1989e8c.html" target="_top" xlink:title="llm_provider">
<polygon fill="#a2b4d6" stroke="#404040" points="458,-43 380,-43 380,-24 458,-24 458,-43"/>
<text text-anchor="middle" x="419" y="-31" font-family="Helvetica,sans-Serif" font-size="10.00">llm_provider</text>
</a>
</g>
</g>
<!-- dir_035a7765b0207637c8376308a0060cd0 -->
<g id="node6" class="node">
<title>dir_035a7765b0207637c8376308a0060cd0</title>
<g id="a_node6"><a xlink:href="dir_035a7765b0207637c8376308a0060cd0.html" target="_top" xlink:title="master">
<polygon fill="#a2b4d6" stroke="#404040" points="361.5,-43 310.5,-43 310.5,-24 361.5,-24 361.5,-43"/>
<text text-anchor="middle" x="336" y="-31" font-family="Helvetica,sans-Serif" font-size="10.00">master</text>
</a>
</g>
</g>
<!-- dir_db5414299402b161d480e272cebbbcde -->
<g id="node7" class="node">
<title>dir_db5414299402b161d480e272cebbbcde</title>
<g id="a_node7"><a xlink:href="dir_db5414299402b161d480e272cebbbcde.html" target="_top" xlink:title="memory">
<polygon fill="#a2b4d6" stroke="#404040" points="292,-43 234,-43 234,-24 292,-24 292,-43"/>
<text text-anchor="middle" x="263" y="-31" font-family="Helvetica,sans-Serif" font-size="10.00">memory</text>
</a>
</g>
</g>
<!-- dir_ab5df70614ec1cd999b2cb5c8f079671 -->
<g id="node8" class="node">
<title>dir_ab5df70614ec1cd999b2cb5c8f079671</title>
<g id="a_node8"><a xlink:href="dir_ab5df70614ec1cd999b2cb5c8f079671.html" target="_top" xlink:title="retrievers">
<polygon fill="#a2b4d6" stroke="#404040" points="216,-43 152,-43 152,-24 216,-24 216,-43"/>
<text text-anchor="middle" x="184" y="-31" font-family="Helvetica,sans-Serif" font-size="10.00">retrievers</text>
</a>
</g>
</g>
<!-- dir_20a3dd4fa931084554e397067fac6117 -->
<g id="node9" class="node">
<title>dir_20a3dd4fa931084554e397067fac6117</title>
<g id="a_node9"><a xlink:href="dir_20a3dd4fa931084554e397067fac6117.html" target="_top" xlink:title="scraper">
<polygon fill="#a2b4d6" stroke="#404040" points="133.5,-43 80.5,-43 80.5,-24 133.5,-24 133.5,-43"/>
<text text-anchor="middle" x="107" y="-31" font-family="Helvetica,sans-Serif" font-size="10.00">scraper</text>
</a>
</g>
</g>
<!-- dir_37b41fe1379ad84b234a5f46dea35229 -->
<g id="node10" class="node">
<title>dir_37b41fe1379ad84b234a5f46dea35229</title>
<g id="a_node10"><a xlink:href="dir_37b41fe1379ad84b234a5f46dea35229.html" target="_top" xlink:title="utils">
<polygon fill="#a2b4d6" stroke="#404040" points="62,-43 24,-43 24,-24 62,-24 62,-43"/>
<text text-anchor="middle" x="43" y="-31" font-family="Helvetica,sans-Serif" font-size="10.00">utils</text>
</a>
</g>
</g>
</g>
</svg>

<g id="navigator" transform="translate(0 0)" fill="#404254">
  <rect fill="#f2f5e9" fill-opacity="0.5" stroke="#606060" stroke-width=".5" x="0" y="0" width="60" height="60"/>
  <use id="zoomplus" xlink:href="#zoomPlus" x="17" y="9" onmousedown="handleZoom(evt,'in')"/>
  <use id="zoomminus" xlink:href="#zoomMin" x="42" y="9" onmousedown="handleZoom(evt,'out')"/>
  <use id="reset" xlink:href="#resetDef" x="30" y="36" onmousedown="handleReset()"/>
   <use id="arrowup" xlink:href="#arrowUp" x="0" y="0" onmousedown="handlePan(0,-1)"/>
  <use id="arrowright" xlink:href="#arrowRight" x="0" y="0" onmousedown="handlePan(1,0)"/>
  <use id="arrowdown" xlink:href="#arrowDown" x="0" y="0" onmousedown="handlePan(0,1)"/>
  <use id="arrowleft" xlink:href="#arrowLeft" x="0" y="0" onmousedown="handlePan(-1,0)"/>
</g>
<svg viewBox="0 0 15 15" width="100%" height="30px" preserveAspectRatio="xMaxYMin meet">
 <g id="arrow_out" transform="scale(0.3 0.3)">
  <a xlink:href="dir_f9d4dbeed8b77d74edb7688c71320f51_dep_org.svg" target="_base">
   <rect id="button" ry="5" rx="5" y="6" x="6" height="38" width="38"
        fill="#f2f5e9" fill-opacity="0.5" stroke="#606060" stroke-width="1.0"/>
   <path id="arrow"
     d="M 11.500037,31.436501 C 11.940474,20.09759 22.043105,11.32322 32.158766,21.979434 L 37.068811,17.246167 C 37.068811,17.246167 37.088388,32 37.088388,32 L 22.160133,31.978069 C 22.160133,31.978069 26.997745,27.140456 26.997745,27.140456 C 18.528582,18.264221 13.291696,25.230495 11.500037,31.436501 z"
     style="fill:#404040;"/>
  </a>
 </g>
</svg>

<style type='text/css'>
<![CDATA[
[data-mouse-over-selected='false'] { opacity: 0.7; }
[data-mouse-over-selected='true']  { opacity: 1.0; }
]]>
</style>
<script type="application/ecmascript"><![CDATA[
document.addEventListener('DOMContentLoaded', (event) => {
  highlightEdges();
  highlightAdjacentNodes();
});
]]></script>
</svg>
