<?xml version="1.0" encoding="UTF-8" standalone="no"?>
<!DOCTYPE svg PUBLIC "-//W3C//DTD SVG 1.1//EN"
 "http://www.w3.org/Graphics/SVG/1.1/DTD/svg11.dtd">
<!-- Generated by graphviz version 2.43.0 (0)
 -->
<!-- Title: /tmp/github_repos_arch_doc_gen/yshishenya/rob/gpt_researcher/llm_provider Pages: 1 -->
<!--zoomable 94 -->

<svg id="main" version="1.1" xmlns="http://www.w3.org/2000/svg" xmlns:xlink="http://www.w3.org/1999/xlink" xml:space="preserve" onload="init(evt)">
<style type="text/css"><![CDATA[
.node, .edge {opacity: 0.7;}
.node.selected, .edge.selected {opacity: 1;}
.edge:hover path { stroke: red; }
.edge:hover polygon { stroke: red; fill: red; }
]]></style>

<defs>
  <circle id="rim" cx="0" cy="0" r="7"/>
  <circle id="rim2" cx="0" cy="0" r="3.5"/>
  <g id="zoomPlus">
    <use xlink:href="#rim" fill="#404040"><set attributeName="fill" to="#808080" begin="zoomplus.mouseover" end="zoomplus.mouseout"/></use>
    <path d="M-4,0h8M0,-4v8" fill="none" stroke="white" stroke-width="1.5" pointer-events="none"/>
  </g>
  <g id="zoomMin">
    <use xlink:href="#rim" fill="#404040"><set attributeName="fill" to="#808080" begin="zoomminus.mouseover" end="zoomminus.mouseout"/></use>
    <path d="M-4,0h8" fill="none" stroke="white" stroke-width="1.5" pointer-events="none"/>
  </g>
  <g id="arrowUp" transform="translate(30 24)">
    <use xlink:href="#rim"/>
    <path pointer-events="none" fill="none" stroke="white" stroke-width="1.5" d="M0,-3.0v7 M-2.5,-0.5L0,-3.0L2.5,-0.5"/>
  </g>
  <g id="arrowRight" transform="rotate(90) translate(36 -43)">
    <use xlink:href="#rim"/>
    <path pointer-events="none" fill="none" stroke="white" stroke-width="1.5" d="M0,-3.0v7 M-2.5,-0.5L0,-3.0L2.5,-0.5"/>
  </g>
  <g id="arrowDown" transform="rotate(180) translate(-30 -48)">
    <use xlink:href="#rim"/>
    <path pointer-events="none" fill="none" stroke="white" stroke-width="1.5" d="M0,-3.0v7 M-2.5,-0.5L0,-3.0L2.5,-0.5"/>
  </g>
  <g id="arrowLeft" transform="rotate(270) translate(-36 17)">
    <use xlink:href="#rim"/>
    <path pointer-events="none" fill="none" stroke="white" stroke-width="1.5" d="M0,-3.0v7 M-2.5,-0.5L0,-3.0L2.5,-0.5"/>
  </g>
  <g id="resetDef">
    <use xlink:href="#rim2" fill="#404040"><set attributeName="fill" to="#808080" begin="reset.mouseover" end="reset.mouseout"/></use>
  </g>
</defs>
<script type="application/ecmascript">
var viewWidth = 882;
var viewHeight = 94;
var sectionId = 'dynsection-0';
</script>
<script type="application/ecmascript" xlink:href="svg.min.js"/>
<svg id="graph" class="graph">
<g id="viewport">
<title>/tmp/github_repos_arch_doc_gen/yshishenya/rob/gpt_researcher/llm_provider</title>
<g id="clust1" class="cluster">
<title>clusterdir_f9d4dbeed8b77d74edb7688c71320f51</title>
<g id="a_clust1"><a xlink:href="dir_f9d4dbeed8b77d74edb7688c71320f51.html" target="_top" xlink:title="gpt_researcher">
<polygon fill="#edf0f7" stroke="#7f7f7f" stroke-dasharray="5,2" points="8,-8 8,-78 866,-78 866,-8 8,-8"/>
<text text-anchor="middle" x="437" y="-66" font-family="Helvetica,sans-Serif" font-size="10.00">gpt_researcher</text>
</a>
</g>
</g>
<g id="clust2" class="cluster">
<title>clusterdir_a747e43da1c182c4993c25afd1989e8c</title>
<g id="a_clust2"><a xlink:href="dir_a747e43da1c182c4993c25afd1989e8c.html" target="_top">
<polygon fill="#edf0f7" stroke="#404040" stroke-width="2" points="16,-16 16,-51 858,-51 858,-16 16,-16"/>
</a>
</g>
</g>
<!-- dir_a747e43da1c182c4993c25afd1989e8c -->
<g id="node1" class="node">
<title>dir_a747e43da1c182c4993c25afd1989e8c</title>
<text text-anchor="middle" x="811" y="-31" font-family="Helvetica,sans-Serif" font-size="10.00">llm_provider</text>
</g>
<!-- dir_20e11079e1b0fa73e6b27e5721e8fd41 -->
<g id="node2" class="node">
<title>dir_20e11079e1b0fa73e6b27e5721e8fd41</title>
<g id="a_node2"><a xlink:href="dir_20e11079e1b0fa73e6b27e5721e8fd41.html" target="_top" xlink:title="anthropic">
<polygon fill="#a2b4d6" stroke="#404040" points="754,-43 692,-43 692,-24 754,-24 754,-43"/>
<text text-anchor="middle" x="723" y="-31" font-family="Helvetica,sans-Serif" font-size="10.00">anthropic</text>
</a>
</g>
</g>
<!-- dir_6d3af79848e10b5bed2428cc0bb78928 -->
<g id="node3" class="node">
<title>dir_6d3af79848e10b5bed2428cc0bb78928</title>
<g id="a_node3"><a xlink:href="dir_6d3af79848e10b5bed2428cc0bb78928.html" target="_top" xlink:title="azureopenai">
<polygon fill="#a2b4d6" stroke="#404040" points="673.5,-43 596.5,-43 596.5,-24 673.5,-24 673.5,-43"/>
<text text-anchor="middle" x="635" y="-31" font-family="Helvetica,sans-Serif" font-size="10.00">azureopenai</text>
</a>
</g>
</g>
<!-- dir_e796a5521d8af8ff4dda60fd5b075078 -->
<g id="node4" class="node">
<title>dir_e796a5521d8af8ff4dda60fd5b075078</title>
<g id="a_node4"><a xlink:href="dir_e796a5521d8af8ff4dda60fd5b075078.html" target="_top" xlink:title="generic">
<polygon fill="#a2b4d6" stroke="#404040" points="578.5,-43 525.5,-43 525.5,-24 578.5,-24 578.5,-43"/>
<text text-anchor="middle" x="552" y="-31" font-family="Helvetica,sans-Serif" font-size="10.00">generic</text>
</a>
</g>
</g>
<!-- dir_73aba95ff0129f7e1d8dcc5e5f831f78 -->
<g id="node5" class="node">
<title>dir_73aba95ff0129f7e1d8dcc5e5f831f78</title>
<g id="a_node5"><a xlink:href="dir_73aba95ff0129f7e1d8dcc5e5f831f78.html" target="_top" xlink:title="google">
<polygon fill="#a2b4d6" stroke="#404040" points="507,-43 457,-43 457,-24 507,-24 507,-43"/>
<text text-anchor="middle" x="482" y="-31" font-family="Helvetica,sans-Serif" font-size="10.00">google</text>
</a>
</g>
</g>
<!-- dir_6472a882810021121e0921fa0d62aaae -->
<g id="node6" class="node">
<title>dir_6472a882810021121e0921fa0d62aaae</title>
<g id="a_node6"><a xlink:href="dir_6472a882810021121e0921fa0d62aaae.html" target="_top" xlink:title="groq">
<polygon fill="#a2b4d6" stroke="#404040" points="439,-43 401,-43 401,-24 439,-24 439,-43"/>
<text text-anchor="middle" x="420" y="-31" font-family="Helvetica,sans-Serif" font-size="10.00">groq</text>
</a>
</g>
</g>
<!-- dir_fa70a3e284ed11c7aecfabc4d07ffecb -->
<g id="node7" class="node">
<title>dir_fa70a3e284ed11c7aecfabc4d07ffecb</title>
<g id="a_node7"><a xlink:href="dir_fa70a3e284ed11c7aecfabc4d07ffecb.html" target="_top" xlink:title="huggingface">
<polygon fill="#a2b4d6" stroke="#404040" points="382.5,-43 305.5,-43 305.5,-24 382.5,-24 382.5,-43"/>
<text text-anchor="middle" x="344" y="-31" font-family="Helvetica,sans-Serif" font-size="10.00">huggingface</text>
</a>
</g>
</g>
<!-- dir_17870a2ffaeed3872d466c7c8a08cd13 -->
<g id="node8" class="node">
<title>dir_17870a2ffaeed3872d466c7c8a08cd13</title>
<g id="a_node8"><a xlink:href="dir_17870a2ffaeed3872d466c7c8a08cd13.html" target="_top" xlink:title="mistral">
<polygon fill="#a2b4d6" stroke="#404040" points="287.5,-43 236.5,-43 236.5,-24 287.5,-24 287.5,-43"/>
<text text-anchor="middle" x="262" y="-31" font-family="Helvetica,sans-Serif" font-size="10.00">mistral</text>
</a>
</g>
</g>
<!-- dir_cd3a634799b777485adf2de054ab014d -->
<g id="node9" class="node">
<title>dir_cd3a634799b777485adf2de054ab014d</title>
<g id="a_node9"><a xlink:href="dir_cd3a634799b777485adf2de054ab014d.html" target="_top" xlink:title="ollama">
<polygon fill="#a2b4d6" stroke="#404040" points="218,-43 168,-43 168,-24 218,-24 218,-43"/>
<text text-anchor="middle" x="193" y="-31" font-family="Helvetica,sans-Serif" font-size="10.00">ollama</text>
</a>
</g>
</g>
<!-- dir_af4289b741e146665dba5feecafa62f5 -->
<g id="node10" class="node">
<title>dir_af4289b741e146665dba5feecafa62f5</title>
<g id="a_node10"><a xlink:href="dir_af4289b741e146665dba5feecafa62f5.html" target="_top" xlink:title="openai">
<polygon fill="#a2b4d6" stroke="#404040" points="150,-43 100,-43 100,-24 150,-24 150,-43"/>
<text text-anchor="middle" x="125" y="-31" font-family="Helvetica,sans-Serif" font-size="10.00">openai</text>
</a>
</g>
</g>
<!-- dir_beb445fafb0fdc9476d965a6735a1029 -->
<g id="node11" class="node">
<title>dir_beb445fafb0fdc9476d965a6735a1029</title>
<g id="a_node11"><a xlink:href="dir_beb445fafb0fdc9476d965a6735a1029.html" target="_top" xlink:title="together">
<polygon fill="#a2b4d6" stroke="#404040" points="82,-43 24,-43 24,-24 82,-24 82,-43"/>
<text text-anchor="middle" x="53" y="-31" font-family="Helvetica,sans-Serif" font-size="10.00">together</text>
</a>
</g>
</g>
</g>
</svg>

<g id="navigator" transform="translate(0 0)" fill="#404254">
  <rect fill="#f2f5e9" fill-opacity="0.5" stroke="#606060" stroke-width=".5" x="0" y="0" width="60" height="60"/>
  <use id="zoomplus" xlink:href="#zoomPlus" x="17" y="9" onmousedown="handleZoom(evt,'in')"/>
  <use id="zoomminus" xlink:href="#zoomMin" x="42" y="9" onmousedown="handleZoom(evt,'out')"/>
  <use id="reset" xlink:href="#resetDef" x="30" y="36" onmousedown="handleReset()"/>
   <use id="arrowup" xlink:href="#arrowUp" x="0" y="0" onmousedown="handlePan(0,-1)"/>
  <use id="arrowright" xlink:href="#arrowRight" x="0" y="0" onmousedown="handlePan(1,0)"/>
  <use id="arrowdown" xlink:href="#arrowDown" x="0" y="0" onmousedown="handlePan(0,1)"/>
  <use id="arrowleft" xlink:href="#arrowLeft" x="0" y="0" onmousedown="handlePan(-1,0)"/>
</g>
<svg viewBox="0 0 15 15" width="100%" height="30px" preserveAspectRatio="xMaxYMin meet">
 <g id="arrow_out" transform="scale(0.3 0.3)">
  <a xlink:href="dir_a747e43da1c182c4993c25afd1989e8c_dep_org.svg" target="_base">
   <rect id="button" ry="5" rx="5" y="6" x="6" height="38" width="38"
        fill="#f2f5e9" fill-opacity="0.5" stroke="#606060" stroke-width="1.0"/>
   <path id="arrow"
     d="M 11.500037,31.436501 C 11.940474,20.09759 22.043105,11.32322 32.158766,21.979434 L 37.068811,17.246167 C 37.068811,17.246167 37.088388,32 37.088388,32 L 22.160133,31.978069 C 22.160133,31.978069 26.997745,27.140456 26.997745,27.140456 C 18.528582,18.264221 13.291696,25.230495 11.500037,31.436501 z"
     style="fill:#404040;"/>
  </a>
 </g>
</svg>

<style type='text/css'>
<![CDATA[
[data-mouse-over-selected='false'] { opacity: 0.7; }
[data-mouse-over-selected='true']  { opacity: 1.0; }
]]>
</style>
<script type="application/ecmascript"><![CDATA[
document.addEventListener('DOMContentLoaded', (event) => {
  highlightEdges();
  highlightAdjacentNodes();
});
]]></script>
</svg>
