<?xml version="1.0" encoding="UTF-8" standalone="no"?>
<!DOCTYPE svg PUBLIC "-//W3C//DTD SVG 1.1//EN"
 "http://www.w3.org/Graphics/SVG/1.1/DTD/svg11.dtd">
<!-- Generated by graphviz version 2.43.0 (0)
 -->
<!-- Title: /tmp/github_repos_arch_doc_gen/yshishenya/rob/gpt_researcher/retrievers Pages: 1 -->
<!--zoomable 94 -->

<svg id="main" version="1.1" xmlns="http://www.w3.org/2000/svg" xmlns:xlink="http://www.w3.org/1999/xlink" xml:space="preserve" onload="init(evt)">
<style type="text/css"><![CDATA[
.node, .edge {opacity: 0.7;}
.node.selected, .edge.selected {opacity: 1;}
.edge:hover path { stroke: red; }
.edge:hover polygon { stroke: red; fill: red; }
]]></style>

<defs>
  <circle id="rim" cx="0" cy="0" r="7"/>
  <circle id="rim2" cx="0" cy="0" r="3.5"/>
  <g id="zoomPlus">
    <use xlink:href="#rim" fill="#404040"><set attributeName="fill" to="#808080" begin="zoomplus.mouseover" end="zoomplus.mouseout"/></use>
    <path d="M-4,0h8M0,-4v8" fill="none" stroke="white" stroke-width="1.5" pointer-events="none"/>
  </g>
  <g id="zoomMin">
    <use xlink:href="#rim" fill="#404040"><set attributeName="fill" to="#808080" begin="zoomminus.mouseover" end="zoomminus.mouseout"/></use>
    <path d="M-4,0h8" fill="none" stroke="white" stroke-width="1.5" pointer-events="none"/>
  </g>
  <g id="arrowUp" transform="translate(30 24)">
    <use xlink:href="#rim"/>
    <path pointer-events="none" fill="none" stroke="white" stroke-width="1.5" d="M0,-3.0v7 M-2.5,-0.5L0,-3.0L2.5,-0.5"/>
  </g>
  <g id="arrowRight" transform="rotate(90) translate(36 -43)">
    <use xlink:href="#rim"/>
    <path pointer-events="none" fill="none" stroke="white" stroke-width="1.5" d="M0,-3.0v7 M-2.5,-0.5L0,-3.0L2.5,-0.5"/>
  </g>
  <g id="arrowDown" transform="rotate(180) translate(-30 -48)">
    <use xlink:href="#rim"/>
    <path pointer-events="none" fill="none" stroke="white" stroke-width="1.5" d="M0,-3.0v7 M-2.5,-0.5L0,-3.0L2.5,-0.5"/>
  </g>
  <g id="arrowLeft" transform="rotate(270) translate(-36 17)">
    <use xlink:href="#rim"/>
    <path pointer-events="none" fill="none" stroke="white" stroke-width="1.5" d="M0,-3.0v7 M-2.5,-0.5L0,-3.0L2.5,-0.5"/>
  </g>
  <g id="resetDef">
    <use xlink:href="#rim2" fill="#404040"><set attributeName="fill" to="#808080" begin="reset.mouseover" end="reset.mouseout"/></use>
  </g>
</defs>
<script type="application/ecmascript">
var viewWidth = 599;
var viewHeight = 94;
var sectionId = 'dynsection-0';
</script>
<script type="application/ecmascript" xlink:href="svg.min.js"/>
<svg id="graph" class="graph">
<g id="viewport">
<title>/tmp/github_repos_arch_doc_gen/yshishenya/rob/gpt_researcher/retrievers</title>
<g id="clust1" class="cluster">
<title>clusterdir_f9d4dbeed8b77d74edb7688c71320f51</title>
<g id="a_clust1"><a xlink:href="dir_f9d4dbeed8b77d74edb7688c71320f51.html" target="_top" xlink:title="gpt_researcher">
<polygon fill="#edf0f7" stroke="#7f7f7f" stroke-dasharray="5,2" points="8,-8 8,-78 583,-78 583,-8 8,-8"/>
<text text-anchor="middle" x="295.5" y="-66" font-family="Helvetica,sans-Serif" font-size="10.00">gpt_researcher</text>
</a>
</g>
</g>
<g id="clust2" class="cluster">
<title>clusterdir_ab5df70614ec1cd999b2cb5c8f079671</title>
<g id="a_clust2"><a xlink:href="dir_ab5df70614ec1cd999b2cb5c8f079671.html" target="_top">
<polygon fill="#edf0f7" stroke="#404040" stroke-width="2" points="16,-16 16,-51 575,-51 575,-16 16,-16"/>
</a>
</g>
</g>
<!-- dir_ab5df70614ec1cd999b2cb5c8f079671 -->
<g id="node1" class="node">
<title>dir_ab5df70614ec1cd999b2cb5c8f079671</title>
<text text-anchor="middle" x="535" y="-31" font-family="Helvetica,sans-Serif" font-size="10.00">retrievers</text>
</g>
<!-- dir_2b8c4b896633989c005ae4873ae8da74 -->
<g id="node2" class="node">
<title>dir_2b8c4b896633989c005ae4873ae8da74</title>
<g id="a_node2"><a xlink:href="dir_2b8c4b896633989c005ae4873ae8da74.html" target="_top" xlink:title="bing">
<polygon fill="#a2b4d6" stroke="#404040" points="485,-43 447,-43 447,-24 485,-24 485,-43"/>
<text text-anchor="middle" x="466" y="-31" font-family="Helvetica,sans-Serif" font-size="10.00">bing</text>
</a>
</g>
</g>
<!-- dir_b4d8dcc72b20823dab5f467aabbd28a7 -->
<g id="node3" class="node">
<title>dir_b4d8dcc72b20823dab5f467aabbd28a7</title>
<g id="a_node3"><a xlink:href="dir_b4d8dcc72b20823dab5f467aabbd28a7.html" target="_top" xlink:title="duckduckgo">
<polygon fill="#a2b4d6" stroke="#404040" points="428.5,-43 353.5,-43 353.5,-24 428.5,-24 428.5,-43"/>
<text text-anchor="middle" x="391" y="-31" font-family="Helvetica,sans-Serif" font-size="10.00">duckduckgo</text>
</a>
</g>
</g>
<!-- dir_4ed381fcfcff19e107262f2c806bac9b -->
<g id="node4" class="node">
<title>dir_4ed381fcfcff19e107262f2c806bac9b</title>
<g id="a_node4"><a xlink:href="dir_4ed381fcfcff19e107262f2c806bac9b.html" target="_top" xlink:title="google">
<polygon fill="#a2b4d6" stroke="#404040" points="335,-43 285,-43 285,-24 335,-24 335,-43"/>
<text text-anchor="middle" x="310" y="-31" font-family="Helvetica,sans-Serif" font-size="10.00">google</text>
</a>
</g>
</g>
<!-- dir_0e9b43fa14fba687e189c1e7eca85762 -->
<g id="node5" class="node">
<title>dir_0e9b43fa14fba687e189c1e7eca85762</title>
<g id="a_node5"><a xlink:href="dir_0e9b43fa14fba687e189c1e7eca85762.html" target="_top" xlink:title="searx">
<polygon fill="#a2b4d6" stroke="#404040" points="267,-43 223,-43 223,-24 267,-24 267,-43"/>
<text text-anchor="middle" x="245" y="-31" font-family="Helvetica,sans-Serif" font-size="10.00">searx</text>
</a>
</g>
</g>
<!-- dir_bdaa6b52110c8a6d368719da479dad65 -->
<g id="node6" class="node">
<title>dir_bdaa6b52110c8a6d368719da479dad65</title>
<g id="a_node6"><a xlink:href="dir_bdaa6b52110c8a6d368719da479dad65.html" target="_top" xlink:title="serpapi">
<polygon fill="#a2b4d6" stroke="#404040" points="204.5,-43 151.5,-43 151.5,-24 204.5,-24 204.5,-43"/>
<text text-anchor="middle" x="178" y="-31" font-family="Helvetica,sans-Serif" font-size="10.00">serpapi</text>
</a>
</g>
</g>
<!-- dir_2cf63ca3acc6cf10a5231c19aecbdb86 -->
<g id="node7" class="node">
<title>dir_2cf63ca3acc6cf10a5231c19aecbdb86</title>
<g id="a_node7"><a xlink:href="dir_2cf63ca3acc6cf10a5231c19aecbdb86.html" target="_top" xlink:title="serper">
<polygon fill="#a2b4d6" stroke="#404040" points="133.5,-43 86.5,-43 86.5,-24 133.5,-24 133.5,-43"/>
<text text-anchor="middle" x="110" y="-31" font-family="Helvetica,sans-Serif" font-size="10.00">serper</text>
</a>
</g>
</g>
<!-- dir_333920dcdfb0eb3743891e711d9017bb -->
<g id="node8" class="node">
<title>dir_333920dcdfb0eb3743891e711d9017bb</title>
<g id="a_node8"><a xlink:href="dir_333920dcdfb0eb3743891e711d9017bb.html" target="_top" xlink:title="tavily">
<polygon fill="#a2b4d6" stroke="#404040" points="68,-43 24,-43 24,-24 68,-24 68,-43"/>
<text text-anchor="middle" x="46" y="-31" font-family="Helvetica,sans-Serif" font-size="10.00">tavily</text>
</a>
</g>
</g>
</g>
</svg>

<g id="navigator" transform="translate(0 0)" fill="#404254">
  <rect fill="#f2f5e9" fill-opacity="0.5" stroke="#606060" stroke-width=".5" x="0" y="0" width="60" height="60"/>
  <use id="zoomplus" xlink:href="#zoomPlus" x="17" y="9" onmousedown="handleZoom(evt,'in')"/>
  <use id="zoomminus" xlink:href="#zoomMin" x="42" y="9" onmousedown="handleZoom(evt,'out')"/>
  <use id="reset" xlink:href="#resetDef" x="30" y="36" onmousedown="handleReset()"/>
   <use id="arrowup" xlink:href="#arrowUp" x="0" y="0" onmousedown="handlePan(0,-1)"/>
  <use id="arrowright" xlink:href="#arrowRight" x="0" y="0" onmousedown="handlePan(1,0)"/>
  <use id="arrowdown" xlink:href="#arrowDown" x="0" y="0" onmousedown="handlePan(0,1)"/>
  <use id="arrowleft" xlink:href="#arrowLeft" x="0" y="0" onmousedown="handlePan(-1,0)"/>
</g>
<svg viewBox="0 0 15 15" width="100%" height="30px" preserveAspectRatio="xMaxYMin meet">
 <g id="arrow_out" transform="scale(0.3 0.3)">
  <a xlink:href="dir_ab5df70614ec1cd999b2cb5c8f079671_dep_org.svg" target="_base">
   <rect id="button" ry="5" rx="5" y="6" x="6" height="38" width="38"
        fill="#f2f5e9" fill-opacity="0.5" stroke="#606060" stroke-width="1.0"/>
   <path id="arrow"
     d="M 11.500037,31.436501 C 11.940474,20.09759 22.043105,11.32322 32.158766,21.979434 L 37.068811,17.246167 C 37.068811,17.246167 37.088388,32 37.088388,32 L 22.160133,31.978069 C 22.160133,31.978069 26.997745,27.140456 26.997745,27.140456 C 18.528582,18.264221 13.291696,25.230495 11.500037,31.436501 z"
     style="fill:#404040;"/>
  </a>
 </g>
</svg>

<style type='text/css'>
<![CDATA[
[data-mouse-over-selected='false'] { opacity: 0.7; }
[data-mouse-over-selected='true']  { opacity: 1.0; }
]]>
</style>
<script type="application/ecmascript"><![CDATA[
document.addEventListener('DOMContentLoaded', (event) => {
  highlightEdges();
  highlightAdjacentNodes();
});
]]></script>
</svg>
