<?xml version="1.0" encoding="UTF-8" standalone="no"?>
<!DOCTYPE svg PUBLIC "-//W3C//DTD SVG 1.1//EN"
 "http://www.w3.org/Graphics/SVG/1.1/DTD/svg11.dtd">
<!-- Generated by graphviz version 2.43.0 (0)
 -->
<!-- Title: Graphical Class Hierarchy Pages: 1 -->
<svg width="258pt" height="76pt"
 viewBox="0.00 0.00 258.00 75.50" xmlns="http://www.w3.org/2000/svg" xmlns:xlink="http://www.w3.org/1999/xlink">
<g id="graph0" class="graph" transform="scale(1 1) rotate(0) translate(4 71.5)">
<title>Graphical Class Hierarchy</title>
<!-- Node0 -->
<g id="Node000000" class="node">
<title>Node0</title>
<g id="a_Node000000"><a xlink:title=" ">
<polygon fill="#e0e0e0" stroke="#999999" points="65,-45.5 0,-45.5 0,-26.5 65,-26.5 65,-45.5"/>
<text text-anchor="middle" x="32.5" y="-33.5" font-family="Helvetica,sans-Serif" font-size="10.00">TypedDict</text>
</a>
</g>
</g>
<!-- Node1 -->
<g id="Node000001" class="node">
<title>Node1</title>
<g id="a_Node000001"><a xlink:href="classmemory_1_1draft_1_1DraftState.html" target="_top" xlink:title=" ">
<polygon fill="white" stroke="#666666" points="242.5,-67.5 108.5,-67.5 108.5,-48.5 242.5,-48.5 242.5,-67.5"/>
<text text-anchor="middle" x="175.5" y="-55.5" font-family="Helvetica,sans-Serif" font-size="10.00">memory.draft.DraftState</text>
</a>
</g>
</g>
<!-- Node0&#45;&gt;Node1 -->
<g id="edge22_Node000000_Node000001" class="edge">
<title>Node0&#45;&gt;Node1</title>
<g id="a_edge22_Node000000_Node000001"><a xlink:title=" ">
<path fill="none" stroke="#63b8ff" d="M75.29,-42.52C87.28,-44.39 100.6,-46.47 113.49,-48.48"/>
<polygon fill="#63b8ff" stroke="#63b8ff" points="75.56,-39.02 65.14,-40.94 74.48,-45.94 75.56,-39.02"/>
</a>
</g>
</g>
<!-- Node2 -->
<g id="Node000002" class="node">
<title>Node2</title>
<g id="a_Node000002"><a xlink:href="classmemory_1_1research_1_1ResearchState.html" target="_top" xlink:title=" ">
<polygon fill="white" stroke="#666666" points="250,-30 101,-30 101,0 250,0 250,-30"/>
<text text-anchor="start" x="109" y="-18" font-family="Helvetica,sans-Serif" font-size="10.00">memory.research.Research</text>
<text text-anchor="middle" x="175.5" y="-7" font-family="Helvetica,sans-Serif" font-size="10.00">State</text>
</a>
</g>
</g>
<!-- Node0&#45;&gt;Node2 -->
<g id="edge23_Node000000_Node000002" class="edge">
<title>Node0&#45;&gt;Node2</title>
<g id="a_edge23_Node000000_Node000002"><a xlink:title=" ">
<path fill="none" stroke="#63b8ff" d="M75.11,-29.8C83.27,-28.59 92.06,-27.28 100.91,-25.96"/>
<polygon fill="#63b8ff" stroke="#63b8ff" points="74.52,-26.35 65.14,-31.29 75.55,-33.28 74.52,-26.35"/>
</a>
</g>
</g>
</g>
</svg>
