<?xml version="1.0" encoding="UTF-8" standalone="no"?>
<!DOCTYPE svg PUBLIC "-//W3C//DTD SVG 1.1//EN"
 "http://www.w3.org/Graphics/SVG/1.1/DTD/svg11.dtd">
<!-- Generated by graphviz version 2.43.0 (0)
 -->
<!-- Title: Graphical Class Hierarchy Pages: 1 -->
<svg width="416pt" height="38pt"
 viewBox="0.00 0.00 416.00 38.00" xmlns="http://www.w3.org/2000/svg" xmlns:xlink="http://www.w3.org/1999/xlink">
<g id="graph0" class="graph" transform="scale(1 1) rotate(0) translate(4 34)">
<title>Graphical Class Hierarchy</title>
<!-- Node0 -->
<g id="Node000000" class="node">
<title>Node0</title>
<g id="a_Node000000"><a xlink:title=" ">
<polygon fill="#e0e0e0" stroke="#999999" points="37,-24.5 0,-24.5 0,-5.5 37,-5.5 37,-24.5"/>
<text text-anchor="middle" x="18.5" y="-12.5" font-family="Helvetica,sans-Serif" font-size="10.00">ABC</text>
</a>
</g>
</g>
<!-- Node1 -->
<g id="Node000001" class="node">
<title>Node1</title>
<g id="a_Node000001"><a xlink:href="classtoken__storage_1_1TokenStorage.html" target="_top" xlink:title=" ">
<polygon fill="white" stroke="#666666" points="227,-24.5 73,-24.5 73,-5.5 227,-5.5 227,-24.5"/>
<text text-anchor="middle" x="150" y="-12.5" font-family="Helvetica,sans-Serif" font-size="10.00">token_storage.TokenStorage</text>
</a>
</g>
</g>
<!-- Node0&#45;&gt;Node1 -->
<g id="edge1_Node000000_Node000001" class="edge">
<title>Node0&#45;&gt;Node1</title>
<g id="a_edge1_Node000000_Node000001"><a xlink:title=" ">
<path fill="none" stroke="#63b8ff" d="M47.34,-15C55.03,-15 63.76,-15 72.81,-15"/>
<polygon fill="#63b8ff" stroke="#63b8ff" points="47.23,-11.5 37.23,-15 47.23,-18.5 47.23,-11.5"/>
</a>
</g>
</g>
<!-- Node2 -->
<g id="Node000002" class="node">
<title>Node2</title>
<g id="a_Node000002"><a xlink:href="classredis__token__storage_1_1RedisTokenStorage.html" target="_top" xlink:title=" ">
<polygon fill="white" stroke="#666666" points="408,-30 263,-30 263,0 408,0 408,-30"/>
<text text-anchor="start" x="271" y="-18" font-family="Helvetica,sans-Serif" font-size="10.00">redis_token_storage.Redis</text>
<text text-anchor="middle" x="335.5" y="-7" font-family="Helvetica,sans-Serif" font-size="10.00">TokenStorage</text>
</a>
</g>
</g>
<!-- Node1&#45;&gt;Node2 -->
<g id="edge2_Node000001_Node000002" class="edge">
<title>Node1&#45;&gt;Node2</title>
<g id="a_edge2_Node000001_Node000002"><a xlink:title=" ">
<path fill="none" stroke="#63b8ff" d="M237.26,-15C245.85,-15 254.51,-15 262.92,-15"/>
<polygon fill="#63b8ff" stroke="#63b8ff" points="237.23,-11.5 227.23,-15 237.23,-18.5 237.23,-11.5"/>
</a>
</g>
</g>
</g>
</svg>
