<?xml version="1.0" encoding="UTF-8" standalone="no"?>
<!DOCTYPE svg PUBLIC "-//W3C//DTD SVG 1.1//EN"
 "http://www.w3.org/Graphics/SVG/1.1/DTD/svg11.dtd">
<!-- Generated by graphviz version 2.43.0 (0)
 -->
<!-- Title: Graphical Class Hierarchy Pages: 1 -->
<svg width="234pt" height="134pt"
 viewBox="0.00 0.00 234.00 134.00" xmlns="http://www.w3.org/2000/svg" xmlns:xlink="http://www.w3.org/1999/xlink">
<g id="graph0" class="graph" transform="scale(1 1) rotate(0) translate(4 130)">
<title>Graphical Class Hierarchy</title>
<!-- Node0 -->
<g id="Node000000" class="node">
<title>Node0</title>
<g id="a_Node000000"><a xlink:title=" ">
<polygon fill="#e0e0e0" stroke="#999999" points="44,-72.5 0,-72.5 0,-53.5 44,-53.5 44,-72.5"/>
<text text-anchor="middle" x="22" y="-60.5" font-family="Helvetica,sans-Serif" font-size="10.00">Enum</text>
</a>
</g>
</g>
<!-- Node1 -->
<g id="Node000001" class="node">
<title>Node1</title>
<g id="a_Node000001"><a xlink:href="classagents_1_1utils_1_1views_1_1AgentColor.html" target="_top" xlink:title=" ">
<polygon fill="white" stroke="#666666" points="221.5,-126 84.5,-126 84.5,-96 221.5,-96 221.5,-126"/>
<text text-anchor="start" x="92.5" y="-114" font-family="Helvetica,sans-Serif" font-size="10.00">agents.utils.views.Agent</text>
<text text-anchor="middle" x="153" y="-103" font-family="Helvetica,sans-Serif" font-size="10.00">Color</text>
</a>
</g>
</g>
<!-- Node0&#45;&gt;Node1 -->
<g id="edge19_Node000000_Node000001" class="edge">
<title>Node0&#45;&gt;Node1</title>
<g id="a_edge19_Node000000_Node000001"><a xlink:title=" ">
<path fill="none" stroke="#63b8ff" d="M53.45,-76.33C61.99,-79.93 71.31,-83.73 80,-87 88.02,-90.02 96.6,-93.05 104.95,-95.9"/>
<polygon fill="#63b8ff" stroke="#63b8ff" points="54.8,-73.1 44.23,-72.39 52.05,-79.54 54.8,-73.1"/>
</a>
</g>
</g>
<!-- Node2 -->
<g id="Node000002" class="node">
<title>Node2</title>
<g id="a_Node000002"><a xlink:href="classgpt__researcher_1_1utils_1_1enum_1_1ReportSource.html" target="_top" xlink:title=" ">
<polygon fill="white" stroke="#666666" points="226,-78 80,-78 80,-48 226,-48 226,-78"/>
<text text-anchor="start" x="88" y="-66" font-family="Helvetica,sans-Serif" font-size="10.00">gpt_researcher.utils.enum.</text>
<text text-anchor="middle" x="153" y="-55" font-family="Helvetica,sans-Serif" font-size="10.00">ReportSource</text>
</a>
</g>
</g>
<!-- Node0&#45;&gt;Node2 -->
<g id="edge20_Node000000_Node000002" class="edge">
<title>Node0&#45;&gt;Node2</title>
<g id="a_edge20_Node000000_Node000002"><a xlink:title=" ">
<path fill="none" stroke="#63b8ff" d="M54.16,-63C62.07,-63 70.9,-63 79.93,-63"/>
<polygon fill="#63b8ff" stroke="#63b8ff" points="54.01,-59.5 44.01,-63 54.01,-66.5 54.01,-59.5"/>
</a>
</g>
</g>
<!-- Node3 -->
<g id="Node000003" class="node">
<title>Node3</title>
<g id="a_Node000003"><a xlink:href="classgpt__researcher_1_1utils_1_1enum_1_1ReportType.html" target="_top" xlink:title=" ">
<polygon fill="white" stroke="#666666" points="226,-30 80,-30 80,0 226,0 226,-30"/>
<text text-anchor="start" x="88" y="-18" font-family="Helvetica,sans-Serif" font-size="10.00">gpt_researcher.utils.enum.</text>
<text text-anchor="middle" x="153" y="-7" font-family="Helvetica,sans-Serif" font-size="10.00">ReportType</text>
</a>
</g>
</g>
<!-- Node0&#45;&gt;Node3 -->
<g id="edge21_Node000000_Node000003" class="edge">
<title>Node0&#45;&gt;Node3</title>
<g id="a_edge21_Node000000_Node000003"><a xlink:title=" ">
<path fill="none" stroke="#63b8ff" d="M53.45,-49.67C61.99,-46.07 71.31,-42.27 80,-39 88.02,-35.98 96.6,-32.95 104.95,-30.1"/>
<polygon fill="#63b8ff" stroke="#63b8ff" points="52.05,-46.46 44.23,-53.61 54.8,-52.9 52.05,-46.46"/>
</a>
</g>
</g>
</g>
</svg>
