<?xml version="1.0" encoding="UTF-8" standalone="no"?>
<!DOCTYPE svg PUBLIC "-//W3C//DTD SVG 1.1//EN"
 "http://www.w3.org/Graphics/SVG/1.1/DTD/svg11.dtd">
<!-- Generated by graphviz version 2.43.0 (0)
 -->
<!-- Title: Graphical Class Hierarchy Pages: 1 -->
<svg width="293pt" height="494pt"
 viewBox="0.00 0.00 293.00 493.50" xmlns="http://www.w3.org/2000/svg" xmlns:xlink="http://www.w3.org/1999/xlink">
<g id="graph0" class="graph" transform="scale(1 1) rotate(0) translate(4 489.5)">
<title>Graphical Class Hierarchy</title>
<!-- Node0 -->
<g id="Node000000" class="node">
<title>Node0</title>
<g id="a_Node000000"><a xlink:title=" ">
<polygon fill="#e0e0e0" stroke="#999999" points="71,-263.5 0,-263.5 0,-244.5 71,-244.5 71,-263.5"/>
<text text-anchor="middle" x="35.5" y="-251.5" font-family="Helvetica,sans-Serif" font-size="10.00">BaseModel</text>
</a>
</g>
</g>
<!-- Node1 -->
<g id="Node000001" class="node">
<title>Node1</title>
<g id="a_Node000001"><a xlink:href="classauth_1_1DeleteUserRequest.html" target="_top" xlink:title=" ">
<polygon fill="white" stroke="#666666" points="264,-485.5 128,-485.5 128,-466.5 264,-466.5 264,-485.5"/>
<text text-anchor="middle" x="196" y="-473.5" font-family="Helvetica,sans-Serif" font-size="10.00">auth.DeleteUserRequest</text>
</a>
</g>
</g>
<!-- Node0&#45;&gt;Node1 -->
<g id="edge5_Node000000_Node000001" class="edge">
<title>Node0&#45;&gt;Node1</title>
<g id="a_edge5_Node000000_Node000001"><a xlink:title=" ">
<path fill="none" stroke="#63b8ff" d="M37.18,-274.06C39.73,-315.22 51.63,-409.45 107,-458 112.98,-463.24 120.07,-467.11 127.59,-469.95"/>
<polygon fill="#63b8ff" stroke="#63b8ff" points="40.67,-273.75 36.68,-263.93 33.68,-274.09 40.67,-273.75"/>
</a>
</g>
</g>
<!-- Node2 -->
<g id="Node000002" class="node">
<title>Node2</title>
<g id="a_Node000002"><a xlink:href="classauth_1_1DeleteUserResponse.html" target="_top" xlink:title=" ">
<polygon fill="white" stroke="#666666" points="267.5,-448.5 124.5,-448.5 124.5,-429.5 267.5,-429.5 267.5,-448.5"/>
<text text-anchor="middle" x="196" y="-436.5" font-family="Helvetica,sans-Serif" font-size="10.00">auth.DeleteUserResponse</text>
</a>
</g>
</g>
<!-- Node0&#45;&gt;Node2 -->
<g id="edge6_Node000000_Node000002" class="edge">
<title>Node0&#45;&gt;Node2</title>
<g id="a_edge6_Node000000_Node000002"><a xlink:title=" ">
<path fill="none" stroke="#63b8ff" d="M38.89,-273.8C44.25,-309.16 60.66,-383.02 107,-421 112.19,-425.25 118.11,-428.58 124.39,-431.18"/>
<polygon fill="#63b8ff" stroke="#63b8ff" points="42.34,-273.2 37.51,-263.76 35.4,-274.15 42.34,-273.2"/>
</a>
</g>
</g>
<!-- Node3 -->
<g id="Node000003" class="node">
<title>Node3</title>
<g id="a_Node000003"><a xlink:href="classauth_1_1LoginRequest.html" target="_top" xlink:title=" ">
<polygon fill="white" stroke="#666666" points="249.5,-411.5 142.5,-411.5 142.5,-392.5 249.5,-392.5 249.5,-411.5"/>
<text text-anchor="middle" x="196" y="-399.5" font-family="Helvetica,sans-Serif" font-size="10.00">auth.LoginRequest</text>
</a>
</g>
</g>
<!-- Node0&#45;&gt;Node3 -->
<g id="edge7_Node000000_Node000003" class="edge">
<title>Node0&#45;&gt;Node3</title>
<g id="a_edge7_Node000000_Node000003"><a xlink:title=" ">
<path fill="none" stroke="#63b8ff" d="M41.39,-273.44C49.71,-302.34 69.5,-356.21 107,-384 117.15,-391.52 129.68,-396.08 142.08,-398.81"/>
<polygon fill="#63b8ff" stroke="#63b8ff" points="44.74,-272.43 38.74,-263.69 37.98,-274.26 44.74,-272.43"/>
</a>
</g>
</g>
<!-- Node4 -->
<g id="Node000004" class="node">
<title>Node4</title>
<g id="a_Node000004"><a xlink:href="classauth_1_1LoginResponse.html" target="_top" xlink:title=" ">
<polygon fill="white" stroke="#666666" points="253.5,-374.5 138.5,-374.5 138.5,-355.5 253.5,-355.5 253.5,-374.5"/>
<text text-anchor="middle" x="196" y="-362.5" font-family="Helvetica,sans-Serif" font-size="10.00">auth.LoginResponse</text>
</a>
</g>
</g>
<!-- Node0&#45;&gt;Node4 -->
<g id="edge8_Node000000_Node000004" class="edge">
<title>Node0&#45;&gt;Node4</title>
<g id="a_edge8_Node000000_Node000004"><a xlink:title=" ">
<path fill="none" stroke="#63b8ff" d="M45.49,-272.85C56.75,-294.34 78.14,-328.83 107,-347 116.37,-352.9 127.31,-356.91 138.23,-359.63"/>
<polygon fill="#63b8ff" stroke="#63b8ff" points="48.52,-271.1 40.91,-263.74 42.27,-274.25 48.52,-271.1"/>
</a>
</g>
</g>
<!-- Node5 -->
<g id="Node000005" class="node">
<title>Node5</title>
<g id="a_Node000005"><a xlink:href="classauth_1_1PasswordChangeRequest.html" target="_top" xlink:title=" ">
<polygon fill="white" stroke="#666666" points="278,-337.5 114,-337.5 114,-318.5 278,-318.5 278,-337.5"/>
<text text-anchor="middle" x="196" y="-325.5" font-family="Helvetica,sans-Serif" font-size="10.00">auth.PasswordChangeRequest</text>
</a>
</g>
</g>
<!-- Node0&#45;&gt;Node5 -->
<g id="edge9_Node000000_Node000005" class="edge">
<title>Node0&#45;&gt;Node5</title>
<g id="a_edge9_Node000000_Node000005"><a xlink:title=" ">
<path fill="none" stroke="#63b8ff" d="M52.98,-270.85C66.36,-283.55 86.35,-300.37 107,-310 114.35,-313.43 122.34,-316.21 130.42,-318.46"/>
<polygon fill="#63b8ff" stroke="#63b8ff" points="55.14,-268.07 45.55,-263.58 50.25,-273.08 55.14,-268.07"/>
</a>
</g>
</g>
<!-- Node6 -->
<g id="Node000006" class="node">
<title>Node6</title>
<g id="a_Node000006"><a xlink:href="classauth_1_1PasswordChangeResponse.html" target="_top" xlink:title=" ">
<polygon fill="white" stroke="#666666" points="281.5,-300.5 110.5,-300.5 110.5,-281.5 281.5,-281.5 281.5,-300.5"/>
<text text-anchor="middle" x="196" y="-288.5" font-family="Helvetica,sans-Serif" font-size="10.00">auth.PasswordChangeResponse</text>
</a>
</g>
</g>
<!-- Node0&#45;&gt;Node6 -->
<g id="edge10_Node000000_Node000006" class="edge">
<title>Node0&#45;&gt;Node6</title>
<g id="a_edge10_Node000000_Node000006"><a xlink:title=" ">
<path fill="none" stroke="#63b8ff" d="M79.94,-266.16C88.87,-268.53 98.22,-270.92 107,-273 119.44,-275.95 132.94,-278.85 145.55,-281.44"/>
<polygon fill="#63b8ff" stroke="#63b8ff" points="80.67,-262.73 70.1,-263.51 78.85,-269.49 80.67,-262.73"/>
</a>
</g>
</g>
<!-- Node7 -->
<g id="Node000007" class="node">
<title>Node7</title>
<g id="a_Node000007"><a xlink:href="classauth_1_1RefreshRequest.html" target="_top" xlink:title=" ">
<polygon fill="white" stroke="#666666" points="255.5,-263.5 136.5,-263.5 136.5,-244.5 255.5,-244.5 255.5,-263.5"/>
<text text-anchor="middle" x="196" y="-251.5" font-family="Helvetica,sans-Serif" font-size="10.00">auth.RefreshRequest</text>
</a>
</g>
</g>
<!-- Node0&#45;&gt;Node7 -->
<g id="edge11_Node000000_Node000007" class="edge">
<title>Node0&#45;&gt;Node7</title>
<g id="a_edge11_Node000000_Node000007"><a xlink:title=" ">
<path fill="none" stroke="#63b8ff" d="M81.52,-254C98.55,-254 118.2,-254 136.31,-254"/>
<polygon fill="#63b8ff" stroke="#63b8ff" points="81.28,-250.5 71.28,-254 81.28,-257.5 81.28,-250.5"/>
</a>
</g>
</g>
<!-- Node8 -->
<g id="Node000008" class="node">
<title>Node8</title>
<g id="a_Node000008"><a xlink:href="classauth_1_1RefreshResponse.html" target="_top" xlink:title=" ">
<polygon fill="white" stroke="#666666" points="259,-226.5 133,-226.5 133,-207.5 259,-207.5 259,-226.5"/>
<text text-anchor="middle" x="196" y="-214.5" font-family="Helvetica,sans-Serif" font-size="10.00">auth.RefreshResponse</text>
</a>
</g>
</g>
<!-- Node0&#45;&gt;Node8 -->
<g id="edge12_Node000000_Node000008" class="edge">
<title>Node0&#45;&gt;Node8</title>
<g id="a_edge12_Node000000_Node000008"><a xlink:title=" ">
<path fill="none" stroke="#63b8ff" d="M81.09,-242.35C89.67,-240.18 98.6,-237.98 107,-236 120.69,-232.78 135.63,-229.47 149.25,-226.54"/>
<polygon fill="#63b8ff" stroke="#63b8ff" points="80.05,-239 71.22,-244.86 81.77,-245.78 80.05,-239"/>
</a>
</g>
</g>
<!-- Node9 -->
<g id="Node000009" class="node">
<title>Node9</title>
<g id="a_Node000009"><a xlink:href="classauth_1_1UserCreateRequest.html" target="_top" xlink:title=" ">
<polygon fill="white" stroke="#666666" points="264,-189.5 128,-189.5 128,-170.5 264,-170.5 264,-189.5"/>
<text text-anchor="middle" x="196" y="-177.5" font-family="Helvetica,sans-Serif" font-size="10.00">auth.UserCreateRequest</text>
</a>
</g>
</g>
<!-- Node0&#45;&gt;Node9 -->
<g id="edge13_Node000000_Node000009" class="edge">
<title>Node0&#45;&gt;Node9</title>
<g id="a_edge13_Node000000_Node000009"><a xlink:title=" ">
<path fill="none" stroke="#63b8ff" d="M53.52,-237.09C66.95,-224.71 86.74,-208.48 107,-199 115.21,-195.16 124.22,-192.08 133.24,-189.62"/>
<polygon fill="#63b8ff" stroke="#63b8ff" points="50.87,-234.78 46.04,-244.21 55.69,-239.86 50.87,-234.78"/>
</a>
</g>
</g>
<!-- Node10 -->
<g id="Node000010" class="node">
<title>Node10</title>
<g id="a_Node000010"><a xlink:href="classauth_1_1UserResponse.html" target="_top" xlink:title=" ">
<polygon fill="white" stroke="#666666" points="251.5,-152.5 140.5,-152.5 140.5,-133.5 251.5,-133.5 251.5,-152.5"/>
<text text-anchor="middle" x="196" y="-140.5" font-family="Helvetica,sans-Serif" font-size="10.00">auth.UserResponse</text>
</a>
</g>
</g>
<!-- Node0&#45;&gt;Node10 -->
<g id="edge14_Node000000_Node000010" class="edge">
<title>Node0&#45;&gt;Node10</title>
<g id="a_edge14_Node000000_Node000010"><a xlink:title=" ">
<path fill="none" stroke="#63b8ff" d="M45.57,-235.4C56.92,-214.2 78.39,-180.13 107,-162 116.9,-155.73 128.55,-151.5 140.08,-148.65"/>
<polygon fill="#63b8ff" stroke="#63b8ff" points="42.41,-233.9 40.96,-244.4 48.64,-237.1 42.41,-233.9"/>
</a>
</g>
</g>
<!-- Node11 -->
<g id="Node000011" class="node">
<title>Node11</title>
<g id="a_Node000011"><a xlink:href="classbackend_1_1server_1_1ResearchRequest.html" target="_top" xlink:title=" ">
<polygon fill="white" stroke="#666666" points="285,-115.5 107,-115.5 107,-96.5 285,-96.5 285,-115.5"/>
<text text-anchor="middle" x="196" y="-103.5" font-family="Helvetica,sans-Serif" font-size="10.00">backend.server.ResearchRequest</text>
</a>
</g>
</g>
<!-- Node0&#45;&gt;Node11 -->
<g id="edge15_Node000000_Node000011" class="edge">
<title>Node0&#45;&gt;Node11</title>
<g id="a_edge15_Node000000_Node000011"><a xlink:title=" ">
<path fill="none" stroke="#63b8ff" d="M41.47,-234.76C49.9,-206.14 69.83,-152.77 107,-125 112.13,-121.16 117.88,-118.07 123.91,-115.58"/>
<polygon fill="#63b8ff" stroke="#63b8ff" points="38.09,-233.84 38.79,-244.41 44.84,-235.71 38.09,-233.84"/>
</a>
</g>
</g>
<!-- Node12 -->
<g id="Node000012" class="node">
<title>Node12</title>
<g id="a_Node000012"><a xlink:href="classgpt__researcher_1_1utils_1_1validators_1_1Subtopic.html" target="_top" xlink:title=" ">
<polygon fill="white" stroke="#666666" points="279.5,-78 112.5,-78 112.5,-48 279.5,-48 279.5,-78"/>
<text text-anchor="start" x="120.5" y="-66" font-family="Helvetica,sans-Serif" font-size="10.00">gpt_researcher.utils.validators.</text>
<text text-anchor="middle" x="196" y="-55" font-family="Helvetica,sans-Serif" font-size="10.00">Subtopic</text>
</a>
</g>
</g>
<!-- Node0&#45;&gt;Node12 -->
<g id="edge16_Node000000_Node000012" class="edge">
<title>Node0&#45;&gt;Node12</title>
<g id="a_edge16_Node000000_Node000012"><a xlink:title=" ">
<path fill="none" stroke="#63b8ff" d="M39.29,-234.2C45.24,-199.41 62.49,-127.27 107,-88 111.41,-84.11 116.38,-80.83 121.66,-78.05"/>
<polygon fill="#63b8ff" stroke="#63b8ff" points="35.77,-234.05 37.68,-244.47 42.68,-235.13 35.77,-234.05"/>
</a>
</g>
</g>
<!-- Node13 -->
<g id="Node000013" class="node">
<title>Node13</title>
<g id="a_Node000013"><a xlink:href="classgpt__researcher_1_1utils_1_1validators_1_1Subtopics.html" target="_top" xlink:title=" ">
<polygon fill="white" stroke="#666666" points="279.5,-30 112.5,-30 112.5,0 279.5,0 279.5,-30"/>
<text text-anchor="start" x="120.5" y="-18" font-family="Helvetica,sans-Serif" font-size="10.00">gpt_researcher.utils.validators.</text>
<text text-anchor="middle" x="196" y="-7" font-family="Helvetica,sans-Serif" font-size="10.00">Subtopics</text>
</a>
</g>
</g>
<!-- Node0&#45;&gt;Node13 -->
<g id="edge17_Node000000_Node000013" class="edge">
<title>Node0&#45;&gt;Node13</title>
<g id="a_edge17_Node000000_Node000013"><a xlink:title=" ">
<path fill="none" stroke="#63b8ff" d="M37.04,-234.05C39.3,-191.76 50.67,-92.55 107,-39 110.56,-35.62 114.54,-32.7 118.8,-30.19"/>
<polygon fill="#63b8ff" stroke="#63b8ff" points="33.54,-234.04 36.62,-244.17 40.53,-234.33 33.54,-234.04"/>
</a>
</g>
</g>
</g>
</svg>
