<?xml version="1.0" encoding="UTF-8" standalone="no"?>
<!DOCTYPE svg PUBLIC "-//W3C//DTD SVG 1.1//EN"
 "http://www.w3.org/Graphics/SVG/1.1/DTD/svg11.dtd">
<!-- Generated by graphviz version 2.43.0 (0)
 -->
<!-- Title: scrape_skills.scrape_pdf_with_arxiv Pages: 1 -->
<svg width="485pt" height="38pt"
 viewBox="0.00 0.00 485.00 38.00" xmlns="http://www.w3.org/2000/svg" xmlns:xlink="http://www.w3.org/1999/xlink">
<g id="graph0" class="graph" transform="scale(1 1) rotate(0) translate(4 34)">
<title>scrape_skills.scrape_pdf_with_arxiv</title>
<!-- Node1 -->
<g id="Node000001" class="node">
<title>Node1</title>
<g id="a_Node000001"><a xlink:title=" ">
<polygon fill="#999999" stroke="#666666" points="477,-30 362,-30 362,0 477,0 477,-30"/>
<text text-anchor="start" x="370" y="-18" font-family="Helvetica,sans-Serif" font-size="10.00">scrape_skills.scrape</text>
<text text-anchor="middle" x="419.5" y="-7" font-family="Helvetica,sans-Serif" font-size="10.00">_pdf_with_arxiv</text>
</a>
</g>
</g>
<!-- Node2 -->
<g id="Node000002" class="node">
<title>Node2</title>
<g id="a_Node000002"><a xlink:href="namespaceweb__scrape.html#a14d5ccdaf877accf6ecc7030486728e5" target="_top" xlink:title=" ">
<polygon fill="white" stroke="#666666" points="326,-30 192,-30 192,0 326,0 326,-30"/>
<text text-anchor="start" x="200" y="-18" font-family="Helvetica,sans-Serif" font-size="10.00">web_scrape.scrape_text</text>
<text text-anchor="middle" x="259" y="-7" font-family="Helvetica,sans-Serif" font-size="10.00">_with_selenium</text>
</a>
</g>
</g>
<!-- Node1&#45;&gt;Node2 -->
<g id="edge1_Node000001_Node000002" class="edge">
<title>Node1&#45;&gt;Node2</title>
<g id="a_edge1_Node000001_Node000002"><a xlink:title=" ">
<path fill="none" stroke="#63b8ff" d="M351.56,-15C343.13,-15 334.51,-15 326.1,-15"/>
<polygon fill="#63b8ff" stroke="#63b8ff" points="351.73,-18.5 361.73,-15 351.73,-11.5 351.73,-18.5"/>
</a>
</g>
</g>
<!-- Node3 -->
<g id="Node000003" class="node">
<title>Node3</title>
<g id="a_Node000003"><a xlink:href="namespaceweb__scrape.html#a11e568eae6f4fcc57b34729e906cfe1d" target="_top" xlink:title=" ">
<polygon fill="white" stroke="#666666" points="156,-24.5 0,-24.5 0,-5.5 156,-5.5 156,-24.5"/>
<text text-anchor="middle" x="78" y="-12.5" font-family="Helvetica,sans-Serif" font-size="10.00">web_scrape.browse_website</text>
</a>
</g>
</g>
<!-- Node2&#45;&gt;Node3 -->
<g id="edge2_Node000002_Node000003" class="edge">
<title>Node2&#45;&gt;Node3</title>
<g id="a_edge2_Node000002_Node000003"><a xlink:title=" ">
<path fill="none" stroke="#63b8ff" d="M181.63,-15C173.16,-15 164.54,-15 156.06,-15"/>
<polygon fill="#63b8ff" stroke="#63b8ff" points="181.86,-18.5 191.86,-15 181.86,-11.5 181.86,-18.5"/>
</a>
</g>
</g>
</g>
</svg>
