<?xml version="1.0" encoding="UTF-8" standalone="no"?>
<!DOCTYPE svg PUBLIC "-//W3C//DTD SVG 1.1//EN"
 "http://www.w3.org/Graphics/SVG/1.1/DTD/svg11.dtd">
<!-- Generated by graphviz version 2.43.0 (0)
 -->
<!-- Title: web_scrape.browse_website Pages: 1 -->
<svg width="501pt" height="209pt"
 viewBox="0.00 0.00 501.00 208.50" xmlns="http://www.w3.org/2000/svg" xmlns:xlink="http://www.w3.org/1999/xlink">
<g id="graph0" class="graph" transform="scale(1 1) rotate(0) translate(4 204.5)">
<title>web_scrape.browse_website</title>
<!-- Node1 -->
<g id="Node000001" class="node">
<title>Node1</title>
<g id="a_Node000001"><a xlink:title=" ">
<polygon fill="#999999" stroke="#666666" points="156,-141.5 0,-141.5 0,-122.5 156,-122.5 156,-141.5"/>
<text text-anchor="middle" x="78" y="-129.5" font-family="Helvetica,sans-Serif" font-size="10.00">web_scrape.browse_website</text>
</a>
</g>
</g>
<!-- Node2 -->
<g id="Node000002" class="node">
<title>Node2</title>
<g id="a_Node000002"><a xlink:href="namespaceweb__scrape.html#a4ca49a63b7463a7b860ea919a026a80a" target="_top" xlink:title=" ">
<polygon fill="white" stroke="#666666" points="332.5,-200.5 198.5,-200.5 198.5,-181.5 332.5,-181.5 332.5,-200.5"/>
<text text-anchor="middle" x="265.5" y="-188.5" font-family="Helvetica,sans-Serif" font-size="10.00">web_scrape.add_header</text>
</a>
</g>
</g>
<!-- Node1&#45;&gt;Node2 -->
<g id="edge1_Node000001_Node000002" class="edge">
<title>Node1&#45;&gt;Node2</title>
<g id="a_edge1_Node000001_Node000002"><a xlink:title=" ">
<path fill="none" stroke="#63b8ff" d="M103,-141.54C125.71,-150.36 160.86,-163.51 192,-173 198.67,-175.03 205.73,-177 212.73,-178.85"/>
<polygon fill="#63b8ff" stroke="#63b8ff" points="212.33,-182.36 222.89,-181.46 214.07,-175.58 212.33,-182.36"/>
</a>
</g>
</g>
<!-- Node3 -->
<g id="Node000003" class="node">
<title>Node3</title>
<g id="a_Node000003"><a xlink:href="namespaceweb__scrape.html#aa1548c065f8f535d2422353c35a0f8bf" target="_top" xlink:title=" ">
<polygon fill="white" stroke="#666666" points="339,-163.5 192,-163.5 192,-144.5 339,-144.5 339,-163.5"/>
<text text-anchor="middle" x="265.5" y="-151.5" font-family="Helvetica,sans-Serif" font-size="10.00">web_scrape.close_browser</text>
</a>
</g>
</g>
<!-- Node1&#45;&gt;Node3 -->
<g id="edge2_Node000001_Node000003" class="edge">
<title>Node1&#45;&gt;Node3</title>
<g id="a_edge2_Node000001_Node000003"><a xlink:title=" ">
<path fill="none" stroke="#63b8ff" d="M156.06,-141.14C164.57,-142.15 173.27,-143.18 181.85,-144.2"/>
<polygon fill="#63b8ff" stroke="#63b8ff" points="181.5,-147.68 191.85,-145.38 182.33,-140.73 181.5,-147.68"/>
</a>
</g>
</g>
<!-- Node4 -->
<g id="Node000004" class="node">
<title>Node4</title>
<g id="a_Node000004"><a xlink:href="namespaceweb__scrape.html#a5866c2091ff9973cf334835bf009981e" target="_top" xlink:title=" ">
<polygon fill="white" stroke="#666666" points="334.5,-126 196.5,-126 196.5,-96 334.5,-96 334.5,-126"/>
<text text-anchor="start" x="204.5" y="-114" font-family="Helvetica,sans-Serif" font-size="10.00">web_scrape.scrape_links</text>
<text text-anchor="middle" x="265.5" y="-103" font-family="Helvetica,sans-Serif" font-size="10.00">_with_selenium</text>
</a>
</g>
</g>
<!-- Node1&#45;&gt;Node4 -->
<g id="edge3_Node000001_Node000004" class="edge">
<title>Node1&#45;&gt;Node4</title>
<g id="a_edge3_Node000001_Node000004"><a xlink:title=" ">
<path fill="none" stroke="#63b8ff" d="M156.06,-123.28C165.96,-122.16 176.1,-121.01 186.02,-119.88"/>
<polygon fill="#63b8ff" stroke="#63b8ff" points="186.72,-123.33 196.26,-118.72 185.93,-116.37 186.72,-123.33"/>
</a>
</g>
</g>
<!-- Node5 -->
<g id="Node000005" class="node">
<title>Node5</title>
<g id="a_Node000005"><a xlink:href="namespaceweb__scrape.html#a14d5ccdaf877accf6ecc7030486728e5" target="_top" xlink:title=" ">
<polygon fill="white" stroke="#666666" points="332.5,-78 198.5,-78 198.5,-48 332.5,-48 332.5,-78"/>
<text text-anchor="start" x="206.5" y="-66" font-family="Helvetica,sans-Serif" font-size="10.00">web_scrape.scrape_text</text>
<text text-anchor="middle" x="265.5" y="-55" font-family="Helvetica,sans-Serif" font-size="10.00">_with_selenium</text>
</a>
</g>
</g>
<!-- Node1&#45;&gt;Node5 -->
<g id="edge4_Node000001_Node000005" class="edge">
<title>Node1&#45;&gt;Node5</title>
<g id="a_edge4_Node000001_Node000005"><a xlink:title=" ">
<path fill="none" stroke="#63b8ff" d="M101.79,-122.46C124.5,-113.07 160.45,-98.49 192,-87 197.14,-85.13 202.5,-83.24 207.89,-81.38"/>
<polygon fill="#63b8ff" stroke="#63b8ff" points="209.22,-84.62 217.56,-78.09 206.96,-78 209.22,-84.62"/>
</a>
</g>
</g>
<!-- Node6 -->
<g id="Node000006" class="node">
<title>Node6</title>
<g id="a_Node000006"><a xlink:href="namespaceweb__scrape.html#af8e21857763f45f8dd875e3a80c1b451" target="_top" xlink:title=" ">
<polygon fill="white" stroke="#666666" points="493,-115.5 375,-115.5 375,-96.5 493,-96.5 493,-115.5"/>
<text text-anchor="middle" x="434" y="-103.5" font-family="Helvetica,sans-Serif" font-size="10.00">web_scrape.get_text</text>
</a>
</g>
</g>
<!-- Node5&#45;&gt;Node6 -->
<g id="edge5_Node000005_Node000006" class="edge">
<title>Node5&#45;&gt;Node6</title>
<g id="a_edge5_Node000005_Node000006"><a xlink:title=" ">
<path fill="none" stroke="#63b8ff" d="M324.73,-78.04C344.77,-83.21 366.93,-88.94 385.96,-93.85"/>
<polygon fill="#63b8ff" stroke="#63b8ff" points="385.32,-97.3 395.88,-96.41 387.07,-90.52 385.32,-97.3"/>
</a>
</g>
</g>
<!-- Node7 -->
<g id="Node000007" class="node">
<title>Node7</title>
<g id="a_Node000007"><a xlink:href="namespacescrape__skills.html#a834d3a6a7957c6c45ea14406a6f6a754" target="_top" xlink:title=" ">
<polygon fill="white" stroke="#666666" points="491.5,-78 376.5,-78 376.5,-48 491.5,-48 491.5,-78"/>
<text text-anchor="start" x="384.5" y="-66" font-family="Helvetica,sans-Serif" font-size="10.00">scrape_skills.scrape</text>
<text text-anchor="middle" x="434" y="-55" font-family="Helvetica,sans-Serif" font-size="10.00">_pdf_with_arxiv</text>
</a>
</g>
</g>
<!-- Node5&#45;&gt;Node7 -->
<g id="edge6_Node000005_Node000007" class="edge">
<title>Node5&#45;&gt;Node7</title>
<g id="a_edge6_Node000005_Node000007"><a xlink:title=" ">
<path fill="none" stroke="#63b8ff" d="M332.78,-63C343.82,-63 355.28,-63 366.33,-63"/>
<polygon fill="#63b8ff" stroke="#63b8ff" points="366.34,-66.5 376.34,-63 366.34,-59.5 366.34,-66.5"/>
</a>
</g>
</g>
<!-- Node8 -->
<g id="Node000008" class="node">
<title>Node8</title>
<g id="a_Node000008"><a xlink:href="namespacescrape__skills.html#a1a5398a51f4da8236daecf9fe86ecf27" target="_top" xlink:title=" ">
<polygon fill="white" stroke="#666666" points="491.5,-30 376.5,-30 376.5,0 491.5,0 491.5,-30"/>
<text text-anchor="start" x="384.5" y="-18" font-family="Helvetica,sans-Serif" font-size="10.00">scrape_skills.scrape</text>
<text text-anchor="middle" x="434" y="-7" font-family="Helvetica,sans-Serif" font-size="10.00">_pdf_with_pymupdf</text>
</a>
</g>
</g>
<!-- Node5&#45;&gt;Node8 -->
<g id="edge7_Node000005_Node000008" class="edge">
<title>Node5&#45;&gt;Node8</title>
<g id="a_edge7_Node000005_Node000008"><a xlink:title=" ">
<path fill="none" stroke="#63b8ff" d="M318.72,-47.94C335.31,-43.16 353.81,-37.83 371.01,-32.87"/>
<polygon fill="#63b8ff" stroke="#63b8ff" points="372.32,-36.14 380.96,-30 370.38,-29.41 372.32,-36.14"/>
</a>
</g>
</g>
</g>
</svg>
