<?xml version="1.0" encoding="UTF-8" standalone="no"?>
<!DOCTYPE svg PUBLIC "-//W3C//DTD SVG 1.1//EN"
 "http://www.w3.org/Graphics/SVG/1.1/DTD/svg11.dtd">
<!-- Generated by graphviz version 2.43.0 (0)
 -->
<!-- Title: memory.research.ResearchState Pages: 1 -->
<svg width="374pt" height="230pt"
 viewBox="0.00 0.00 373.50 230.00" xmlns="http://www.w3.org/2000/svg" xmlns:xlink="http://www.w3.org/1999/xlink">
<g id="graph0" class="graph" transform="scale(1 1) rotate(0) translate(4 226)">
<title>memory.research.ResearchState</title>
<!-- Node1 -->
<g id="Node000001" class="node">
<title>Node1</title>
<g id="a_Node000001"><a xlink:title=" ">
<polygon fill="#999999" stroke="transparent" points="200,-60 57,-60 57,0 200,0 200,-60"/>
<text text-anchor="start" x="62.5" y="-48" font-family="Helvetica,sans-Serif" font-size="10.00">memory.research.Research</text>
<text text-anchor="start" x="116" y="-37" font-family="Helvetica,sans-Serif" font-size="10.00">State</text>
<text text-anchor="start" x="127" y="-22" font-family="Helvetica,sans-Serif" font-size="10.00"> </text>
<text text-anchor="start" x="127" y="-7" font-family="Helvetica,sans-Serif" font-size="10.00"> </text>
<polygon fill="#666666" stroke="#666666" points="57.5,-32 57.5,-32 200.5,-32 200.5,-32 57.5,-32"/>
<polygon fill="#666666" stroke="#666666" points="57.5,-17 57.5,-17 200.5,-17 200.5,-17 57.5,-17"/>
<polygon fill="none" stroke="#666666" points="57,0 57,-60 200,-60 200,0 57,0"/>
</a>
</g>
</g>
<!-- Node2 -->
<g id="Node000002" class="node">
<title>Node2</title>
<g id="a_Node000002"><a xlink:title=" ">
<polygon fill="white" stroke="transparent" points="59,-222 0,-222 0,-173 59,-173 59,-222"/>
<text text-anchor="start" x="5.5" y="-209.5" font-family="Helvetica,sans-Serif" font-size="10.00">TypedDict</text>
<text text-anchor="start" x="28" y="-194.5" font-family="Helvetica,sans-Serif" font-size="10.00"> </text>
<text text-anchor="start" x="28" y="-179.5" font-family="Helvetica,sans-Serif" font-size="10.00"> </text>
<polygon fill="#666666" stroke="#666666" points="0.5,-204.5 0.5,-204.5 59.5,-204.5 59.5,-204.5 0.5,-204.5"/>
<polygon fill="#666666" stroke="#666666" points="0.5,-189.5 0.5,-189.5 59.5,-189.5 59.5,-189.5 0.5,-189.5"/>
<polygon fill="none" stroke="#666666" points="0,-173 0,-222 59,-222 59,-173 0,-173"/>
</a>
</g>
</g>
<!-- Node2&#45;&gt;Node1 -->
<g id="edge9_Node000001_Node000002" class="edge">
<title>Node2&#45;&gt;Node1</title>
<g id="a_edge9_Node000001_Node000002"><a xlink:title=" ">
<path fill="none" stroke="#63b8ff" d="M40.31,-163.26C49.22,-138.52 63.34,-104.57 81.5,-78 85.73,-71.81 90.84,-65.73 96.12,-60.11"/>
<polygon fill="none" stroke="#63b8ff" points="36.93,-162.32 36.92,-172.92 43.53,-164.64 36.93,-162.32"/>
</a>
</g>
</g>
<!-- Node3 -->
<g id="Node000003" class="node">
<title>Node3</title>
<g id="a_Node000003"><a xlink:title=" ">
<polygon fill="white" stroke="transparent" points="106,-222 77,-222 77,-173 106,-173 106,-222"/>
<text text-anchor="start" x="82.5" y="-209.5" font-family="Helvetica,sans-Serif" font-size="10.00">dict</text>
<text text-anchor="start" x="90" y="-194.5" font-family="Helvetica,sans-Serif" font-size="10.00"> </text>
<text text-anchor="start" x="90" y="-179.5" font-family="Helvetica,sans-Serif" font-size="10.00"> </text>
<polygon fill="#666666" stroke="#666666" points="77.5,-204.5 77.5,-204.5 106.5,-204.5 106.5,-204.5 77.5,-204.5"/>
<polygon fill="#666666" stroke="#666666" points="77.5,-189.5 77.5,-189.5 106.5,-189.5 106.5,-189.5 77.5,-189.5"/>
<polygon fill="none" stroke="#666666" points="77,-173 77,-222 106,-222 106,-173 77,-173"/>
</a>
</g>
</g>
<!-- Node3&#45;&gt;Node1 -->
<g id="edge10_Node000001_Node000003" class="edge">
<title>Node3&#45;&gt;Node1</title>
<g id="a_edge10_Node000001_Node000003"><a xlink:title=" ">
<path fill="none" stroke="#63b8ff" d="M87.36,-172.6C84.11,-148.12 81.73,-109.33 92.5,-78 93.37,-75.47 94.43,-72.97 95.64,-70.52"/>
<polygon fill="none" stroke="#63b8ff" points="95.65,-70.5 95.24,-63.3 101.73,-60.16 102.14,-67.36 95.65,-70.5"/>
</a>
</g>
<text text-anchor="middle" x="118" y="-119.5" font-family="Helvetica,sans-Serif" font-size="10.00" fill="grey"> +headers</text>
<text text-anchor="middle" x="118" y="-108.5" font-family="Helvetica,sans-Serif" font-size="10.00" fill="grey">+task</text>
</g>
<!-- Node4 -->
<g id="Node000004" class="node">
<title>Node4</title>
<g id="a_Node000004"><a xlink:title=" ">
<polygon fill="white" stroke="transparent" points="177,-222 154,-222 154,-173 177,-173 177,-222"/>
<text text-anchor="start" x="159.5" y="-209.5" font-family="Helvetica,sans-Serif" font-size="10.00">str</text>
<text text-anchor="start" x="164" y="-194.5" font-family="Helvetica,sans-Serif" font-size="10.00"> </text>
<text text-anchor="start" x="164" y="-179.5" font-family="Helvetica,sans-Serif" font-size="10.00"> </text>
<polygon fill="#666666" stroke="#666666" points="154.5,-204.5 154.5,-204.5 177.5,-204.5 177.5,-204.5 154.5,-204.5"/>
<polygon fill="#666666" stroke="#666666" points="154.5,-189.5 154.5,-189.5 177.5,-189.5 177.5,-189.5 154.5,-189.5"/>
<polygon fill="none" stroke="#666666" points="154,-173 154,-222 177,-222 177,-173 154,-173"/>
</a>
</g>
</g>
<!-- Node4&#45;&gt;Node1 -->
<g id="edge11_Node000001_Node000004" class="edge">
<title>Node4&#45;&gt;Node1</title>
<g id="a_edge11_Node000001_Node000004"><a xlink:title=" ">
<path fill="none" stroke="#63b8ff" d="M161.98,-172.7C158.21,-148.64 151.66,-110.47 143.5,-78 143,-76 142.46,-73.96 141.89,-71.91"/>
<polygon fill="none" stroke="#63b8ff" points="141.82,-71.68 136.29,-67.06 138.43,-60.17 143.97,-64.8 141.82,-71.68"/>
</a>
</g>
<text text-anchor="middle" x="206.5" y="-147" font-family="Helvetica,sans-Serif" font-size="10.00" fill="grey"> +conclusion</text>
<text text-anchor="middle" x="206.5" y="-136" font-family="Helvetica,sans-Serif" font-size="10.00" fill="grey">+date</text>
<text text-anchor="middle" x="206.5" y="-125" font-family="Helvetica,sans-Serif" font-size="10.00" fill="grey">+initial_research</text>
<text text-anchor="middle" x="206.5" y="-114" font-family="Helvetica,sans-Serif" font-size="10.00" fill="grey">+introduction</text>
<text text-anchor="middle" x="206.5" y="-103" font-family="Helvetica,sans-Serif" font-size="10.00" fill="grey">+report</text>
<text text-anchor="middle" x="206.5" y="-92" font-family="Helvetica,sans-Serif" font-size="10.00" fill="grey">+table_of_contents</text>
<text text-anchor="middle" x="206.5" y="-81" font-family="Helvetica,sans-Serif" font-size="10.00" fill="grey">+title</text>
</g>
<!-- Node5 -->
<g id="Node000005" class="node">
<title>Node5</title>
<g id="a_Node000005"><a xlink:title=" ">
<polygon fill="white" stroke="transparent" points="298.5,-222 270.5,-222 270.5,-173 298.5,-173 298.5,-222"/>
<text text-anchor="start" x="275.5" y="-209.5" font-family="Helvetica,sans-Serif" font-size="10.00">List</text>
<text text-anchor="start" x="282.5" y="-194.5" font-family="Helvetica,sans-Serif" font-size="10.00"> </text>
<text text-anchor="start" x="282.5" y="-179.5" font-family="Helvetica,sans-Serif" font-size="10.00"> </text>
<polygon fill="#666666" stroke="#666666" points="270.5,-204.5 270.5,-204.5 298.5,-204.5 298.5,-204.5 270.5,-204.5"/>
<polygon fill="#666666" stroke="#666666" points="270.5,-189.5 270.5,-189.5 298.5,-189.5 298.5,-189.5 270.5,-189.5"/>
<polygon fill="none" stroke="#666666" points="270.5,-173 270.5,-222 298.5,-222 298.5,-173 270.5,-173"/>
</a>
</g>
</g>
<!-- Node5&#45;&gt;Node1 -->
<g id="edge12_Node000001_Node000005" class="edge">
<title>Node5&#45;&gt;Node1</title>
<g id="a_edge12_Node000001_Node000005"><a xlink:title=" ">
<path fill="none" stroke="#63b8ff" d="M285.67,-172.61C285.64,-146.31 281.55,-104.29 258.5,-78 246.17,-63.94 229.3,-54.08 211.8,-47.18"/>
<polygon fill="none" stroke="#63b8ff" points="211.54,-47.09 204.55,-48.83 200.24,-43.05 207.24,-41.3 211.54,-47.09"/>
</a>
</g>
<text text-anchor="middle" x="325" y="-125" font-family="Helvetica,sans-Serif" font-size="10.00" fill="grey"> +research_data</text>
<text text-anchor="middle" x="325" y="-114" font-family="Helvetica,sans-Serif" font-size="10.00" fill="grey">+sections</text>
<text text-anchor="middle" x="325" y="-103" font-family="Helvetica,sans-Serif" font-size="10.00" fill="grey">+sources</text>
</g>
</g>
</svg>
