<?xml version="1.0" encoding="UTF-8" standalone="no"?>
<!DOCTYPE svg PUBLIC "-//W3C//DTD SVG 1.1//EN"
 "http://www.w3.org/Graphics/SVG/1.1/DTD/svg11.dtd">
<!-- Generated by graphviz version 2.43.0 (0)
 -->
<!-- Title: db_seed.User Pages: 1 -->
<svg width="105pt" height="217pt"
 viewBox="0.00 0.00 105.00 217.00" xmlns="http://www.w3.org/2000/svg" xmlns:xlink="http://www.w3.org/1999/xlink">
<g id="graph0" class="graph" transform="scale(1 1) rotate(0) translate(4 213)">
<title>db_seed.User</title>
<!-- Node1 -->
<g id="Node000001" class="node">
<title>Node1</title>
<g id="a_Node000001"><a xlink:title=" ">
<polygon fill="#999999" stroke="transparent" points="97,-124 0,-124 0,0 97,0 97,-124"/>
<text text-anchor="start" x="15.5" y="-112" font-family="Helvetica,sans-Serif" font-size="10.00">db_seed.User</text>
<text text-anchor="start" x="4.5" y="-97" font-family="Helvetica,sans-Serif" font-size="10.00">+</text>
<text text-anchor="start" x="17.5" y="-97" font-family="Helvetica,sans-Serif" font-size="10.00">id</text>
<text text-anchor="start" x="4.5" y="-82" font-family="Helvetica,sans-Serif" font-size="10.00">+</text>
<text text-anchor="start" x="17.5" y="-82" font-family="Helvetica,sans-Serif" font-size="10.00">username</text>
<text text-anchor="start" x="4.5" y="-67" font-family="Helvetica,sans-Serif" font-size="10.00">+</text>
<text text-anchor="start" x="17.5" y="-67" font-family="Helvetica,sans-Serif" font-size="10.00">password_hash</text>
<text text-anchor="start" x="4.5" y="-52" font-family="Helvetica,sans-Serif" font-size="10.00">+</text>
<text text-anchor="start" x="17.5" y="-52" font-family="Helvetica,sans-Serif" font-size="10.00">email</text>
<text text-anchor="start" x="4.5" y="-37" font-family="Helvetica,sans-Serif" font-size="10.00">+</text>
<text text-anchor="start" x="17.5" y="-37" font-family="Helvetica,sans-Serif" font-size="10.00">is_admin</text>
<text text-anchor="start" x="7" y="-22" font-family="Helvetica,sans-Serif" font-size="10.00">&#45;</text>
<text text-anchor="start" x="17.5" y="-22" font-family="Helvetica,sans-Serif" font-size="10.00">__tablename__</text>
<text text-anchor="start" x="47" y="-7" font-family="Helvetica,sans-Serif" font-size="10.00"> </text>
<polygon fill="#666666" stroke="#666666" points="0.5,-107 0.5,-107 97.5,-107 97.5,-107 0.5,-107"/>
<polygon fill="#666666" stroke="#666666" points="0.5,-17 0.5,-17 15.5,-17 15.5,-17 0.5,-17"/>
<polygon fill="#666666" stroke="#666666" points="15.5,-17 15.5,-17 97.5,-17 97.5,-17 15.5,-17"/>
<polygon fill="none" stroke="#666666" points="0,0 0,-124 97,-124 97,0 0,0"/>
</a>
</g>
</g>
<!-- Node2 -->
<g id="Node000002" class="node">
<title>Node2</title>
<g id="a_Node000002"><a xlink:href="$classBase.html" xlink:title=" ">
<polygon fill="white" stroke="transparent" points="66,-209 31,-209 31,-160 66,-160 66,-209"/>
<text text-anchor="start" x="36.5" y="-196.5" font-family="Helvetica,sans-Serif" font-size="10.00">Base</text>
<text text-anchor="start" x="47" y="-181.5" font-family="Helvetica,sans-Serif" font-size="10.00"> </text>
<text text-anchor="start" x="47" y="-166.5" font-family="Helvetica,sans-Serif" font-size="10.00"> </text>
<polygon fill="#666666" stroke="#666666" points="31.5,-191.5 31.5,-191.5 66.5,-191.5 66.5,-191.5 31.5,-191.5"/>
<polygon fill="#666666" stroke="#666666" points="31.5,-176.5 31.5,-176.5 66.5,-176.5 66.5,-176.5 31.5,-176.5"/>
<polygon fill="none" stroke="#666666" points="31,-160 31,-209 66,-209 66,-160 31,-160"/>
</a>
</g>
</g>
<!-- Node2&#45;&gt;Node1 -->
<g id="edge3_Node000001_Node000002" class="edge">
<title>Node2&#45;&gt;Node1</title>
<g id="a_edge3_Node000001_Node000002"><a xlink:title=" ">
<path fill="none" stroke="#63b8ff" d="M48.5,-149.94C48.5,-141.91 48.5,-133.08 48.5,-124.23"/>
<polygon fill="none" stroke="#63b8ff" points="45,-149.98 48.5,-159.98 52,-149.98 45,-149.98"/>
</a>
</g>
</g>
</g>
</svg>
