<?xml version="1.0" encoding="UTF-8" standalone="no"?>
<!DOCTYPE svg PUBLIC "-//W3C//DTD SVG 1.1//EN"
 "http://www.w3.org/Graphics/SVG/1.1/DTD/svg11.dtd">
<!-- Generated by graphviz version 2.43.0 (0)
 -->
<!-- Title: backend.server.ResearchRequest Pages: 1 -->
<svg width="180pt" height="175pt"
 viewBox="0.00 0.00 180.00 175.00" xmlns="http://www.w3.org/2000/svg" xmlns:xlink="http://www.w3.org/1999/xlink">
<g id="graph0" class="graph" transform="scale(1 1) rotate(0) translate(4 171)">
<title>backend.server.ResearchRequest</title>
<!-- Node1 -->
<g id="Node000001" class="node">
<title>Node1</title>
<g id="a_Node000001"><a xlink:title=" ">
<polygon fill="#999999" stroke="transparent" points="172,-49 0,-49 0,0 172,0 172,-49"/>
<text text-anchor="start" x="5" y="-36.5" font-family="Helvetica,sans-Serif" font-size="10.00">backend.server.ResearchRequest</text>
<text text-anchor="start" x="84" y="-21.5" font-family="Helvetica,sans-Serif" font-size="10.00"> </text>
<text text-anchor="start" x="84" y="-6.5" font-family="Helvetica,sans-Serif" font-size="10.00"> </text>
<polygon fill="#666666" stroke="#666666" points="0,-31.5 0,-31.5 172,-31.5 172,-31.5 0,-31.5"/>
<polygon fill="#666666" stroke="#666666" points="0,-16.5 0,-16.5 172,-16.5 172,-16.5 0,-16.5"/>
<polygon fill="none" stroke="#666666" points="0,0 0,-49 172,-49 172,0 0,0"/>
</a>
</g>
</g>
<!-- Node2 -->
<g id="Node000002" class="node">
<title>Node2</title>
<g id="a_Node000002"><a xlink:title=" ">
<polygon fill="white" stroke="transparent" points="87.5,-167 22.5,-167 22.5,-118 87.5,-118 87.5,-167"/>
<text text-anchor="start" x="28" y="-154.5" font-family="Helvetica,sans-Serif" font-size="10.00">BaseModel</text>
<text text-anchor="start" x="53.5" y="-139.5" font-family="Helvetica,sans-Serif" font-size="10.00"> </text>
<text text-anchor="start" x="53.5" y="-124.5" font-family="Helvetica,sans-Serif" font-size="10.00"> </text>
<polygon fill="#666666" stroke="#666666" points="23,-149.5 23,-149.5 88,-149.5 88,-149.5 23,-149.5"/>
<polygon fill="#666666" stroke="#666666" points="23,-134.5 23,-134.5 88,-134.5 88,-134.5 23,-134.5"/>
<polygon fill="none" stroke="#666666" points="22.5,-118 22.5,-167 87.5,-167 87.5,-118 22.5,-118"/>
</a>
</g>
</g>
<!-- Node2&#45;&gt;Node1 -->
<g id="edge5_Node000001_Node000002" class="edge">
<title>Node2&#45;&gt;Node1</title>
<g id="a_edge5_Node000001_Node000002"><a xlink:title=" ">
<path fill="none" stroke="#63b8ff" d="M63.93,-108.07C68.97,-89.24 75.13,-66.18 79.66,-49.22"/>
<polygon fill="none" stroke="#63b8ff" points="60.55,-107.18 61.35,-117.75 67.31,-108.99 60.55,-107.18"/>
</a>
</g>
</g>
<!-- Node3 -->
<g id="Node000003" class="node">
<title>Node3</title>
<g id="a_Node000003"><a xlink:title=" ">
<polygon fill="white" stroke="transparent" points="128.5,-167 105.5,-167 105.5,-118 128.5,-118 128.5,-167"/>
<text text-anchor="start" x="111" y="-154.5" font-family="Helvetica,sans-Serif" font-size="10.00">str</text>
<text text-anchor="start" x="115.5" y="-139.5" font-family="Helvetica,sans-Serif" font-size="10.00"> </text>
<text text-anchor="start" x="115.5" y="-124.5" font-family="Helvetica,sans-Serif" font-size="10.00"> </text>
<polygon fill="#666666" stroke="#666666" points="106,-149.5 106,-149.5 129,-149.5 129,-149.5 106,-149.5"/>
<polygon fill="#666666" stroke="#666666" points="106,-134.5 106,-134.5 129,-134.5 129,-134.5 106,-134.5"/>
<polygon fill="none" stroke="#666666" points="105.5,-118 105.5,-167 128.5,-167 128.5,-118 105.5,-118"/>
</a>
</g>
</g>
<!-- Node3&#45;&gt;Node1 -->
<g id="edge6_Node000001_Node000003" class="edge">
<title>Node3&#45;&gt;Node1</title>
<g id="a_edge6_Node000001_Node000003"><a xlink:title=" ">
<path fill="none" stroke="#63b8ff" d="M110.65,-117.75C106.28,-101.4 100.41,-79.41 95.49,-61"/>
<polygon fill="none" stroke="#63b8ff" points="95.44,-60.82 90.02,-56.05 92.34,-49.22 97.75,-53.99 95.44,-60.82"/>
</a>
</g>
<text text-anchor="middle" x="137.5" y="-92" font-family="Helvetica,sans-Serif" font-size="10.00" fill="grey"> +agent</text>
<text text-anchor="middle" x="137.5" y="-81" font-family="Helvetica,sans-Serif" font-size="10.00" fill="grey">+report_type</text>
<text text-anchor="middle" x="137.5" y="-70" font-family="Helvetica,sans-Serif" font-size="10.00" fill="grey">+task</text>
</g>
</g>
</svg>
