<?xml version="1.0" encoding="UTF-8" standalone="no"?>
<!DOCTYPE svg PUBLIC "-//W3C//DTD SVG 1.1//EN"
 "http://www.w3.org/Graphics/SVG/1.1/DTD/svg11.dtd">
<!-- Generated by graphviz version 2.43.0 (0)
 -->
<!-- Title: auth.RefreshResponse Pages: 1 -->
<svg width="128pt" height="217pt"
 viewBox="0.00 0.00 128.00 217.00" xmlns="http://www.w3.org/2000/svg" xmlns:xlink="http://www.w3.org/1999/xlink">
<g id="graph0" class="graph" transform="scale(1 1) rotate(0) translate(4 213)">
<title>auth.RefreshResponse</title>
<!-- Node1 -->
<g id="Node000001" class="node">
<title>Node1</title>
<g id="a_Node000001"><a xlink:title=" ">
<polygon fill="#999999" stroke="transparent" points="120,-124 0,-124 0,0 120,0 120,-124"/>
<text text-anchor="start" x="5" y="-112" font-family="Helvetica,sans-Serif" font-size="10.00">auth.RefreshResponse</text>
<text text-anchor="start" x="6" y="-97" font-family="Helvetica,sans-Serif" font-size="10.00">+</text>
<text text-anchor="start" x="21" y="-97" font-family="Helvetica,sans-Serif" font-size="10.00">access_token</text>
<text text-anchor="start" x="6" y="-82" font-family="Helvetica,sans-Serif" font-size="10.00">+</text>
<text text-anchor="start" x="21" y="-82" font-family="Helvetica,sans-Serif" font-size="10.00">expires_in</text>
<text text-anchor="start" x="6" y="-67" font-family="Helvetica,sans-Serif" font-size="10.00">+</text>
<text text-anchor="start" x="21" y="-67" font-family="Helvetica,sans-Serif" font-size="10.00">expires_at</text>
<text text-anchor="start" x="6" y="-52" font-family="Helvetica,sans-Serif" font-size="10.00">+</text>
<text text-anchor="start" x="21" y="-52" font-family="Helvetica,sans-Serif" font-size="10.00">refresh_token</text>
<text text-anchor="start" x="6" y="-37" font-family="Helvetica,sans-Serif" font-size="10.00">+</text>
<text text-anchor="start" x="21" y="-37" font-family="Helvetica,sans-Serif" font-size="10.00">refresh_expires_in</text>
<text text-anchor="start" x="6" y="-22" font-family="Helvetica,sans-Serif" font-size="10.00">+</text>
<text text-anchor="start" x="21" y="-22" font-family="Helvetica,sans-Serif" font-size="10.00">refresh_expires_at</text>
<text text-anchor="start" x="58" y="-7" font-family="Helvetica,sans-Serif" font-size="10.00"> </text>
<polygon fill="#666666" stroke="#666666" points="0,-107 0,-107 120,-107 120,-107 0,-107"/>
<polygon fill="#666666" stroke="#666666" points="0,-17 0,-17 19,-17 19,-17 0,-17"/>
<polygon fill="#666666" stroke="#666666" points="19,-17 19,-17 120,-17 120,-17 19,-17"/>
<polygon fill="none" stroke="#666666" points="0,0 0,-124 120,-124 120,0 0,0"/>
</a>
</g>
</g>
<!-- Node2 -->
<g id="Node000002" class="node">
<title>Node2</title>
<g id="a_Node000002"><a xlink:title=" ">
<polygon fill="white" stroke="transparent" points="92.5,-209 27.5,-209 27.5,-160 92.5,-160 92.5,-209"/>
<text text-anchor="start" x="33" y="-196.5" font-family="Helvetica,sans-Serif" font-size="10.00">BaseModel</text>
<text text-anchor="start" x="58.5" y="-181.5" font-family="Helvetica,sans-Serif" font-size="10.00"> </text>
<text text-anchor="start" x="58.5" y="-166.5" font-family="Helvetica,sans-Serif" font-size="10.00"> </text>
<polygon fill="#666666" stroke="#666666" points="28,-191.5 28,-191.5 93,-191.5 93,-191.5 28,-191.5"/>
<polygon fill="#666666" stroke="#666666" points="28,-176.5 28,-176.5 93,-176.5 93,-176.5 28,-176.5"/>
<polygon fill="none" stroke="#666666" points="27.5,-160 27.5,-209 92.5,-209 92.5,-160 27.5,-160"/>
</a>
</g>
</g>
<!-- Node2&#45;&gt;Node1 -->
<g id="edge3_Node000001_Node000002" class="edge">
<title>Node2&#45;&gt;Node1</title>
<g id="a_edge3_Node000001_Node000002"><a xlink:title=" ">
<path fill="none" stroke="#63b8ff" d="M60,-149.94C60,-141.91 60,-133.08 60,-124.23"/>
<polygon fill="none" stroke="#63b8ff" points="56.5,-149.98 60,-159.98 63.5,-149.98 56.5,-149.98"/>
</a>
</g>
</g>
</g>
</svg>
