<?xml version="1.0" encoding="UTF-8" standalone="no"?>
<!DOCTYPE svg PUBLIC "-//W3C//DTD SVG 1.1//EN"
 "http://www.w3.org/Graphics/SVG/1.1/DTD/svg11.dtd">
<!-- Generated by graphviz version 2.43.0 (0)
 -->
<!-- Title: auth.RefreshRequest Pages: 1 -->
<svg width="167pt" height="153pt"
 viewBox="0.00 0.00 166.50 153.00" xmlns="http://www.w3.org/2000/svg" xmlns:xlink="http://www.w3.org/1999/xlink">
<g id="graph0" class="graph" transform="scale(1 1) rotate(0) translate(4 149)">
<title>auth.RefreshRequest</title>
<!-- Node1 -->
<g id="Node000001" class="node">
<title>Node1</title>
<g id="a_Node000001"><a xlink:title=" ">
<polygon fill="#999999" stroke="transparent" points="120,-49 7,-49 7,0 120,0 120,-49"/>
<text text-anchor="start" x="12.5" y="-36.5" font-family="Helvetica,sans-Serif" font-size="10.00">auth.RefreshRequest</text>
<text text-anchor="start" x="62" y="-21.5" font-family="Helvetica,sans-Serif" font-size="10.00"> </text>
<text text-anchor="start" x="62" y="-6.5" font-family="Helvetica,sans-Serif" font-size="10.00"> </text>
<polygon fill="#666666" stroke="#666666" points="7.5,-31.5 7.5,-31.5 120.5,-31.5 120.5,-31.5 7.5,-31.5"/>
<polygon fill="#666666" stroke="#666666" points="7.5,-16.5 7.5,-16.5 120.5,-16.5 120.5,-16.5 7.5,-16.5"/>
<polygon fill="none" stroke="#666666" points="7,0 7,-49 120,-49 120,0 7,0"/>
</a>
</g>
</g>
<!-- Node2 -->
<g id="Node000002" class="node">
<title>Node2</title>
<g id="a_Node000002"><a xlink:title=" ">
<polygon fill="white" stroke="transparent" points="65,-145 0,-145 0,-96 65,-96 65,-145"/>
<text text-anchor="start" x="5.5" y="-132.5" font-family="Helvetica,sans-Serif" font-size="10.00">BaseModel</text>
<text text-anchor="start" x="31" y="-117.5" font-family="Helvetica,sans-Serif" font-size="10.00"> </text>
<text text-anchor="start" x="31" y="-102.5" font-family="Helvetica,sans-Serif" font-size="10.00"> </text>
<polygon fill="#666666" stroke="#666666" points="0.5,-127.5 0.5,-127.5 65.5,-127.5 65.5,-127.5 0.5,-127.5"/>
<polygon fill="#666666" stroke="#666666" points="0.5,-112.5 0.5,-112.5 65.5,-112.5 65.5,-112.5 0.5,-112.5"/>
<polygon fill="none" stroke="#666666" points="0,-96 0,-145 65,-145 65,-96 0,-96"/>
</a>
</g>
</g>
<!-- Node2&#45;&gt;Node1 -->
<g id="edge5_Node000001_Node000002" class="edge">
<title>Node2&#45;&gt;Node1</title>
<g id="a_edge5_Node000001_Node000002"><a xlink:title=" ">
<path fill="none" stroke="#63b8ff" d="M43.56,-85.96C47.57,-73.81 52.01,-60.34 55.68,-49.21"/>
<polygon fill="none" stroke="#63b8ff" points="40.13,-85.19 40.32,-95.78 46.78,-87.38 40.13,-85.19"/>
</a>
</g>
</g>
<!-- Node3 -->
<g id="Node000003" class="node">
<title>Node3</title>
<g id="a_Node000003"><a xlink:title=" ">
<polygon fill="white" stroke="transparent" points="106,-145 83,-145 83,-96 106,-96 106,-145"/>
<text text-anchor="start" x="88.5" y="-132.5" font-family="Helvetica,sans-Serif" font-size="10.00">str</text>
<text text-anchor="start" x="93" y="-117.5" font-family="Helvetica,sans-Serif" font-size="10.00"> </text>
<text text-anchor="start" x="93" y="-102.5" font-family="Helvetica,sans-Serif" font-size="10.00"> </text>
<polygon fill="#666666" stroke="#666666" points="83.5,-127.5 83.5,-127.5 106.5,-127.5 106.5,-127.5 83.5,-127.5"/>
<polygon fill="#666666" stroke="#666666" points="83.5,-112.5 83.5,-112.5 106.5,-112.5 106.5,-112.5 83.5,-112.5"/>
<polygon fill="none" stroke="#666666" points="83,-96 83,-145 106,-145 106,-96 83,-96"/>
</a>
</g>
</g>
<!-- Node3&#45;&gt;Node1 -->
<g id="edge6_Node000001_Node000003" class="edge">
<title>Node3&#45;&gt;Node1</title>
<g id="a_edge6_Node000001_Node000003"><a xlink:title=" ">
<path fill="none" stroke="#63b8ff" d="M86.68,-95.78C83.19,-85.2 79.01,-72.52 75.16,-60.86"/>
<polygon fill="none" stroke="#63b8ff" points="75.08,-60.61 69.4,-56.16 71.32,-49.21 77,-53.66 75.08,-60.61"/>
</a>
</g>
<text text-anchor="middle" x="119" y="-70" font-family="Helvetica,sans-Serif" font-size="10.00" fill="grey"> +refresh_token</text>
</g>
</g>
</svg>
