<?xml version="1.0" encoding="UTF-8" standalone="no"?>
<!DOCTYPE svg PUBLIC "-//W3C//DTD SVG 1.1//EN"
 "http://www.w3.org/Graphics/SVG/1.1/DTD/svg11.dtd">
<!-- Generated by graphviz version 2.43.0 (0)
 -->
<!-- Title: db_seed.create_admin Pages: 1 -->
<svg width="473pt" height="27pt"
 viewBox="0.00 0.00 473.00 27.00" xmlns="http://www.w3.org/2000/svg" xmlns:xlink="http://www.w3.org/1999/xlink">
<g id="graph0" class="graph" transform="scale(1 1) rotate(0) translate(4 23)">
<title>db_seed.create_admin</title>
<!-- Node1 -->
<g id="Node000001" class="node">
<title>Node1</title>
<g id="a_Node000001"><a xlink:title=" ">
<polygon fill="#999999" stroke="#666666" points="127,-19 0,-19 0,0 127,0 127,-19"/>
<text text-anchor="middle" x="63.5" y="-7" font-family="Helvetica,sans-Serif" font-size="10.00">db_seed.create_admin</text>
</a>
</g>
</g>
<!-- Node2 -->
<g id="Node000002" class="node">
<title>Node2</title>
<g id="a_Node000002"><a xlink:href="$namespacedb__seed.html#a6208bff4be72cd3a39474b32e919b20e" xlink:title=" ">
<polygon fill="white" stroke="#666666" points="298,-19 163,-19 163,0 298,0 298,-19"/>
<text text-anchor="middle" x="230.5" y="-7" font-family="Helvetica,sans-Serif" font-size="10.00">db_seed.reset_database</text>
</a>
</g>
</g>
<!-- Node1&#45;&gt;Node2 -->
<g id="edge5_Node000001_Node000002" class="edge">
<title>Node1&#45;&gt;Node2</title>
<g id="a_edge5_Node000001_Node000002"><a xlink:title=" ">
<path fill="none" stroke="#63b8ff" d="M127.35,-9.5C135.73,-9.5 144.39,-9.5 152.97,-9.5"/>
<polygon fill="#63b8ff" stroke="#63b8ff" points="152.98,-13 162.98,-9.5 152.98,-6 152.98,-13"/>
</a>
</g>
</g>
<!-- Node3 -->
<g id="Node000003" class="node">
<title>Node3</title>
<g id="a_Node000003"><a xlink:href="$namespacedb__seed.html#a70e5b0071a23a918022b1042bd19543d" xlink:title=" ">
<polygon fill="white" stroke="#666666" points="465,-19 334,-19 334,0 465,0 465,-19"/>
<text text-anchor="middle" x="399.5" y="-7" font-family="Helvetica,sans-Serif" font-size="10.00">db_seed.execute_query</text>
</a>
</g>
</g>
<!-- Node2&#45;&gt;Node3 -->
<g id="edge6_Node000002_Node000003" class="edge">
<title>Node2&#45;&gt;Node3</title>
<g id="a_edge6_Node000002_Node000003"><a xlink:title=" ">
<path fill="none" stroke="#63b8ff" d="M298.46,-9.5C306.79,-9.5 315.34,-9.5 323.77,-9.5"/>
<polygon fill="#63b8ff" stroke="#63b8ff" points="323.97,-13 333.97,-9.5 323.97,-6 323.97,-13"/>
</a>
</g>
</g>
</g>
</svg>
