<?xml version="1.0" encoding="UTF-8" standalone="no"?>
<!DOCTYPE svg PUBLIC "-//W3C//DTD SVG 1.1//EN"
 "http://www.w3.org/Graphics/SVG/1.1/DTD/svg11.dtd">
<!-- Generated by graphviz version 2.43.0 (0)
 -->
<!-- Title: users.display_users Pages: 1 -->
<svg width="583pt" height="101pt"
 viewBox="0.00 0.00 583.00 101.00" xmlns="http://www.w3.org/2000/svg" xmlns:xlink="http://www.w3.org/1999/xlink">
<g id="graph0" class="graph" transform="scale(1 1) rotate(0) translate(4 97)">
<title>users.display_users</title>
<!-- Node1 -->
<g id="Node000001" class="node">
<title>Node1</title>
<g id="a_Node000001"><a xlink:title=" ">
<polygon fill="#999999" stroke="#666666" points="113,-56 0,-56 0,-37 113,-37 113,-56"/>
<text text-anchor="middle" x="56.5" y="-44" font-family="Helvetica,sans-Serif" font-size="10.00">users.display_users</text>
</a>
</g>
</g>
<!-- Node2 -->
<g id="Node000002" class="node">
<title>Node2</title>
<g id="a_Node000002"><a xlink:href="$namespaceusers.html#abe93ce193b17b4e895eab26ae2806aaa" xlink:title=" ">
<polygon fill="white" stroke="#666666" points="253.5,-93 150.5,-93 150.5,-74 253.5,-74 253.5,-93"/>
<text text-anchor="middle" x="202" y="-81" font-family="Helvetica,sans-Serif" font-size="10.00">users.delete_user</text>
</a>
</g>
</g>
<!-- Node1&#45;&gt;Node2 -->
<g id="edge11_Node000001_Node000002" class="edge">
<title>Node1&#45;&gt;Node2</title>
<g id="a_edge11_Node000001_Node000002"><a xlink:title=" ">
<path fill="none" stroke="#63b8ff" d="M94.45,-56.03C112.56,-60.7 134.56,-66.37 153.86,-71.35"/>
<polygon fill="#63b8ff" stroke="#63b8ff" points="153.11,-74.77 163.67,-73.88 154.86,-67.99 153.11,-74.77"/>
</a>
</g>
</g>
<!-- Node3 -->
<g id="Node000003" class="node">
<title>Node3</title>
<g id="a_Node000003"><a xlink:href="$namespaceusers.html#a9053a1292a9bb75e476207697da5bcc6" xlink:title=" ">
<polygon fill="white" stroke="#666666" points="253,-56 151,-56 151,-37 253,-37 253,-56"/>
<text text-anchor="middle" x="202" y="-44" font-family="Helvetica,sans-Serif" font-size="10.00">users.fetch_users</text>
</a>
</g>
</g>
<!-- Node1&#45;&gt;Node3 -->
<g id="edge12_Node000001_Node000003" class="edge">
<title>Node1&#45;&gt;Node3</title>
<g id="a_edge12_Node000001_Node000003"><a xlink:title=" ">
<path fill="none" stroke="#63b8ff" d="M113.39,-46.5C122.31,-46.5 131.58,-46.5 140.59,-46.5"/>
<polygon fill="#63b8ff" stroke="#63b8ff" points="140.64,-50 150.64,-46.5 140.64,-43 140.64,-50"/>
</a>
</g>
</g>
<!-- Node6 -->
<g id="Node000006" class="node">
<title>Node6</title>
<g id="a_Node000006"><a xlink:href="$namespaceusers.html#aee9ead2895deb372a9320b932418df2c" xlink:title=" ">
<polygon fill="white" stroke="#666666" points="255,-19 149,-19 149,0 255,0 255,-19"/>
<text text-anchor="middle" x="202" y="-7" font-family="Helvetica,sans-Serif" font-size="10.00">users.modify_user</text>
</a>
</g>
</g>
<!-- Node1&#45;&gt;Node6 -->
<g id="edge15_Node000001_Node000006" class="edge">
<title>Node1&#45;&gt;Node6</title>
<g id="a_edge15_Node000001_Node000006"><a xlink:title=" ">
<path fill="none" stroke="#63b8ff" d="M94.45,-36.97C112.56,-32.3 134.56,-26.63 153.86,-21.65"/>
<polygon fill="#63b8ff" stroke="#63b8ff" points="154.86,-25.01 163.67,-19.12 153.11,-18.23 154.86,-25.01"/>
</a>
</g>
</g>
<!-- Node4 -->
<g id="Node000004" class="node">
<title>Node4</title>
<g id="a_Node000004"><a xlink:href="$namespaceusers.html#aa1996995f5442274830bef5c28e4e859" xlink:title=" ">
<polygon fill="white" stroke="#666666" points="420,-61.5 291,-61.5 291,-31.5 420,-31.5 420,-61.5"/>
<text text-anchor="start" x="299" y="-49.5" font-family="Helvetica,sans-Serif" font-size="10.00">users.get_valid_access</text>
<text text-anchor="middle" x="355.5" y="-38.5" font-family="Helvetica,sans-Serif" font-size="10.00">_token</text>
</a>
</g>
</g>
<!-- Node3&#45;&gt;Node4 -->
<g id="edge13_Node000003_Node000004" class="edge">
<title>Node3&#45;&gt;Node4</title>
<g id="a_edge13_Node000003_Node000004"><a xlink:title=" ">
<path fill="none" stroke="#63b8ff" d="M253.03,-46.5C261.89,-46.5 271.28,-46.5 280.64,-46.5"/>
<polygon fill="#63b8ff" stroke="#63b8ff" points="280.75,-50 290.75,-46.5 280.75,-43 280.75,-50"/>
</a>
</g>
</g>
<!-- Node5 -->
<g id="Node000005" class="node">
<title>Node5</title>
<g id="a_Node000005"><a xlink:href="$namespaceusers.html#a932657c601af16b61216fe6fe33a7c1f" xlink:title=" ">
<polygon fill="white" stroke="#666666" points="575,-61.5 456,-61.5 456,-31.5 575,-31.5 575,-61.5"/>
<text text-anchor="start" x="464" y="-49.5" font-family="Helvetica,sans-Serif" font-size="10.00">users.refresh_access</text>
<text text-anchor="middle" x="515.5" y="-38.5" font-family="Helvetica,sans-Serif" font-size="10.00">_token</text>
</a>
</g>
</g>
<!-- Node4&#45;&gt;Node5 -->
<g id="edge14_Node000004_Node000005" class="edge">
<title>Node4&#45;&gt;Node5</title>
<g id="a_edge14_Node000004_Node000005"><a xlink:title=" ">
<path fill="none" stroke="#63b8ff" d="M420.31,-46.5C428.65,-46.5 437.23,-46.5 445.65,-46.5"/>
<polygon fill="#63b8ff" stroke="#63b8ff" points="445.81,-50 455.81,-46.5 445.81,-43 445.81,-50"/>
</a>
</g>
</g>
</g>
</svg>
