<?xml version="1.0" encoding="UTF-8" standalone="no"?>
<!DOCTYPE svg PUBLIC "-//W3C//DTD SVG 1.1//EN"
 "http://www.w3.org/Graphics/SVG/1.1/DTD/svg11.dtd">
<!-- Generated by graphviz version 2.43.0 (0)
 -->
<!-- Title: users.get_valid_access_token Pages: 1 -->
<svg width="424pt" height="38pt"
 viewBox="0.00 0.00 424.00 38.00" xmlns="http://www.w3.org/2000/svg" xmlns:xlink="http://www.w3.org/1999/xlink">
<g id="graph0" class="graph" transform="scale(1 1) rotate(0) translate(4 34)">
<title>users.get_valid_access_token</title>
<!-- Node1 -->
<g id="Node000001" class="node">
<title>Node1</title>
<g id="a_Node000001"><a xlink:title=" ">
<polygon fill="#999999" stroke="#666666" points="416,-30 287,-30 287,0 416,0 416,-30"/>
<text text-anchor="start" x="295" y="-18" font-family="Helvetica,sans-Serif" font-size="10.00">users.get_valid_access</text>
<text text-anchor="middle" x="351.5" y="-7" font-family="Helvetica,sans-Serif" font-size="10.00">_token</text>
</a>
</g>
</g>
<!-- Node2 -->
<g id="Node000002" class="node">
<title>Node2</title>
<g id="a_Node000002"><a xlink:href="$namespaceusers.html#a9053a1292a9bb75e476207697da5bcc6" xlink:title=" ">
<polygon fill="white" stroke="#666666" points="251,-24.5 149,-24.5 149,-5.5 251,-5.5 251,-24.5"/>
<text text-anchor="middle" x="200" y="-12.5" font-family="Helvetica,sans-Serif" font-size="10.00">users.fetch_users</text>
</a>
</g>
</g>
<!-- Node1&#45;&gt;Node2 -->
<g id="edge5_Node000001_Node000002" class="edge">
<title>Node1&#45;&gt;Node2</title>
<g id="a_edge5_Node000001_Node000002"><a xlink:title=" ">
<path fill="none" stroke="#63b8ff" d="M276.56,-15C267.92,-15 259.27,-15 251.06,-15"/>
<polygon fill="#63b8ff" stroke="#63b8ff" points="276.66,-18.5 286.66,-15 276.66,-11.5 276.66,-18.5"/>
</a>
</g>
</g>
<!-- Node3 -->
<g id="Node000003" class="node">
<title>Node3</title>
<g id="a_Node000003"><a xlink:href="$namespaceusers.html#a22767a039fbf019d609ba4ae7ee70199" xlink:title=" ">
<polygon fill="white" stroke="#666666" points="113,-24.5 0,-24.5 0,-5.5 113,-5.5 113,-24.5"/>
<text text-anchor="middle" x="56.5" y="-12.5" font-family="Helvetica,sans-Serif" font-size="10.00">users.display_users</text>
</a>
</g>
</g>
<!-- Node2&#45;&gt;Node3 -->
<g id="edge6_Node000002_Node000003" class="edge">
<title>Node2&#45;&gt;Node3</title>
<g id="a_edge6_Node000002_Node000003"><a xlink:title=" ">
<path fill="none" stroke="#63b8ff" d="M138.63,-15C130.26,-15 121.69,-15 113.4,-15"/>
<polygon fill="#63b8ff" stroke="#63b8ff" points="138.71,-18.5 148.71,-15 138.71,-11.5 138.71,-18.5"/>
</a>
</g>
</g>
</g>
</svg>
