<?xml version="1.0" encoding="UTF-8" standalone="no"?>
<!DOCTYPE svg PUBLIC "-//W3C//DTD SVG 1.1//EN"
 "http://www.w3.org/Graphics/SVG/1.1/DTD/svg11.dtd">
<!-- Generated by graphviz version 2.43.0 (0)
 -->
<!-- Title: web_scrape.scrape_text_with_selenium Pages: 1 -->
<svg width="296pt" height="124pt"
 viewBox="0.00 0.00 296.00 123.50" xmlns="http://www.w3.org/2000/svg" xmlns:xlink="http://www.w3.org/1999/xlink">
<g id="graph0" class="graph" transform="scale(1 1) rotate(0) translate(4 119.5)">
<title>web_scrape.scrape_text_with_selenium</title>
<!-- Node1 -->
<g id="Node000001" class="node">
<title>Node1</title>
<g id="a_Node000001"><a xlink:title=" ">
<polygon fill="#999999" stroke="#666666" points="134,-78 0,-78 0,-48 134,-48 134,-78"/>
<text text-anchor="start" x="8" y="-66" font-family="Helvetica,sans-Serif" font-size="10.00">web_scrape.scrape_text</text>
<text text-anchor="middle" x="67" y="-55" font-family="Helvetica,sans-Serif" font-size="10.00">_with_selenium</text>
</a>
</g>
</g>
<!-- Node2 -->
<g id="Node000002" class="node">
<title>Node2</title>
<g id="a_Node000002"><a xlink:href="$namespaceweb__scrape.html#af8e21857763f45f8dd875e3a80c1b451" xlink:title=" ">
<polygon fill="white" stroke="#666666" points="288,-115.5 170,-115.5 170,-96.5 288,-96.5 288,-115.5"/>
<text text-anchor="middle" x="229" y="-103.5" font-family="Helvetica,sans-Serif" font-size="10.00">web_scrape.get_text</text>
</a>
</g>
</g>
<!-- Node1&#45;&gt;Node2 -->
<g id="edge7_Node000001_Node000002" class="edge">
<title>Node1&#45;&gt;Node2</title>
<g id="a_edge7_Node000001_Node000002"><a xlink:title=" ">
<path fill="none" stroke="#63b8ff" d="M123.96,-78.04C143.12,-83.19 164.31,-88.88 182.54,-93.78"/>
<polygon fill="#63b8ff" stroke="#63b8ff" points="181.76,-97.2 192.33,-96.41 183.58,-90.44 181.76,-97.2"/>
</a>
</g>
</g>
<!-- Node3 -->
<g id="Node000003" class="node">
<title>Node3</title>
<g id="a_Node000003"><a xlink:href="$namespacescrape__skills.html#a834d3a6a7957c6c45ea14406a6f6a754" xlink:title=" ">
<polygon fill="white" stroke="#666666" points="286.5,-78 171.5,-78 171.5,-48 286.5,-48 286.5,-78"/>
<text text-anchor="start" x="179.5" y="-66" font-family="Helvetica,sans-Serif" font-size="10.00">scrape_skills.scrape</text>
<text text-anchor="middle" x="229" y="-55" font-family="Helvetica,sans-Serif" font-size="10.00">_pdf_with_arxiv</text>
</a>
</g>
</g>
<!-- Node1&#45;&gt;Node3 -->
<g id="edge8_Node000001_Node000003" class="edge">
<title>Node1&#45;&gt;Node3</title>
<g id="a_edge8_Node000001_Node000003"><a xlink:title=" ">
<path fill="none" stroke="#63b8ff" d="M134,-63C143.01,-63 152.26,-63 161.28,-63"/>
<polygon fill="#63b8ff" stroke="#63b8ff" points="161.34,-66.5 171.34,-63 161.34,-59.5 161.34,-66.5"/>
</a>
</g>
</g>
<!-- Node4 -->
<g id="Node000004" class="node">
<title>Node4</title>
<g id="a_Node000004"><a xlink:href="$namespacescrape__skills.html#a1a5398a51f4da8236daecf9fe86ecf27" xlink:title=" ">
<polygon fill="white" stroke="#666666" points="286.5,-30 171.5,-30 171.5,0 286.5,0 286.5,-30"/>
<text text-anchor="start" x="179.5" y="-18" font-family="Helvetica,sans-Serif" font-size="10.00">scrape_skills.scrape</text>
<text text-anchor="middle" x="229" y="-7" font-family="Helvetica,sans-Serif" font-size="10.00">_pdf_with_pymupdf</text>
</a>
</g>
</g>
<!-- Node1&#45;&gt;Node4 -->
<g id="edge9_Node000001_Node000004" class="edge">
<title>Node1&#45;&gt;Node4</title>
<g id="a_edge9_Node000001_Node000004"><a xlink:title=" ">
<path fill="none" stroke="#63b8ff" d="M118.19,-47.94C133.97,-43.21 151.57,-37.93 167.96,-33.01"/>
<polygon fill="#63b8ff" stroke="#63b8ff" points="169.42,-36.23 177.99,-30 167.41,-29.52 169.42,-36.23"/>
</a>
</g>
</g>
</g>
</svg>
